<?xml version="1.0" encoding="utf-8" standalone="no"?>
<!DOCTYPE svg PUBLIC "-//W3C//DTD SVG 1.1//EN"
  "http://www.w3.org/Graphics/SVG/1.1/DTD/svg11.dtd">
<svg xmlns:xlink="http://www.w3.org/1999/xlink" width="1080pt" height="360pt" viewBox="0 0 1080 360" xmlns="http://www.w3.org/2000/svg" version="1.1">
 <metadata>
  <rdf:RDF xmlns:dc="http://purl.org/dc/elements/1.1/" xmlns:cc="http://creativecommons.org/ns#" xmlns:rdf="http://www.w3.org/1999/02/22-rdf-syntax-ns#">
   <cc:Work>
    <dc:type rdf:resource="http://purl.org/dc/dcmitype/StillImage"/>
    <dc:date>2024-08-27T21:59:04.813601</dc:date>
    <dc:format>image/svg+xml</dc:format>
    <dc:creator>
     <cc:Agent>
      <dc:title>Matplotlib v3.7.5, https://matplotlib.org/</dc:title>
     </cc:Agent>
    </dc:creator>
   </cc:Work>
  </rdf:RDF>
 </metadata>
 <defs>
  <style type="text/css">*{stroke-linejoin: round; stroke-linecap: butt}</style>
 </defs>
 <g id="figure_1">
  <g id="patch_1">
   <path d="M 0 360 
L 1080 360 
L 1080 0 
L 0 0 
z
" style="fill: #ffffff"/>
  </g>
  <g id="axes_1">
   <g id="patch_2">
    <path d="M 56 318.04 
L 534.957581 318.04 
L 534.957581 41.856 
L 56 41.856 
z
" style="fill: #ffffff"/>
   </g>
   <g id="matplotlib.axis_1">
    <g id="xtick_1">
     <g id="line2d_1">
      <path d="M 88.747673 318.04 
L 88.747673 41.856 
" clip-path="url(#pa2e4f12597)" style="fill: none; stroke: #b0b0b0; stroke-width: 0.8; stroke-linecap: square"/>
     </g>
     <g id="line2d_2">
      <defs>
       <path id="m749ff5e70c" d="M 0 0 
L 0 3.5 
" style="stroke: #000000; stroke-width: 0.8"/>
      </defs>
      <g>
       <use xlink:href="#m749ff5e70c" x="88.747673" y="318.04" style="stroke: #000000; stroke-width: 0.8"/>
      </g>
     </g>
     <g id="text_1">
      <!-- −10 -->
      <g transform="translate(78.195329 332.638438) scale(0.1 -0.1)">
       <defs>
        <path id="DejaVuSans-2212" d="M 678 2272 
L 4684 2272 
L 4684 1741 
L 678 1741 
L 678 2272 
z
" transform="scale(0.015625)"/>
        <path id="DejaVuSans-31" d="M 794 531 
L 1825 531 
L 1825 4091 
L 703 3866 
L 703 4441 
L 1819 4666 
L 2450 4666 
L 2450 531 
L 3481 531 
L 3481 0 
L 794 0 
L 794 531 
z
" transform="scale(0.015625)"/>
        <path id="DejaVuSans-30" d="M 2034 4250 
Q 1547 4250 1301 3770 
Q 1056 3291 1056 2328 
Q 1056 1369 1301 889 
Q 1547 409 2034 409 
Q 2525 409 2770 889 
Q 3016 1369 3016 2328 
Q 3016 3291 2770 3770 
Q 2525 4250 2034 4250 
z
M 2034 4750 
Q 2819 4750 3233 4129 
Q 3647 3509 3647 2328 
Q 3647 1150 3233 529 
Q 2819 -91 2034 -91 
Q 1250 -91 836 529 
Q 422 1150 422 2328 
Q 422 3509 836 4129 
Q 1250 4750 2034 4750 
z
" transform="scale(0.015625)"/>
       </defs>
       <use xlink:href="#DejaVuSans-2212"/>
       <use xlink:href="#DejaVuSans-31" x="83.789062"/>
       <use xlink:href="#DejaVuSans-30" x="147.412109"/>
      </g>
     </g>
    </g>
    <g id="xtick_2">
     <g id="line2d_3">
      <path d="M 161.926829 318.04 
L 161.926829 41.856 
" clip-path="url(#pa2e4f12597)" style="fill: none; stroke: #b0b0b0; stroke-width: 0.8; stroke-linecap: square"/>
     </g>
     <g id="line2d_4">
      <g>
       <use xlink:href="#m749ff5e70c" x="161.926829" y="318.04" style="stroke: #000000; stroke-width: 0.8"/>
      </g>
     </g>
     <g id="text_2">
      <!-- −5 -->
      <g transform="translate(154.555736 332.638438) scale(0.1 -0.1)">
       <defs>
        <path id="DejaVuSans-35" d="M 691 4666 
L 3169 4666 
L 3169 4134 
L 1269 4134 
L 1269 2991 
Q 1406 3038 1543 3061 
Q 1681 3084 1819 3084 
Q 2600 3084 3056 2656 
Q 3513 2228 3513 1497 
Q 3513 744 3044 326 
Q 2575 -91 1722 -91 
Q 1428 -91 1123 -41 
Q 819 9 494 109 
L 494 744 
Q 775 591 1075 516 
Q 1375 441 1709 441 
Q 2250 441 2565 725 
Q 2881 1009 2881 1497 
Q 2881 1984 2565 2268 
Q 2250 2553 1709 2553 
Q 1456 2553 1204 2497 
Q 953 2441 691 2322 
L 691 4666 
z
" transform="scale(0.015625)"/>
       </defs>
       <use xlink:href="#DejaVuSans-2212"/>
       <use xlink:href="#DejaVuSans-35" x="83.789062"/>
      </g>
     </g>
    </g>
    <g id="xtick_3">
     <g id="line2d_5">
      <path d="M 235.105986 318.04 
L 235.105986 41.856 
" clip-path="url(#pa2e4f12597)" style="fill: none; stroke: #b0b0b0; stroke-width: 0.8; stroke-linecap: square"/>
     </g>
     <g id="line2d_6">
      <g>
       <use xlink:href="#m749ff5e70c" x="235.105986" y="318.04" style="stroke: #000000; stroke-width: 0.8"/>
      </g>
     </g>
     <g id="text_3">
      <!-- 0 -->
      <g transform="translate(231.924736 332.638438) scale(0.1 -0.1)">
       <use xlink:href="#DejaVuSans-30"/>
      </g>
     </g>
    </g>
    <g id="xtick_4">
     <g id="line2d_7">
      <path d="M 308.285143 318.04 
L 308.285143 41.856 
" clip-path="url(#pa2e4f12597)" style="fill: none; stroke: #b0b0b0; stroke-width: 0.8; stroke-linecap: square"/>
     </g>
     <g id="line2d_8">
      <g>
       <use xlink:href="#m749ff5e70c" x="308.285143" y="318.04" style="stroke: #000000; stroke-width: 0.8"/>
      </g>
     </g>
     <g id="text_4">
      <!-- 5 -->
      <g transform="translate(305.103893 332.638438) scale(0.1 -0.1)">
       <use xlink:href="#DejaVuSans-35"/>
      </g>
     </g>
    </g>
    <g id="xtick_5">
     <g id="line2d_9">
      <path d="M 381.4643 318.04 
L 381.4643 41.856 
" clip-path="url(#pa2e4f12597)" style="fill: none; stroke: #b0b0b0; stroke-width: 0.8; stroke-linecap: square"/>
     </g>
     <g id="line2d_10">
      <g>
       <use xlink:href="#m749ff5e70c" x="381.4643" y="318.04" style="stroke: #000000; stroke-width: 0.8"/>
      </g>
     </g>
     <g id="text_5">
      <!-- 10 -->
      <g transform="translate(375.1018 332.638438) scale(0.1 -0.1)">
       <use xlink:href="#DejaVuSans-31"/>
       <use xlink:href="#DejaVuSans-30" x="63.623047"/>
      </g>
     </g>
    </g>
    <g id="xtick_6">
     <g id="line2d_11">
      <path d="M 454.643457 318.04 
L 454.643457 41.856 
" clip-path="url(#pa2e4f12597)" style="fill: none; stroke: #b0b0b0; stroke-width: 0.8; stroke-linecap: square"/>
     </g>
     <g id="line2d_12">
      <g>
       <use xlink:href="#m749ff5e70c" x="454.643457" y="318.04" style="stroke: #000000; stroke-width: 0.8"/>
      </g>
     </g>
     <g id="text_6">
      <!-- 15 -->
      <g transform="translate(448.280957 332.638438) scale(0.1 -0.1)">
       <use xlink:href="#DejaVuSans-31"/>
       <use xlink:href="#DejaVuSans-35" x="63.623047"/>
      </g>
     </g>
    </g>
    <g id="xtick_7">
     <g id="line2d_13">
      <path d="M 527.822613 318.04 
L 527.822613 41.856 
" clip-path="url(#pa2e4f12597)" style="fill: none; stroke: #b0b0b0; stroke-width: 0.8; stroke-linecap: square"/>
     </g>
     <g id="line2d_14">
      <g>
       <use xlink:href="#m749ff5e70c" x="527.822613" y="318.04" style="stroke: #000000; stroke-width: 0.8"/>
      </g>
     </g>
     <g id="text_7">
      <!-- 20 -->
      <g transform="translate(521.460113 332.638438) scale(0.1 -0.1)">
       <defs>
        <path id="DejaVuSans-32" d="M 1228 531 
L 3431 531 
L 3431 0 
L 469 0 
L 469 531 
Q 828 903 1448 1529 
Q 2069 2156 2228 2338 
Q 2531 2678 2651 2914 
Q 2772 3150 2772 3378 
Q 2772 3750 2511 3984 
Q 2250 4219 1831 4219 
Q 1534 4219 1204 4116 
Q 875 4013 500 3803 
L 500 4441 
Q 881 4594 1212 4672 
Q 1544 4750 1819 4750 
Q 2544 4750 2975 4387 
Q 3406 4025 3406 3419 
Q 3406 3131 3298 2873 
Q 3191 2616 2906 2266 
Q 2828 2175 2409 1742 
Q 1991 1309 1228 531 
z
" transform="scale(0.015625)"/>
       </defs>
       <use xlink:href="#DejaVuSans-32"/>
       <use xlink:href="#DejaVuSans-30" x="63.623047"/>
      </g>
     </g>
    </g>
    <g id="text_8">
     <!-- Alpha -->
     <g transform="translate(281.262384 346.316563) scale(0.1 -0.1)">
      <defs>
       <path id="DejaVuSans-41" d="M 2188 4044 
L 1331 1722 
L 3047 1722 
L 2188 4044 
z
M 1831 4666 
L 2547 4666 
L 4325 0 
L 3669 0 
L 3244 1197 
L 1141 1197 
L 716 0 
L 50 0 
L 1831 4666 
z
" transform="scale(0.015625)"/>
       <path id="DejaVuSans-6c" d="M 603 4863 
L 1178 4863 
L 1178 0 
L 603 0 
L 603 4863 
z
" transform="scale(0.015625)"/>
       <path id="DejaVuSans-70" d="M 1159 525 
L 1159 -1331 
L 581 -1331 
L 581 3500 
L 1159 3500 
L 1159 2969 
Q 1341 3281 1617 3432 
Q 1894 3584 2278 3584 
Q 2916 3584 3314 3078 
Q 3713 2572 3713 1747 
Q 3713 922 3314 415 
Q 2916 -91 2278 -91 
Q 1894 -91 1617 61 
Q 1341 213 1159 525 
z
M 3116 1747 
Q 3116 2381 2855 2742 
Q 2594 3103 2138 3103 
Q 1681 3103 1420 2742 
Q 1159 2381 1159 1747 
Q 1159 1113 1420 752 
Q 1681 391 2138 391 
Q 2594 391 2855 752 
Q 3116 1113 3116 1747 
z
" transform="scale(0.015625)"/>
       <path id="DejaVuSans-68" d="M 3513 2113 
L 3513 0 
L 2938 0 
L 2938 2094 
Q 2938 2591 2744 2837 
Q 2550 3084 2163 3084 
Q 1697 3084 1428 2787 
Q 1159 2491 1159 1978 
L 1159 0 
L 581 0 
L 581 4863 
L 1159 4863 
L 1159 2956 
Q 1366 3272 1645 3428 
Q 1925 3584 2291 3584 
Q 2894 3584 3203 3211 
Q 3513 2838 3513 2113 
z
" transform="scale(0.015625)"/>
       <path id="DejaVuSans-61" d="M 2194 1759 
Q 1497 1759 1228 1600 
Q 959 1441 959 1056 
Q 959 750 1161 570 
Q 1363 391 1709 391 
Q 2188 391 2477 730 
Q 2766 1069 2766 1631 
L 2766 1759 
L 2194 1759 
z
M 3341 1997 
L 3341 0 
L 2766 0 
L 2766 531 
Q 2569 213 2275 61 
Q 1981 -91 1556 -91 
Q 1019 -91 701 211 
Q 384 513 384 1019 
Q 384 1609 779 1909 
Q 1175 2209 1959 2209 
L 2766 2209 
L 2766 2266 
Q 2766 2663 2505 2880 
Q 2244 3097 1772 3097 
Q 1472 3097 1187 3025 
Q 903 2953 641 2809 
L 641 3341 
Q 956 3463 1253 3523 
Q 1550 3584 1831 3584 
Q 2591 3584 2966 3190 
Q 3341 2797 3341 1997 
z
" transform="scale(0.015625)"/>
      </defs>
      <use xlink:href="#DejaVuSans-41"/>
      <use xlink:href="#DejaVuSans-6c" x="68.408203"/>
      <use xlink:href="#DejaVuSans-70" x="96.191406"/>
      <use xlink:href="#DejaVuSans-68" x="159.667969"/>
      <use xlink:href="#DejaVuSans-61" x="223.046875"/>
     </g>
    </g>
   </g>
   <g id="matplotlib.axis_2">
    <g id="ytick_1">
     <g id="line2d_15">
      <path d="M 56 282.274906 
L 534.957581 282.274906 
" clip-path="url(#pa2e4f12597)" style="fill: none; stroke: #b0b0b0; stroke-width: 0.8; stroke-linecap: square"/>
     </g>
     <g id="line2d_16">
      <defs>
       <path id="m2698fb6cbb" d="M 0 0 
L -3.5 0 
" style="stroke: #000000; stroke-width: 0.8"/>
      </defs>
      <g>
       <use xlink:href="#m2698fb6cbb" x="56" y="282.274906" style="stroke: #000000; stroke-width: 0.8"/>
      </g>
     </g>
     <g id="text_9">
      <!-- −0.5 -->
      <g transform="translate(24.717187 286.074124) scale(0.1 -0.1)">
       <defs>
        <path id="DejaVuSans-2e" d="M 684 794 
L 1344 794 
L 1344 0 
L 684 0 
L 684 794 
z
" transform="scale(0.015625)"/>
       </defs>
       <use xlink:href="#DejaVuSans-2212"/>
       <use xlink:href="#DejaVuSans-30" x="83.789062"/>
       <use xlink:href="#DejaVuSans-2e" x="147.412109"/>
       <use xlink:href="#DejaVuSans-35" x="179.199219"/>
      </g>
     </g>
    </g>
    <g id="ytick_2">
     <g id="line2d_17">
      <path d="M 56 223.601305 
L 534.957581 223.601305 
" clip-path="url(#pa2e4f12597)" style="fill: none; stroke: #b0b0b0; stroke-width: 0.8; stroke-linecap: square"/>
     </g>
     <g id="line2d_18">
      <g>
       <use xlink:href="#m2698fb6cbb" x="56" y="223.601305" style="stroke: #000000; stroke-width: 0.8"/>
      </g>
     </g>
     <g id="text_10">
      <!-- 0.0 -->
      <g transform="translate(33.096875 227.400524) scale(0.1 -0.1)">
       <use xlink:href="#DejaVuSans-30"/>
       <use xlink:href="#DejaVuSans-2e" x="63.623047"/>
       <use xlink:href="#DejaVuSans-30" x="95.410156"/>
      </g>
     </g>
    </g>
    <g id="ytick_3">
     <g id="line2d_19">
      <path d="M 56 164.927705 
L 534.957581 164.927705 
" clip-path="url(#pa2e4f12597)" style="fill: none; stroke: #b0b0b0; stroke-width: 0.8; stroke-linecap: square"/>
     </g>
     <g id="line2d_20">
      <g>
       <use xlink:href="#m2698fb6cbb" x="56" y="164.927705" style="stroke: #000000; stroke-width: 0.8"/>
      </g>
     </g>
     <g id="text_11">
      <!-- 0.5 -->
      <g transform="translate(33.096875 168.726924) scale(0.1 -0.1)">
       <use xlink:href="#DejaVuSans-30"/>
       <use xlink:href="#DejaVuSans-2e" x="63.623047"/>
       <use xlink:href="#DejaVuSans-35" x="95.410156"/>
      </g>
     </g>
    </g>
    <g id="ytick_4">
     <g id="line2d_21">
      <path d="M 56 106.254105 
L 534.957581 106.254105 
" clip-path="url(#pa2e4f12597)" style="fill: none; stroke: #b0b0b0; stroke-width: 0.8; stroke-linecap: square"/>
     </g>
     <g id="line2d_22">
      <g>
       <use xlink:href="#m2698fb6cbb" x="56" y="106.254105" style="stroke: #000000; stroke-width: 0.8"/>
      </g>
     </g>
     <g id="text_12">
      <!-- 1.0 -->
      <g transform="translate(33.096875 110.053324) scale(0.1 -0.1)">
       <use xlink:href="#DejaVuSans-31"/>
       <use xlink:href="#DejaVuSans-2e" x="63.623047"/>
       <use xlink:href="#DejaVuSans-30" x="95.410156"/>
      </g>
     </g>
    </g>
    <g id="ytick_5">
     <g id="line2d_23">
      <path d="M 56 47.580505 
L 534.957581 47.580505 
" clip-path="url(#pa2e4f12597)" style="fill: none; stroke: #b0b0b0; stroke-width: 0.8; stroke-linecap: square"/>
     </g>
     <g id="line2d_24">
      <g>
       <use xlink:href="#m2698fb6cbb" x="56" y="47.580505" style="stroke: #000000; stroke-width: 0.8"/>
      </g>
     </g>
     <g id="text_13">
      <!-- 1.5 -->
      <g transform="translate(33.096875 51.379723) scale(0.1 -0.1)">
       <use xlink:href="#DejaVuSans-31"/>
       <use xlink:href="#DejaVuSans-2e" x="63.623047"/>
       <use xlink:href="#DejaVuSans-35" x="95.410156"/>
      </g>
     </g>
    </g>
    <g id="text_14">
     <!-- Cl -->
     <g transform="translate(18.6375 184.828469) rotate(-90) scale(0.1 -0.1)">
      <defs>
       <path id="DejaVuSans-43" d="M 4122 4306 
L 4122 3641 
Q 3803 3938 3442 4084 
Q 3081 4231 2675 4231 
Q 1875 4231 1450 3742 
Q 1025 3253 1025 2328 
Q 1025 1406 1450 917 
Q 1875 428 2675 428 
Q 3081 428 3442 575 
Q 3803 722 4122 1019 
L 4122 359 
Q 3791 134 3420 21 
Q 3050 -91 2638 -91 
Q 1578 -91 968 557 
Q 359 1206 359 2328 
Q 359 3453 968 4101 
Q 1578 4750 2638 4750 
Q 3056 4750 3426 4639 
Q 3797 4528 4122 4306 
z
" transform="scale(0.015625)"/>
      </defs>
      <use xlink:href="#DejaVuSans-43"/>
      <use xlink:href="#DejaVuSans-6c" x="69.824219"/>
     </g>
    </g>
   </g>
   <g id="line2d_25">
    <path d="M 77.770799 266.820279 
L 81.429757 303.6673 
L 85.088715 305.486182 
L 88.747673 303.514749 
L 92.40663 302.130052 
L 96.065588 299.161168 
L 99.724546 295.523405 
L 103.383504 291.768294 
L 107.042462 289.292268 
L 110.70142 285.677974 
L 114.360378 282.098885 
L 118.019335 278.050406 
L 121.678293 273.825907 
L 125.337251 271.115187 
L 128.996209 267.313138 
L 132.655167 263.499353 
L 136.314125 259.368732 
L 139.973082 256.587603 
L 143.63204 253.125861 
L 147.290998 249.476363 
L 150.949956 246.484009 
L 154.608914 243.010532 
L 158.267872 240.029913 
L 161.926829 236.861539 
L 165.585787 233.740103 
L 169.244745 230.677342 
L 172.903703 227.555906 
L 176.562661 224.528348 
L 180.221619 221.442117 
L 183.880576 218.414559 
L 187.539534 215.363532 
L 191.198492 212.335974 
L 194.85745 209.437498 
L 198.516408 206.421675 
L 202.175366 203.628812 
L 205.834323 200.812479 
L 209.493281 197.878799 
L 213.152239 195.050731 
L 216.811197 192.281338 
L 220.470155 189.67623 
L 224.129113 187.423163 
L 227.788071 185.428261 
L 231.447028 181.544069 
L 235.105986 173.681806 
L 238.764944 168.624142 
L 242.423902 163.378722 
L 246.08286 157.487893 
L 249.741818 152.336351 
L 253.400775 147.489911 
L 257.059733 145.060824 
L 260.718691 142.631737 
L 264.377649 140.214385 
L 268.036607 137.785298 
L 271.695565 135.37968 
L 275.354522 132.997532 
L 279.01348 130.603649 
L 282.672438 128.221501 
L 286.331396 125.874557 
L 289.990354 123.574552 
L 293.649312 121.35669 
L 297.308269 119.197501 
L 300.967227 117.085252 
L 304.626185 114.937798 
L 308.285143 112.73167 
L 311.944101 110.502074 
L 315.603059 108.249007 
L 319.262016 106.019411 
L 322.920974 103.789814 
L 326.579932 101.466339 
L 330.23889 99.166334 
L 333.897848 96.971941 
L 337.556806 94.613263 
L 341.215764 92.477544 
L 344.874721 90.201008 
L 348.533679 88.088758 
L 352.192637 86.258142 
L 355.851595 84.216301 
L 359.510553 82.35048 
L 363.169511 80.613742 
L 366.828468 79.170371 
L 370.487426 78.536696 
L 374.146384 78.020368 
L 377.805342 77.011183 
L 381.4643 75.626486 
L 385.123258 74.417809 
L 388.782215 72.845357 
L 392.441173 71.648415 
L 396.100131 70.545352 
L 399.759089 68.902491 
L 403.418047 67.588202 
L 407.077005 66.790241 
L 410.735962 65.769321 
L 414.39492 64.185134 
L 418.053878 62.870845 
L 421.712836 62.025945 
L 425.371794 61.990741 
L 429.030752 60.465227 
L 432.689709 59.244816 
L 436.348667 58.247365 
L 440.007625 57.83665 
L 443.666583 57.965732 
L 447.325541 56.803995 
L 450.984499 55.876952 
L 454.643457 55.32542 
L 458.302414 55.618788 
L 461.961372 55.477971 
L 465.62033 54.891235 
L 469.279288 54.574398 
L 472.938246 54.797358 
L 476.597204 55.994299 
L 480.256161 55.560114 
L 483.915119 55.607053 
L 487.574077 56.240728 
L 491.233035 57.144302 
L 494.891993 58.611142 
L 498.550951 58.939714 
L 502.209908 59.796348 
L 505.868866 60.54737 
L 509.527824 61.662169 
L 513.186782 63.046866 
" clip-path="url(#pa2e4f12597)" style="fill: none; stroke: #0000ff; stroke-width: 1.5; stroke-linecap: square"/>
   </g>
   <g id="line2d_26">
    <path d="M 191.198492 210.124275 
L 193.859552 208.636579 
L 196.520613 206.995325 
L 199.181673 205.228035 
L 201.842733 203.371313 
L 204.503793 201.465505 
L 207.164854 199.546829 
L 209.825914 197.639456 
L 212.486974 195.748554 
L 215.148034 193.856355 
L 217.809095 191.921271 
L 220.470155 189.880304 
L 223.131215 187.653485 
L 225.792275 185.132553 
L 228.453336 182.467602 
L 231.114396 179.802689 
L 233.775456 176.42069 
L 236.436516 172.282186 
L 239.097577 167.934778 
L 241.758637 163.843973 
L 244.419697 159.926563 
L 247.080757 156.375885 
L 249.741818 153.417623 
L 252.402878 150.713769 
L 255.063938 148.886849 
L 257.724998 147.101617 
L 260.386059 145.265108 
L 263.047119 143.605076 
L 265.708179 141.999461 
L 268.369239 140.394314 
L 271.0303 138.938744 
L 273.69136 137.435296 
L 276.35242 135.882321 
L 279.01348 134.272964 
L 281.674541 132.612778 
L 284.335601 130.896581 
L 286.996661 129.124953 
L 289.657721 127.301202 
L 292.318781 125.450564 
L 294.979842 123.582161 
L 297.640902 121.756046 
L 300.301962 120.077654 
L 302.963022 118.392861 
L 305.624083 116.671901 
L 308.285143 114.933112 
L 310.946203 113.176983 
L 313.607263 111.403725 
L 316.268324 109.59069 
L 318.929384 107.7644 
L 321.590444 105.928514 
L 324.251504 104.084724 
L 326.912565 102.223098 
L 329.573625 100.493514 
L 332.234685 98.743897 
L 334.895745 96.969338 
L 337.556806 95.175838 
L 340.217866 93.377106 
L 342.878926 91.701952 
L 345.539986 90.075326 
L 348.201047 88.503927 
L 350.862107 87.00397 
L 353.523167 85.585036 
L 356.184227 84.2504 
L 358.845288 82.998801 
L 361.506348 81.827093 
L 364.167408 80.751796 
L 366.828468 79.751885 
L 369.489529 78.80958 
L 372.150589 77.931862 
L 374.811649 77.10968 
L 377.472709 76.328527 
L 380.13377 75.569854 
L 382.79483 74.813714 
L 385.45589 74.070415 
L 388.11695 73.30879 
L 390.778011 72.509466 
L 393.439071 71.668776 
L 396.100131 70.786484 
L 398.761191 69.853636 
L 401.422252 68.886599 
L 404.083312 67.892073 
L 406.744372 66.877418 
L 409.405432 65.854915 
L 412.066493 64.840568 
L 414.727553 63.829522 
L 417.388613 62.828828 
L 420.049673 61.859622 
L 422.710734 60.921794 
L 425.371794 60.057212 
L 428.032854 59.223768 
L 430.693914 58.435411 
L 433.354975 57.728511 
L 436.016035 57.079819 
L 438.677095 56.521271 
L 441.338155 56.044502 
L 443.999216 55.634768 
L 446.660276 55.26486 
L 449.321336 54.939885 
L 451.982396 54.655351 
L 454.643457 54.409818 
" clip-path="url(#pa2e4f12597)" style="fill: none; stroke: #ffa500; stroke-width: 1.5; stroke-linecap: square"/>
   </g>
   <g id="patch_3">
    <path d="M 56 318.04 
L 56 41.856 
" style="fill: none; stroke: #000000; stroke-width: 0.8; stroke-linejoin: miter; stroke-linecap: square"/>
   </g>
   <g id="patch_4">
    <path d="M 534.957581 318.04 
L 534.957581 41.856 
" style="fill: none; stroke: #000000; stroke-width: 0.8; stroke-linejoin: miter; stroke-linecap: square"/>
   </g>
   <g id="patch_5">
    <path d="M 56 318.04 
L 534.957581 318.04 
" style="fill: none; stroke: #000000; stroke-width: 0.8; stroke-linejoin: miter; stroke-linecap: square"/>
   </g>
   <g id="patch_6">
    <path d="M 56 41.856 
L 534.957581 41.856 
" style="fill: none; stroke: #000000; stroke-width: 0.8; stroke-linejoin: miter; stroke-linecap: square"/>
   </g>
   <g id="text_15">
    <!-- Re = 500000 Mach = 0.00  -->
    <g transform="translate(214.171291 22.418625) scale(0.12 -0.12)">
     <defs>
      <path id="DejaVuSans-52" d="M 2841 2188 
Q 3044 2119 3236 1894 
Q 3428 1669 3622 1275 
L 4263 0 
L 3584 0 
L 2988 1197 
Q 2756 1666 2539 1819 
Q 2322 1972 1947 1972 
L 1259 1972 
L 1259 0 
L 628 0 
L 628 4666 
L 2053 4666 
Q 2853 4666 3247 4331 
Q 3641 3997 3641 3322 
Q 3641 2881 3436 2590 
Q 3231 2300 2841 2188 
z
M 1259 4147 
L 1259 2491 
L 2053 2491 
Q 2509 2491 2742 2702 
Q 2975 2913 2975 3322 
Q 2975 3731 2742 3939 
Q 2509 4147 2053 4147 
L 1259 4147 
z
" transform="scale(0.015625)"/>
      <path id="DejaVuSans-65" d="M 3597 1894 
L 3597 1613 
L 953 1613 
Q 991 1019 1311 708 
Q 1631 397 2203 397 
Q 2534 397 2845 478 
Q 3156 559 3463 722 
L 3463 178 
Q 3153 47 2828 -22 
Q 2503 -91 2169 -91 
Q 1331 -91 842 396 
Q 353 884 353 1716 
Q 353 2575 817 3079 
Q 1281 3584 2069 3584 
Q 2775 3584 3186 3129 
Q 3597 2675 3597 1894 
z
M 3022 2063 
Q 3016 2534 2758 2815 
Q 2500 3097 2075 3097 
Q 1594 3097 1305 2825 
Q 1016 2553 972 2059 
L 3022 2063 
z
" transform="scale(0.015625)"/>
      <path id="DejaVuSans-20" transform="scale(0.015625)"/>
      <path id="DejaVuSans-3d" d="M 678 2906 
L 4684 2906 
L 4684 2381 
L 678 2381 
L 678 2906 
z
M 678 1631 
L 4684 1631 
L 4684 1100 
L 678 1100 
L 678 1631 
z
" transform="scale(0.015625)"/>
      <path id="DejaVuSans-4d" d="M 628 4666 
L 1569 4666 
L 2759 1491 
L 3956 4666 
L 4897 4666 
L 4897 0 
L 4281 0 
L 4281 4097 
L 3078 897 
L 2444 897 
L 1241 4097 
L 1241 0 
L 628 0 
L 628 4666 
z
" transform="scale(0.015625)"/>
      <path id="DejaVuSans-63" d="M 3122 3366 
L 3122 2828 
Q 2878 2963 2633 3030 
Q 2388 3097 2138 3097 
Q 1578 3097 1268 2742 
Q 959 2388 959 1747 
Q 959 1106 1268 751 
Q 1578 397 2138 397 
Q 2388 397 2633 464 
Q 2878 531 3122 666 
L 3122 134 
Q 2881 22 2623 -34 
Q 2366 -91 2075 -91 
Q 1284 -91 818 406 
Q 353 903 353 1747 
Q 353 2603 823 3093 
Q 1294 3584 2113 3584 
Q 2378 3584 2631 3529 
Q 2884 3475 3122 3366 
z
" transform="scale(0.015625)"/>
     </defs>
     <use xlink:href="#DejaVuSans-52"/>
     <use xlink:href="#DejaVuSans-65" x="64.982422"/>
     <use xlink:href="#DejaVuSans-20" x="126.505859"/>
     <use xlink:href="#DejaVuSans-3d" x="158.292969"/>
     <use xlink:href="#DejaVuSans-20" x="242.082031"/>
     <use xlink:href="#DejaVuSans-35" x="273.869141"/>
     <use xlink:href="#DejaVuSans-30" x="337.492188"/>
     <use xlink:href="#DejaVuSans-30" x="401.115234"/>
     <use xlink:href="#DejaVuSans-30" x="464.738281"/>
     <use xlink:href="#DejaVuSans-30" x="528.361328"/>
     <use xlink:href="#DejaVuSans-30" x="591.984375"/>
     <use xlink:href="#DejaVuSans-20" x="655.607422"/>
     <use xlink:href="#DejaVuSans-4d" x="687.394531"/>
     <use xlink:href="#DejaVuSans-61" x="773.673828"/>
     <use xlink:href="#DejaVuSans-63" x="834.953125"/>
     <use xlink:href="#DejaVuSans-68" x="889.933594"/>
     <use xlink:href="#DejaVuSans-20" x="953.3125"/>
     <use xlink:href="#DejaVuSans-3d" x="985.099609"/>
     <use xlink:href="#DejaVuSans-20" x="1068.888672"/>
     <use xlink:href="#DejaVuSans-30" x="1100.675781"/>
     <use xlink:href="#DejaVuSans-2e" x="1164.298828"/>
     <use xlink:href="#DejaVuSans-30" x="1196.085938"/>
     <use xlink:href="#DejaVuSans-30" x="1259.708984"/>
     <use xlink:href="#DejaVuSans-20" x="1323.332031"/>
    </g>
    <!--  Cl vs Alpha -->
    <g transform="translate(260.165041 35.856) scale(0.12 -0.12)">
     <defs>
      <path id="DejaVuSans-76" d="M 191 3500 
L 800 3500 
L 1894 563 
L 2988 3500 
L 3597 3500 
L 2284 0 
L 1503 0 
L 191 3500 
z
" transform="scale(0.015625)"/>
      <path id="DejaVuSans-73" d="M 2834 3397 
L 2834 2853 
Q 2591 2978 2328 3040 
Q 2066 3103 1784 3103 
Q 1356 3103 1142 2972 
Q 928 2841 928 2578 
Q 928 2378 1081 2264 
Q 1234 2150 1697 2047 
L 1894 2003 
Q 2506 1872 2764 1633 
Q 3022 1394 3022 966 
Q 3022 478 2636 193 
Q 2250 -91 1575 -91 
Q 1294 -91 989 -36 
Q 684 19 347 128 
L 347 722 
Q 666 556 975 473 
Q 1284 391 1588 391 
Q 1994 391 2212 530 
Q 2431 669 2431 922 
Q 2431 1156 2273 1281 
Q 2116 1406 1581 1522 
L 1381 1569 
Q 847 1681 609 1914 
Q 372 2147 372 2553 
Q 372 3047 722 3315 
Q 1072 3584 1716 3584 
Q 2034 3584 2315 3537 
Q 2597 3491 2834 3397 
z
" transform="scale(0.015625)"/>
     </defs>
     <use xlink:href="#DejaVuSans-20"/>
     <use xlink:href="#DejaVuSans-43" x="31.787109"/>
     <use xlink:href="#DejaVuSans-6c" x="101.611328"/>
     <use xlink:href="#DejaVuSans-20" x="129.394531"/>
     <use xlink:href="#DejaVuSans-76" x="161.181641"/>
     <use xlink:href="#DejaVuSans-73" x="220.361328"/>
     <use xlink:href="#DejaVuSans-20" x="272.460938"/>
     <use xlink:href="#DejaVuSans-41" x="304.248047"/>
     <use xlink:href="#DejaVuSans-6c" x="372.65625"/>
     <use xlink:href="#DejaVuSans-70" x="400.439453"/>
     <use xlink:href="#DejaVuSans-68" x="463.916016"/>
     <use xlink:href="#DejaVuSans-61" x="527.294922"/>
    </g>
   </g>
   <g id="legend_1">
    <g id="patch_7">
     <path d="M 63 79.21225 
L 164.384375 79.21225 
Q 166.384375 79.21225 166.384375 77.21225 
L 166.384375 48.856 
Q 166.384375 46.856 164.384375 46.856 
L 63 46.856 
Q 61 46.856 61 48.856 
L 61 77.21225 
Q 61 79.21225 63 79.21225 
z
" style="fill: #ffffff; opacity: 0.8; stroke: #cccccc; stroke-linejoin: miter"/>
    </g>
    <g id="line2d_27">
     <path d="M 65 54.954438 
L 75 54.954438 
L 85 54.954438 
" style="fill: none; stroke: #0000ff; stroke-width: 1.5; stroke-linecap: square"/>
    </g>
    <g id="text_16">
     <!-- benchmark Cl -->
     <g transform="translate(93 58.454438) scale(0.1 -0.1)">
      <defs>
       <path id="DejaVuSans-62" d="M 3116 1747 
Q 3116 2381 2855 2742 
Q 2594 3103 2138 3103 
Q 1681 3103 1420 2742 
Q 1159 2381 1159 1747 
Q 1159 1113 1420 752 
Q 1681 391 2138 391 
Q 2594 391 2855 752 
Q 3116 1113 3116 1747 
z
M 1159 2969 
Q 1341 3281 1617 3432 
Q 1894 3584 2278 3584 
Q 2916 3584 3314 3078 
Q 3713 2572 3713 1747 
Q 3713 922 3314 415 
Q 2916 -91 2278 -91 
Q 1894 -91 1617 61 
Q 1341 213 1159 525 
L 1159 0 
L 581 0 
L 581 4863 
L 1159 4863 
L 1159 2969 
z
" transform="scale(0.015625)"/>
       <path id="DejaVuSans-6e" d="M 3513 2113 
L 3513 0 
L 2938 0 
L 2938 2094 
Q 2938 2591 2744 2837 
Q 2550 3084 2163 3084 
Q 1697 3084 1428 2787 
Q 1159 2491 1159 1978 
L 1159 0 
L 581 0 
L 581 3500 
L 1159 3500 
L 1159 2956 
Q 1366 3272 1645 3428 
Q 1925 3584 2291 3584 
Q 2894 3584 3203 3211 
Q 3513 2838 3513 2113 
z
" transform="scale(0.015625)"/>
       <path id="DejaVuSans-6d" d="M 3328 2828 
Q 3544 3216 3844 3400 
Q 4144 3584 4550 3584 
Q 5097 3584 5394 3201 
Q 5691 2819 5691 2113 
L 5691 0 
L 5113 0 
L 5113 2094 
Q 5113 2597 4934 2840 
Q 4756 3084 4391 3084 
Q 3944 3084 3684 2787 
Q 3425 2491 3425 1978 
L 3425 0 
L 2847 0 
L 2847 2094 
Q 2847 2600 2669 2842 
Q 2491 3084 2119 3084 
Q 1678 3084 1418 2786 
Q 1159 2488 1159 1978 
L 1159 0 
L 581 0 
L 581 3500 
L 1159 3500 
L 1159 2956 
Q 1356 3278 1631 3431 
Q 1906 3584 2284 3584 
Q 2666 3584 2933 3390 
Q 3200 3197 3328 2828 
z
" transform="scale(0.015625)"/>
       <path id="DejaVuSans-72" d="M 2631 2963 
Q 2534 3019 2420 3045 
Q 2306 3072 2169 3072 
Q 1681 3072 1420 2755 
Q 1159 2438 1159 1844 
L 1159 0 
L 581 0 
L 581 3500 
L 1159 3500 
L 1159 2956 
Q 1341 3275 1631 3429 
Q 1922 3584 2338 3584 
Q 2397 3584 2469 3576 
Q 2541 3569 2628 3553 
L 2631 2963 
z
" transform="scale(0.015625)"/>
       <path id="DejaVuSans-6b" d="M 581 4863 
L 1159 4863 
L 1159 1991 
L 2875 3500 
L 3609 3500 
L 1753 1863 
L 3688 0 
L 2938 0 
L 1159 1709 
L 1159 0 
L 581 0 
L 581 4863 
z
" transform="scale(0.015625)"/>
      </defs>
      <use xlink:href="#DejaVuSans-62"/>
      <use xlink:href="#DejaVuSans-65" x="63.476562"/>
      <use xlink:href="#DejaVuSans-6e" x="125"/>
      <use xlink:href="#DejaVuSans-63" x="188.378906"/>
      <use xlink:href="#DejaVuSans-68" x="243.359375"/>
      <use xlink:href="#DejaVuSans-6d" x="306.738281"/>
      <use xlink:href="#DejaVuSans-61" x="404.150391"/>
      <use xlink:href="#DejaVuSans-72" x="465.429688"/>
      <use xlink:href="#DejaVuSans-6b" x="506.542969"/>
      <use xlink:href="#DejaVuSans-20" x="564.453125"/>
      <use xlink:href="#DejaVuSans-43" x="596.240234"/>
      <use xlink:href="#DejaVuSans-6c" x="666.064453"/>
     </g>
    </g>
    <g id="line2d_28">
     <path d="M 65 69.632563 
L 75 69.632563 
L 85 69.632563 
" style="fill: none; stroke: #ffa500; stroke-width: 1.5; stroke-linecap: square"/>
    </g>
    <g id="text_17">
     <!-- Predicted Cl -->
     <g transform="translate(93 73.132563) scale(0.1 -0.1)">
      <defs>
       <path id="DejaVuSans-50" d="M 1259 4147 
L 1259 2394 
L 2053 2394 
Q 2494 2394 2734 2622 
Q 2975 2850 2975 3272 
Q 2975 3691 2734 3919 
Q 2494 4147 2053 4147 
L 1259 4147 
z
M 628 4666 
L 2053 4666 
Q 2838 4666 3239 4311 
Q 3641 3956 3641 3272 
Q 3641 2581 3239 2228 
Q 2838 1875 2053 1875 
L 1259 1875 
L 1259 0 
L 628 0 
L 628 4666 
z
" transform="scale(0.015625)"/>
       <path id="DejaVuSans-64" d="M 2906 2969 
L 2906 4863 
L 3481 4863 
L 3481 0 
L 2906 0 
L 2906 525 
Q 2725 213 2448 61 
Q 2172 -91 1784 -91 
Q 1150 -91 751 415 
Q 353 922 353 1747 
Q 353 2572 751 3078 
Q 1150 3584 1784 3584 
Q 2172 3584 2448 3432 
Q 2725 3281 2906 2969 
z
M 947 1747 
Q 947 1113 1208 752 
Q 1469 391 1925 391 
Q 2381 391 2643 752 
Q 2906 1113 2906 1747 
Q 2906 2381 2643 2742 
Q 2381 3103 1925 3103 
Q 1469 3103 1208 2742 
Q 947 2381 947 1747 
z
" transform="scale(0.015625)"/>
       <path id="DejaVuSans-69" d="M 603 3500 
L 1178 3500 
L 1178 0 
L 603 0 
L 603 3500 
z
M 603 4863 
L 1178 4863 
L 1178 4134 
L 603 4134 
L 603 4863 
z
" transform="scale(0.015625)"/>
       <path id="DejaVuSans-74" d="M 1172 4494 
L 1172 3500 
L 2356 3500 
L 2356 3053 
L 1172 3053 
L 1172 1153 
Q 1172 725 1289 603 
Q 1406 481 1766 481 
L 2356 481 
L 2356 0 
L 1766 0 
Q 1100 0 847 248 
Q 594 497 594 1153 
L 594 3053 
L 172 3053 
L 172 3500 
L 594 3500 
L 594 4494 
L 1172 4494 
z
" transform="scale(0.015625)"/>
      </defs>
      <use xlink:href="#DejaVuSans-50"/>
      <use xlink:href="#DejaVuSans-72" x="58.552734"/>
      <use xlink:href="#DejaVuSans-65" x="97.416016"/>
      <use xlink:href="#DejaVuSans-64" x="158.939453"/>
      <use xlink:href="#DejaVuSans-69" x="222.416016"/>
      <use xlink:href="#DejaVuSans-63" x="250.199219"/>
      <use xlink:href="#DejaVuSans-74" x="305.179688"/>
      <use xlink:href="#DejaVuSans-65" x="344.388672"/>
      <use xlink:href="#DejaVuSans-64" x="405.912109"/>
      <use xlink:href="#DejaVuSans-20" x="469.388672"/>
      <use xlink:href="#DejaVuSans-43" x="501.175781"/>
      <use xlink:href="#DejaVuSans-6c" x="571"/>
     </g>
    </g>
   </g>
  </g>
  <g id="axes_2">
   <g id="patch_8">
    <path d="M 589.61 318.04 
L 1068.567581 318.04 
L 1068.567581 41.856 
L 589.61 41.856 
z
" style="fill: #ffffff"/>
   </g>
   <g id="matplotlib.axis_3">
    <g id="xtick_8">
     <g id="line2d_29">
      <path d="M 622.357673 318.04 
L 622.357673 41.856 
" clip-path="url(#pbea1ca1048)" style="fill: none; stroke: #b0b0b0; stroke-width: 0.8; stroke-linecap: square"/>
     </g>
     <g id="line2d_30">
      <g>
       <use xlink:href="#m749ff5e70c" x="622.357673" y="318.04" style="stroke: #000000; stroke-width: 0.8"/>
      </g>
     </g>
     <g id="text_18">
      <!-- −10 -->
      <g transform="translate(611.805329 332.638438) scale(0.1 -0.1)">
       <use xlink:href="#DejaVuSans-2212"/>
       <use xlink:href="#DejaVuSans-31" x="83.789062"/>
       <use xlink:href="#DejaVuSans-30" x="147.412109"/>
      </g>
     </g>
    </g>
    <g id="xtick_9">
     <g id="line2d_31">
      <path d="M 695.536829 318.04 
L 695.536829 41.856 
" clip-path="url(#pbea1ca1048)" style="fill: none; stroke: #b0b0b0; stroke-width: 0.8; stroke-linecap: square"/>
     </g>
     <g id="line2d_32">
      <g>
       <use xlink:href="#m749ff5e70c" x="695.536829" y="318.04" style="stroke: #000000; stroke-width: 0.8"/>
      </g>
     </g>
     <g id="text_19">
      <!-- −5 -->
      <g transform="translate(688.165736 332.638438) scale(0.1 -0.1)">
       <use xlink:href="#DejaVuSans-2212"/>
       <use xlink:href="#DejaVuSans-35" x="83.789062"/>
      </g>
     </g>
    </g>
    <g id="xtick_10">
     <g id="line2d_33">
      <path d="M 768.715986 318.04 
L 768.715986 41.856 
" clip-path="url(#pbea1ca1048)" style="fill: none; stroke: #b0b0b0; stroke-width: 0.8; stroke-linecap: square"/>
     </g>
     <g id="line2d_34">
      <g>
       <use xlink:href="#m749ff5e70c" x="768.715986" y="318.04" style="stroke: #000000; stroke-width: 0.8"/>
      </g>
     </g>
     <g id="text_20">
      <!-- 0 -->
      <g transform="translate(765.534736 332.638438) scale(0.1 -0.1)">
       <use xlink:href="#DejaVuSans-30"/>
      </g>
     </g>
    </g>
    <g id="xtick_11">
     <g id="line2d_35">
      <path d="M 841.895143 318.04 
L 841.895143 41.856 
" clip-path="url(#pbea1ca1048)" style="fill: none; stroke: #b0b0b0; stroke-width: 0.8; stroke-linecap: square"/>
     </g>
     <g id="line2d_36">
      <g>
       <use xlink:href="#m749ff5e70c" x="841.895143" y="318.04" style="stroke: #000000; stroke-width: 0.8"/>
      </g>
     </g>
     <g id="text_21">
      <!-- 5 -->
      <g transform="translate(838.713893 332.638438) scale(0.1 -0.1)">
       <use xlink:href="#DejaVuSans-35"/>
      </g>
     </g>
    </g>
    <g id="xtick_12">
     <g id="line2d_37">
      <path d="M 915.0743 318.04 
L 915.0743 41.856 
" clip-path="url(#pbea1ca1048)" style="fill: none; stroke: #b0b0b0; stroke-width: 0.8; stroke-linecap: square"/>
     </g>
     <g id="line2d_38">
      <g>
       <use xlink:href="#m749ff5e70c" x="915.0743" y="318.04" style="stroke: #000000; stroke-width: 0.8"/>
      </g>
     </g>
     <g id="text_22">
      <!-- 10 -->
      <g transform="translate(908.7118 332.638438) scale(0.1 -0.1)">
       <use xlink:href="#DejaVuSans-31"/>
       <use xlink:href="#DejaVuSans-30" x="63.623047"/>
      </g>
     </g>
    </g>
    <g id="xtick_13">
     <g id="line2d_39">
      <path d="M 988.253457 318.04 
L 988.253457 41.856 
" clip-path="url(#pbea1ca1048)" style="fill: none; stroke: #b0b0b0; stroke-width: 0.8; stroke-linecap: square"/>
     </g>
     <g id="line2d_40">
      <g>
       <use xlink:href="#m749ff5e70c" x="988.253457" y="318.04" style="stroke: #000000; stroke-width: 0.8"/>
      </g>
     </g>
     <g id="text_23">
      <!-- 15 -->
      <g transform="translate(981.890957 332.638438) scale(0.1 -0.1)">
       <use xlink:href="#DejaVuSans-31"/>
       <use xlink:href="#DejaVuSans-35" x="63.623047"/>
      </g>
     </g>
    </g>
    <g id="xtick_14">
     <g id="line2d_41">
      <path d="M 1061.432613 318.04 
L 1061.432613 41.856 
" clip-path="url(#pbea1ca1048)" style="fill: none; stroke: #b0b0b0; stroke-width: 0.8; stroke-linecap: square"/>
     </g>
     <g id="line2d_42">
      <g>
       <use xlink:href="#m749ff5e70c" x="1061.432613" y="318.04" style="stroke: #000000; stroke-width: 0.8"/>
      </g>
     </g>
     <g id="text_24">
      <!-- 20 -->
      <g transform="translate(1055.070113 332.638438) scale(0.1 -0.1)">
       <use xlink:href="#DejaVuSans-32"/>
       <use xlink:href="#DejaVuSans-30" x="63.623047"/>
      </g>
     </g>
    </g>
    <g id="text_25">
     <!-- Alpha -->
     <g transform="translate(814.872384 346.316563) scale(0.1 -0.1)">
      <use xlink:href="#DejaVuSans-41"/>
      <use xlink:href="#DejaVuSans-6c" x="68.408203"/>
      <use xlink:href="#DejaVuSans-70" x="96.191406"/>
      <use xlink:href="#DejaVuSans-68" x="159.667969"/>
      <use xlink:href="#DejaVuSans-61" x="223.046875"/>
     </g>
    </g>
   </g>
   <g id="matplotlib.axis_4">
    <g id="ytick_6">
     <g id="line2d_43">
      <path d="M 589.61 317.613714 
L 1068.567581 317.613714 
" clip-path="url(#pbea1ca1048)" style="fill: none; stroke: #b0b0b0; stroke-width: 0.8; stroke-linecap: square"/>
     </g>
     <g id="line2d_44">
      <g>
       <use xlink:href="#m2698fb6cbb" x="589.61" y="317.613714" style="stroke: #000000; stroke-width: 0.8"/>
      </g>
     </g>
     <g id="text_26">
      <!-- 0.00 -->
      <g transform="translate(560.344375 321.412933) scale(0.1 -0.1)">
       <use xlink:href="#DejaVuSans-30"/>
       <use xlink:href="#DejaVuSans-2e" x="63.623047"/>
       <use xlink:href="#DejaVuSans-30" x="95.410156"/>
       <use xlink:href="#DejaVuSans-30" x="159.033203"/>
      </g>
     </g>
    </g>
    <g id="ytick_7">
     <g id="line2d_45">
      <path d="M 589.61 267.797514 
L 1068.567581 267.797514 
" clip-path="url(#pbea1ca1048)" style="fill: none; stroke: #b0b0b0; stroke-width: 0.8; stroke-linecap: square"/>
     </g>
     <g id="line2d_46">
      <g>
       <use xlink:href="#m2698fb6cbb" x="589.61" y="267.797514" style="stroke: #000000; stroke-width: 0.8"/>
      </g>
     </g>
     <g id="text_27">
      <!-- 0.02 -->
      <g transform="translate(560.344375 271.596733) scale(0.1 -0.1)">
       <use xlink:href="#DejaVuSans-30"/>
       <use xlink:href="#DejaVuSans-2e" x="63.623047"/>
       <use xlink:href="#DejaVuSans-30" x="95.410156"/>
       <use xlink:href="#DejaVuSans-32" x="159.033203"/>
      </g>
     </g>
    </g>
    <g id="ytick_8">
     <g id="line2d_47">
      <path d="M 589.61 217.981313 
L 1068.567581 217.981313 
" clip-path="url(#pbea1ca1048)" style="fill: none; stroke: #b0b0b0; stroke-width: 0.8; stroke-linecap: square"/>
     </g>
     <g id="line2d_48">
      <g>
       <use xlink:href="#m2698fb6cbb" x="589.61" y="217.981313" style="stroke: #000000; stroke-width: 0.8"/>
      </g>
     </g>
     <g id="text_28">
      <!-- 0.04 -->
      <g transform="translate(560.344375 221.780532) scale(0.1 -0.1)">
       <defs>
        <path id="DejaVuSans-34" d="M 2419 4116 
L 825 1625 
L 2419 1625 
L 2419 4116 
z
M 2253 4666 
L 3047 4666 
L 3047 1625 
L 3713 1625 
L 3713 1100 
L 3047 1100 
L 3047 0 
L 2419 0 
L 2419 1100 
L 313 1100 
L 313 1709 
L 2253 4666 
z
" transform="scale(0.015625)"/>
       </defs>
       <use xlink:href="#DejaVuSans-30"/>
       <use xlink:href="#DejaVuSans-2e" x="63.623047"/>
       <use xlink:href="#DejaVuSans-30" x="95.410156"/>
       <use xlink:href="#DejaVuSans-34" x="159.033203"/>
      </g>
     </g>
    </g>
    <g id="ytick_9">
     <g id="line2d_49">
      <path d="M 589.61 168.165112 
L 1068.567581 168.165112 
" clip-path="url(#pbea1ca1048)" style="fill: none; stroke: #b0b0b0; stroke-width: 0.8; stroke-linecap: square"/>
     </g>
     <g id="line2d_50">
      <g>
       <use xlink:href="#m2698fb6cbb" x="589.61" y="168.165112" style="stroke: #000000; stroke-width: 0.8"/>
      </g>
     </g>
     <g id="text_29">
      <!-- 0.06 -->
      <g transform="translate(560.344375 171.964331) scale(0.1 -0.1)">
       <defs>
        <path id="DejaVuSans-36" d="M 2113 2584 
Q 1688 2584 1439 2293 
Q 1191 2003 1191 1497 
Q 1191 994 1439 701 
Q 1688 409 2113 409 
Q 2538 409 2786 701 
Q 3034 994 3034 1497 
Q 3034 2003 2786 2293 
Q 2538 2584 2113 2584 
z
M 3366 4563 
L 3366 3988 
Q 3128 4100 2886 4159 
Q 2644 4219 2406 4219 
Q 1781 4219 1451 3797 
Q 1122 3375 1075 2522 
Q 1259 2794 1537 2939 
Q 1816 3084 2150 3084 
Q 2853 3084 3261 2657 
Q 3669 2231 3669 1497 
Q 3669 778 3244 343 
Q 2819 -91 2113 -91 
Q 1303 -91 875 529 
Q 447 1150 447 2328 
Q 447 3434 972 4092 
Q 1497 4750 2381 4750 
Q 2619 4750 2861 4703 
Q 3103 4656 3366 4563 
z
" transform="scale(0.015625)"/>
       </defs>
       <use xlink:href="#DejaVuSans-30"/>
       <use xlink:href="#DejaVuSans-2e" x="63.623047"/>
       <use xlink:href="#DejaVuSans-30" x="95.410156"/>
       <use xlink:href="#DejaVuSans-36" x="159.033203"/>
      </g>
     </g>
    </g>
    <g id="ytick_10">
     <g id="line2d_51">
      <path d="M 589.61 118.348912 
L 1068.567581 118.348912 
" clip-path="url(#pbea1ca1048)" style="fill: none; stroke: #b0b0b0; stroke-width: 0.8; stroke-linecap: square"/>
     </g>
     <g id="line2d_52">
      <g>
       <use xlink:href="#m2698fb6cbb" x="589.61" y="118.348912" style="stroke: #000000; stroke-width: 0.8"/>
      </g>
     </g>
     <g id="text_30">
      <!-- 0.08 -->
      <g transform="translate(560.344375 122.148131) scale(0.1 -0.1)">
       <defs>
        <path id="DejaVuSans-38" d="M 2034 2216 
Q 1584 2216 1326 1975 
Q 1069 1734 1069 1313 
Q 1069 891 1326 650 
Q 1584 409 2034 409 
Q 2484 409 2743 651 
Q 3003 894 3003 1313 
Q 3003 1734 2745 1975 
Q 2488 2216 2034 2216 
z
M 1403 2484 
Q 997 2584 770 2862 
Q 544 3141 544 3541 
Q 544 4100 942 4425 
Q 1341 4750 2034 4750 
Q 2731 4750 3128 4425 
Q 3525 4100 3525 3541 
Q 3525 3141 3298 2862 
Q 3072 2584 2669 2484 
Q 3125 2378 3379 2068 
Q 3634 1759 3634 1313 
Q 3634 634 3220 271 
Q 2806 -91 2034 -91 
Q 1263 -91 848 271 
Q 434 634 434 1313 
Q 434 1759 690 2068 
Q 947 2378 1403 2484 
z
M 1172 3481 
Q 1172 3119 1398 2916 
Q 1625 2713 2034 2713 
Q 2441 2713 2670 2916 
Q 2900 3119 2900 3481 
Q 2900 3844 2670 4047 
Q 2441 4250 2034 4250 
Q 1625 4250 1398 4047 
Q 1172 3844 1172 3481 
z
" transform="scale(0.015625)"/>
       </defs>
       <use xlink:href="#DejaVuSans-30"/>
       <use xlink:href="#DejaVuSans-2e" x="63.623047"/>
       <use xlink:href="#DejaVuSans-30" x="95.410156"/>
       <use xlink:href="#DejaVuSans-38" x="159.033203"/>
      </g>
     </g>
    </g>
    <g id="ytick_11">
     <g id="line2d_53">
      <path d="M 589.61 68.532711 
L 1068.567581 68.532711 
" clip-path="url(#pbea1ca1048)" style="fill: none; stroke: #b0b0b0; stroke-width: 0.8; stroke-linecap: square"/>
     </g>
     <g id="line2d_54">
      <g>
       <use xlink:href="#m2698fb6cbb" x="589.61" y="68.532711" style="stroke: #000000; stroke-width: 0.8"/>
      </g>
     </g>
     <g id="text_31">
      <!-- 0.10 -->
      <g transform="translate(560.344375 72.33193) scale(0.1 -0.1)">
       <use xlink:href="#DejaVuSans-30"/>
       <use xlink:href="#DejaVuSans-2e" x="63.623047"/>
       <use xlink:href="#DejaVuSans-31" x="95.410156"/>
       <use xlink:href="#DejaVuSans-30" x="159.033203"/>
      </g>
     </g>
    </g>
    <g id="text_32">
     <!-- Cd -->
     <g transform="translate(554.264688 186.613625) rotate(-90) scale(0.1 -0.1)">
      <use xlink:href="#DejaVuSans-43"/>
      <use xlink:href="#DejaVuSans-64" x="69.824219"/>
     </g>
    </g>
   </g>
   <g id="line2d_55">
    <path d="M 611.380799 54.409818 
L 615.039757 203.833512 
L 618.698715 231.606044 
L 622.357673 241.967814 
L 626.01663 251.009454 
L 629.675588 255.91635 
L 633.334546 258.780781 
L 636.993504 261.993926 
L 640.652462 264.484736 
L 644.31142 267.075179 
L 647.970378 271.010659 
L 651.629335 273.078031 
L 655.288293 275.070679 
L 658.947251 276.714614 
L 662.606209 278.483089 
L 666.265167 280.924083 
L 669.924125 282.119671 
L 673.583082 283.041271 
L 677.24204 285.133552 
L 680.900998 286.055151 
L 684.559956 286.902027 
L 688.218914 288.17234 
L 691.877872 288.720318 
L 695.536829 289.915907 
L 699.195787 290.364253 
L 702.854745 291.260944 
L 706.513703 291.684382 
L 710.172661 292.431625 
L 713.831619 292.830155 
L 717.490576 293.477765 
L 721.149534 293.801571 
L 724.808492 294.399365 
L 728.46745 294.922435 
L 732.126408 295.470413 
L 735.785366 296.068208 
L 739.444323 296.641094 
L 743.103281 297.114348 
L 746.762239 297.61251 
L 750.421197 298.185396 
L 754.080155 298.957547 
L 757.739113 299.928963 
L 761.398071 300.975103 
L 765.057028 301.597806 
L 768.715986 301.348725 
L 772.374944 300.975103 
L 776.033902 300.576574 
L 779.69286 300.252769 
L 783.351818 300.003688 
L 787.010775 299.879147 
L 790.669733 299.70479 
L 794.328691 299.505526 
L 797.987649 299.256445 
L 801.646607 299.007364 
L 805.305565 298.708466 
L 808.964522 298.384661 
L 812.62348 298.01104 
L 816.282438 297.61251 
L 819.941396 297.189072 
L 823.600354 296.69091 
L 827.259312 296.118024 
L 830.918269 295.470413 
L 834.577227 294.772986 
L 838.236185 294.050652 
L 841.895143 293.378133 
L 845.554101 292.705614 
L 849.213059 292.033095 
L 852.872016 291.335669 
L 856.530974 290.638242 
L 860.189932 290.040447 
L 863.84889 289.392837 
L 867.507848 288.670502 
L 871.166806 288.122524 
L 874.825764 287.375281 
L 878.484721 286.777486 
L 882.143679 286.080059 
L 885.802637 285.307908 
L 889.461595 284.685206 
L 893.120553 283.863239 
L 896.779511 282.866915 
L 900.438468 281.521877 
L 904.097426 279.205424 
L 907.756384 276.614981 
L 911.415342 274.447977 
L 915.0743 272.70441 
L 918.733258 270.686853 
L 922.392215 269.067827 
L 926.051173 266.92573 
L 929.710131 264.609277 
L 933.369089 262.915526 
L 937.028047 260.723613 
L 940.687005 257.734641 
L 944.345962 254.969842 
L 948.00492 252.952286 
L 951.663878 250.436568 
L 955.322836 247.123791 
L 958.981794 242.41616 
L 962.640752 239.950258 
L 966.299709 236.936377 
L 969.958667 233.449243 
L 973.617625 228.791429 
L 977.276583 222.913117 
L 980.935541 219.351259 
L 984.594499 215.216514 
L 988.253457 210.234894 
L 991.912414 203.21081 
L 995.571372 196.90906 
L 999.23033 191.454186 
L 1002.889288 185.227161 
L 1006.548246 177.480742 
L 1010.207204 167.069156 
L 1013.866161 160.642866 
L 1017.525119 152.796815 
L 1021.184077 143.15738 
L 1024.843035 132.496713 
L 1028.501993 120.192111 
L 1032.160951 110.90139 
L 1035.819908 99.941826 
L 1039.478866 89.106802 
L 1043.137824 77.076189 
L 1046.796782 63.924713 
" clip-path="url(#pbea1ca1048)" style="fill: none; stroke: #0000ff; stroke-width: 1.5; stroke-linecap: square"/>
   </g>
   <g id="line2d_56">
    <path d="M 724.808492 299.673046 
L 727.469552 300.302003 
L 730.130613 300.84994 
L 732.791673 301.305168 
L 735.452733 301.671208 
L 738.113793 301.96528 
L 740.774854 302.212245 
L 743.435914 302.437644 
L 746.096974 302.663451 
L 748.758034 302.906481 
L 751.419095 303.17971 
L 754.080155 303.491041 
L 756.741215 303.839795 
L 759.402275 304.213314 
L 762.063336 304.56219 
L 764.724396 304.872302 
L 767.385456 305.22163 
L 770.046516 305.486182 
L 772.707577 305.385175 
L 775.368637 304.805289 
L 778.029697 303.82862 
L 780.690757 302.646733 
L 783.351818 301.470946 
L 786.012878 300.281339 
L 788.673938 299.495326 
L 791.334998 298.731224 
L 793.996059 297.962344 
L 796.657119 297.346031 
L 799.318179 296.816602 
L 801.979239 296.344081 
L 804.6403 295.999255 
L 807.30136 295.687107 
L 809.96242 295.41054 
L 812.62348 295.173279 
L 815.284541 294.977703 
L 817.945601 294.823266 
L 820.606661 294.707506 
L 823.267721 294.628505 
L 825.928781 294.584035 
L 828.589842 294.564695 
L 831.250902 294.567263 
L 833.911962 294.588447 
L 836.573022 294.602011 
L 839.234083 294.597953 
L 841.895143 294.559434 
L 844.556203 294.470377 
L 847.217263 294.315192 
L 849.878324 294.077101 
L 852.539384 293.750649 
L 855.200444 293.334856 
L 857.861504 292.836441 
L 860.522565 292.266083 
L 863.183625 291.706219 
L 865.844685 291.114753 
L 868.505745 290.501808 
L 871.166806 289.876135 
L 873.827866 289.244753 
L 876.488926 288.657757 
L 879.149986 288.080121 
L 881.811047 287.510118 
L 884.472107 286.951137 
L 887.133167 286.404832 
L 889.794227 285.869024 
L 892.455288 285.335899 
L 895.116348 284.789021 
L 897.777408 284.21638 
L 900.438468 283.572949 
L 903.099529 282.809509 
L 905.760589 281.902244 
L 908.421649 280.82654 
L 911.082709 279.573632 
L 913.74377 278.151708 
L 916.40483 276.582483 
L 919.06589 274.992616 
L 921.72695 273.360441 
L 924.388011 271.670918 
L 927.049071 269.942725 
L 929.710131 268.189678 
L 932.371191 266.391233 
L 935.032252 264.58299 
L 937.693312 262.767894 
L 940.354372 260.946164 
L 943.015432 259.120596 
L 945.676493 257.294987 
L 948.337553 255.454221 
L 950.998613 253.593723 
L 953.659673 251.721376 
L 956.320734 249.826337 
L 958.981794 247.940939 
L 961.642854 245.991075 
L 964.303914 243.965013 
L 966.964975 241.925008 
L 969.626035 239.844046 
L 972.287095 237.767102 
L 974.948155 235.689907 
L 977.609216 233.608147 
L 980.270276 231.544935 
L 982.931336 229.488748 
L 985.592396 227.42652 
L 988.253457 225.41027 
" clip-path="url(#pbea1ca1048)" style="fill: none; stroke: #ffa500; stroke-width: 1.5; stroke-linecap: square"/>
   </g>
   <g id="patch_9">
    <path d="M 589.61 318.04 
L 589.61 41.856 
" style="fill: none; stroke: #000000; stroke-width: 0.8; stroke-linejoin: miter; stroke-linecap: square"/>
   </g>
   <g id="patch_10">
    <path d="M 1068.567581 318.04 
L 1068.567581 41.856 
" style="fill: none; stroke: #000000; stroke-width: 0.8; stroke-linejoin: miter; stroke-linecap: square"/>
   </g>
   <g id="patch_11">
    <path d="M 589.61 318.04 
L 1068.567581 318.04 
" style="fill: none; stroke: #000000; stroke-width: 0.8; stroke-linejoin: miter; stroke-linecap: square"/>
   </g>
   <g id="patch_12">
    <path d="M 589.61 41.856 
L 1068.567581 41.856 
" style="fill: none; stroke: #000000; stroke-width: 0.8; stroke-linejoin: miter; stroke-linecap: square"/>
   </g>
   <g id="text_33">
    <!-- Re = 500000 Mach = 0.00  -->
    <g transform="translate(747.781291 22.418625) scale(0.12 -0.12)">
     <use xlink:href="#DejaVuSans-52"/>
     <use xlink:href="#DejaVuSans-65" x="64.982422"/>
     <use xlink:href="#DejaVuSans-20" x="126.505859"/>
     <use xlink:href="#DejaVuSans-3d" x="158.292969"/>
     <use xlink:href="#DejaVuSans-20" x="242.082031"/>
     <use xlink:href="#DejaVuSans-35" x="273.869141"/>
     <use xlink:href="#DejaVuSans-30" x="337.492188"/>
     <use xlink:href="#DejaVuSans-30" x="401.115234"/>
     <use xlink:href="#DejaVuSans-30" x="464.738281"/>
     <use xlink:href="#DejaVuSans-30" x="528.361328"/>
     <use xlink:href="#DejaVuSans-30" x="591.984375"/>
     <use xlink:href="#DejaVuSans-20" x="655.607422"/>
     <use xlink:href="#DejaVuSans-4d" x="687.394531"/>
     <use xlink:href="#DejaVuSans-61" x="773.673828"/>
     <use xlink:href="#DejaVuSans-63" x="834.953125"/>
     <use xlink:href="#DejaVuSans-68" x="889.933594"/>
     <use xlink:href="#DejaVuSans-20" x="953.3125"/>
     <use xlink:href="#DejaVuSans-3d" x="985.099609"/>
     <use xlink:href="#DejaVuSans-20" x="1068.888672"/>
     <use xlink:href="#DejaVuSans-30" x="1100.675781"/>
     <use xlink:href="#DejaVuSans-2e" x="1164.298828"/>
     <use xlink:href="#DejaVuSans-30" x="1196.085938"/>
     <use xlink:href="#DejaVuSans-30" x="1259.708984"/>
     <use xlink:href="#DejaVuSans-20" x="1323.332031"/>
    </g>
    <!--  Cd vs Alpha -->
    <g transform="translate(791.632853 35.856) scale(0.12 -0.12)">
     <use xlink:href="#DejaVuSans-20"/>
     <use xlink:href="#DejaVuSans-43" x="31.787109"/>
     <use xlink:href="#DejaVuSans-64" x="101.611328"/>
     <use xlink:href="#DejaVuSans-20" x="165.087891"/>
     <use xlink:href="#DejaVuSans-76" x="196.875"/>
     <use xlink:href="#DejaVuSans-73" x="256.054688"/>
     <use xlink:href="#DejaVuSans-20" x="308.154297"/>
     <use xlink:href="#DejaVuSans-41" x="339.941406"/>
     <use xlink:href="#DejaVuSans-6c" x="408.349609"/>
     <use xlink:href="#DejaVuSans-70" x="436.132812"/>
     <use xlink:href="#DejaVuSans-68" x="499.609375"/>
     <use xlink:href="#DejaVuSans-61" x="562.988281"/>
    </g>
   </g>
   <g id="legend_2">
    <g id="patch_13">
     <path d="M 956.612894 313.04 
L 1061.567581 313.04 
Q 1063.567581 313.04 1063.567581 311.04 
L 1063.567581 282.68375 
Q 1063.567581 280.68375 1061.567581 280.68375 
L 956.612894 280.68375 
Q 954.612894 280.68375 954.612894 282.68375 
L 954.612894 311.04 
Q 954.612894 313.04 956.612894 313.04 
z
" style="fill: #ffffff; opacity: 0.8; stroke: #cccccc; stroke-linejoin: miter"/>
    </g>
    <g id="line2d_57">
     <path d="M 958.612894 288.782188 
L 968.612894 288.782188 
L 978.612894 288.782188 
" style="fill: none; stroke: #0000ff; stroke-width: 1.5; stroke-linecap: square"/>
    </g>
    <g id="text_34">
     <!-- benchmark Cd -->
     <g transform="translate(986.612894 292.282188) scale(0.1 -0.1)">
      <use xlink:href="#DejaVuSans-62"/>
      <use xlink:href="#DejaVuSans-65" x="63.476562"/>
      <use xlink:href="#DejaVuSans-6e" x="125"/>
      <use xlink:href="#DejaVuSans-63" x="188.378906"/>
      <use xlink:href="#DejaVuSans-68" x="243.359375"/>
      <use xlink:href="#DejaVuSans-6d" x="306.738281"/>
      <use xlink:href="#DejaVuSans-61" x="404.150391"/>
      <use xlink:href="#DejaVuSans-72" x="465.429688"/>
      <use xlink:href="#DejaVuSans-6b" x="506.542969"/>
      <use xlink:href="#DejaVuSans-20" x="564.453125"/>
      <use xlink:href="#DejaVuSans-43" x="596.240234"/>
      <use xlink:href="#DejaVuSans-64" x="666.064453"/>
     </g>
    </g>
    <g id="line2d_58">
     <path d="M 958.612894 303.460313 
L 968.612894 303.460313 
L 978.612894 303.460313 
" style="fill: none; stroke: #ffa500; stroke-width: 1.5; stroke-linecap: square"/>
    </g>
    <g id="text_35">
     <!-- Predicted Cd -->
     <g transform="translate(986.612894 306.960313) scale(0.1 -0.1)">
      <use xlink:href="#DejaVuSans-50"/>
      <use xlink:href="#DejaVuSans-72" x="58.552734"/>
      <use xlink:href="#DejaVuSans-65" x="97.416016"/>
      <use xlink:href="#DejaVuSans-64" x="158.939453"/>
      <use xlink:href="#DejaVuSans-69" x="222.416016"/>
      <use xlink:href="#DejaVuSans-63" x="250.199219"/>
      <use xlink:href="#DejaVuSans-74" x="305.179688"/>
      <use xlink:href="#DejaVuSans-65" x="344.388672"/>
      <use xlink:href="#DejaVuSans-64" x="405.912109"/>
      <use xlink:href="#DejaVuSans-20" x="469.388672"/>
      <use xlink:href="#DejaVuSans-43" x="501.175781"/>
      <use xlink:href="#DejaVuSans-64" x="571"/>
     </g>
    </g>
   </g>
  </g>
 </g>
 <defs>
  <clipPath id="pa2e4f12597">
   <rect x="56" y="41.856" width="478.957581" height="276.184"/>
  </clipPath>
  <clipPath id="pbea1ca1048">
   <rect x="589.61" y="41.856" width="478.957581" height="276.184"/>
  </clipPath>
 </defs>
</svg>
