<?xml version="1.0" encoding="utf-8" standalone="no"?>
<!DOCTYPE svg PUBLIC "-//W3C//DTD SVG 1.1//EN"
  "http://www.w3.org/Graphics/SVG/1.1/DTD/svg11.dtd">
<svg xmlns:xlink="http://www.w3.org/1999/xlink" width="1080pt" height="360pt" viewBox="0 0 1080 360" xmlns="http://www.w3.org/2000/svg" version="1.1">
 <metadata>
  <rdf:RDF xmlns:dc="http://purl.org/dc/elements/1.1/" xmlns:cc="http://creativecommons.org/ns#" xmlns:rdf="http://www.w3.org/1999/02/22-rdf-syntax-ns#">
   <cc:Work>
    <dc:type rdf:resource="http://purl.org/dc/dcmitype/StillImage"/>
    <dc:date>2024-08-27T22:15:22.742615</dc:date>
    <dc:format>image/svg+xml</dc:format>
    <dc:creator>
     <cc:Agent>
      <dc:title>Matplotlib v3.7.5, https://matplotlib.org/</dc:title>
     </cc:Agent>
    </dc:creator>
   </cc:Work>
  </rdf:RDF>
 </metadata>
 <defs>
  <style type="text/css">*{stroke-linejoin: round; stroke-linecap: butt}</style>
 </defs>
 <g id="figure_1">
  <g id="patch_1">
   <path d="M 0 360 
L 1080 360 
L 1080 0 
L 0 0 
z
" style="fill: #ffffff"/>
  </g>
  <g id="axes_1">
   <g id="patch_2">
    <path d="M 62.3 318.04 
L 538.74 318.04 
L 538.74 41.856 
L 62.3 41.856 
z
" style="fill: #ffffff"/>
   </g>
   <g id="matplotlib.axis_1">
    <g id="xtick_1">
     <g id="line2d_1">
      <path d="M 138.585029 318.04 
L 138.585029 41.856 
" clip-path="url(#p7e216b0181)" style="fill: none; stroke: #b0b0b0; stroke-width: 0.8; stroke-linecap: square"/>
     </g>
     <g id="line2d_2">
      <defs>
       <path id="m457fad2ba7" d="M 0 0 
L 0 3.5 
" style="stroke: #000000; stroke-width: 0.8"/>
      </defs>
      <g>
       <use xlink:href="#m457fad2ba7" x="138.585029" y="318.04" style="stroke: #000000; stroke-width: 0.8"/>
      </g>
     </g>
     <g id="text_1">
      <!-- −5 -->
      <g transform="translate(131.213935 332.638438) scale(0.1 -0.1)">
       <defs>
        <path id="DejaVuSans-2212" d="M 678 2272 
L 4684 2272 
L 4684 1741 
L 678 1741 
L 678 2272 
z
" transform="scale(0.015625)"/>
        <path id="DejaVuSans-35" d="M 691 4666 
L 3169 4666 
L 3169 4134 
L 1269 4134 
L 1269 2991 
Q 1406 3038 1543 3061 
Q 1681 3084 1819 3084 
Q 2600 3084 3056 2656 
Q 3513 2228 3513 1497 
Q 3513 744 3044 326 
Q 2575 -91 1722 -91 
Q 1428 -91 1123 -41 
Q 819 9 494 109 
L 494 744 
Q 775 591 1075 516 
Q 1375 441 1709 441 
Q 2250 441 2565 725 
Q 2881 1009 2881 1497 
Q 2881 1984 2565 2268 
Q 2250 2553 1709 2553 
Q 1456 2553 1204 2497 
Q 953 2441 691 2322 
L 691 4666 
z
" transform="scale(0.015625)"/>
       </defs>
       <use xlink:href="#DejaVuSans-2212"/>
       <use xlink:href="#DejaVuSans-35" x="83.789062"/>
      </g>
     </g>
    </g>
    <g id="xtick_2">
     <g id="line2d_3">
      <path d="M 216.625979 318.04 
L 216.625979 41.856 
" clip-path="url(#p7e216b0181)" style="fill: none; stroke: #b0b0b0; stroke-width: 0.8; stroke-linecap: square"/>
     </g>
     <g id="line2d_4">
      <g>
       <use xlink:href="#m457fad2ba7" x="216.625979" y="318.04" style="stroke: #000000; stroke-width: 0.8"/>
      </g>
     </g>
     <g id="text_2">
      <!-- 0 -->
      <g transform="translate(213.444729 332.638438) scale(0.1 -0.1)">
       <defs>
        <path id="DejaVuSans-30" d="M 2034 4250 
Q 1547 4250 1301 3770 
Q 1056 3291 1056 2328 
Q 1056 1369 1301 889 
Q 1547 409 2034 409 
Q 2525 409 2770 889 
Q 3016 1369 3016 2328 
Q 3016 3291 2770 3770 
Q 2525 4250 2034 4250 
z
M 2034 4750 
Q 2819 4750 3233 4129 
Q 3647 3509 3647 2328 
Q 3647 1150 3233 529 
Q 2819 -91 2034 -91 
Q 1250 -91 836 529 
Q 422 1150 422 2328 
Q 422 3509 836 4129 
Q 1250 4750 2034 4750 
z
" transform="scale(0.015625)"/>
       </defs>
       <use xlink:href="#DejaVuSans-30"/>
      </g>
     </g>
    </g>
    <g id="xtick_3">
     <g id="line2d_5">
      <path d="M 294.666929 318.04 
L 294.666929 41.856 
" clip-path="url(#p7e216b0181)" style="fill: none; stroke: #b0b0b0; stroke-width: 0.8; stroke-linecap: square"/>
     </g>
     <g id="line2d_6">
      <g>
       <use xlink:href="#m457fad2ba7" x="294.666929" y="318.04" style="stroke: #000000; stroke-width: 0.8"/>
      </g>
     </g>
     <g id="text_3">
      <!-- 5 -->
      <g transform="translate(291.485679 332.638438) scale(0.1 -0.1)">
       <use xlink:href="#DejaVuSans-35"/>
      </g>
     </g>
    </g>
    <g id="xtick_4">
     <g id="line2d_7">
      <path d="M 372.707879 318.04 
L 372.707879 41.856 
" clip-path="url(#p7e216b0181)" style="fill: none; stroke: #b0b0b0; stroke-width: 0.8; stroke-linecap: square"/>
     </g>
     <g id="line2d_8">
      <g>
       <use xlink:href="#m457fad2ba7" x="372.707879" y="318.04" style="stroke: #000000; stroke-width: 0.8"/>
      </g>
     </g>
     <g id="text_4">
      <!-- 10 -->
      <g transform="translate(366.345379 332.638438) scale(0.1 -0.1)">
       <defs>
        <path id="DejaVuSans-31" d="M 794 531 
L 1825 531 
L 1825 4091 
L 703 3866 
L 703 4441 
L 1819 4666 
L 2450 4666 
L 2450 531 
L 3481 531 
L 3481 0 
L 794 0 
L 794 531 
z
" transform="scale(0.015625)"/>
       </defs>
       <use xlink:href="#DejaVuSans-31"/>
       <use xlink:href="#DejaVuSans-30" x="63.623047"/>
      </g>
     </g>
    </g>
    <g id="xtick_5">
     <g id="line2d_9">
      <path d="M 450.748829 318.04 
L 450.748829 41.856 
" clip-path="url(#p7e216b0181)" style="fill: none; stroke: #b0b0b0; stroke-width: 0.8; stroke-linecap: square"/>
     </g>
     <g id="line2d_10">
      <g>
       <use xlink:href="#m457fad2ba7" x="450.748829" y="318.04" style="stroke: #000000; stroke-width: 0.8"/>
      </g>
     </g>
     <g id="text_5">
      <!-- 15 -->
      <g transform="translate(444.386329 332.638438) scale(0.1 -0.1)">
       <use xlink:href="#DejaVuSans-31"/>
       <use xlink:href="#DejaVuSans-35" x="63.623047"/>
      </g>
     </g>
    </g>
    <g id="xtick_6">
     <g id="line2d_11">
      <path d="M 528.789779 318.04 
L 528.789779 41.856 
" clip-path="url(#p7e216b0181)" style="fill: none; stroke: #b0b0b0; stroke-width: 0.8; stroke-linecap: square"/>
     </g>
     <g id="line2d_12">
      <g>
       <use xlink:href="#m457fad2ba7" x="528.789779" y="318.04" style="stroke: #000000; stroke-width: 0.8"/>
      </g>
     </g>
     <g id="text_6">
      <!-- 20 -->
      <g transform="translate(522.427279 332.638438) scale(0.1 -0.1)">
       <defs>
        <path id="DejaVuSans-32" d="M 1228 531 
L 3431 531 
L 3431 0 
L 469 0 
L 469 531 
Q 828 903 1448 1529 
Q 2069 2156 2228 2338 
Q 2531 2678 2651 2914 
Q 2772 3150 2772 3378 
Q 2772 3750 2511 3984 
Q 2250 4219 1831 4219 
Q 1534 4219 1204 4116 
Q 875 4013 500 3803 
L 500 4441 
Q 881 4594 1212 4672 
Q 1544 4750 1819 4750 
Q 2544 4750 2975 4387 
Q 3406 4025 3406 3419 
Q 3406 3131 3298 2873 
Q 3191 2616 2906 2266 
Q 2828 2175 2409 1742 
Q 1991 1309 1228 531 
z
" transform="scale(0.015625)"/>
       </defs>
       <use xlink:href="#DejaVuSans-32"/>
       <use xlink:href="#DejaVuSans-30" x="63.623047"/>
      </g>
     </g>
    </g>
    <g id="text_7">
     <!-- Alpha -->
     <g transform="translate(286.303594 346.316563) scale(0.1 -0.1)">
      <defs>
       <path id="DejaVuSans-41" d="M 2188 4044 
L 1331 1722 
L 3047 1722 
L 2188 4044 
z
M 1831 4666 
L 2547 4666 
L 4325 0 
L 3669 0 
L 3244 1197 
L 1141 1197 
L 716 0 
L 50 0 
L 1831 4666 
z
" transform="scale(0.015625)"/>
       <path id="DejaVuSans-6c" d="M 603 4863 
L 1178 4863 
L 1178 0 
L 603 0 
L 603 4863 
z
" transform="scale(0.015625)"/>
       <path id="DejaVuSans-70" d="M 1159 525 
L 1159 -1331 
L 581 -1331 
L 581 3500 
L 1159 3500 
L 1159 2969 
Q 1341 3281 1617 3432 
Q 1894 3584 2278 3584 
Q 2916 3584 3314 3078 
Q 3713 2572 3713 1747 
Q 3713 922 3314 415 
Q 2916 -91 2278 -91 
Q 1894 -91 1617 61 
Q 1341 213 1159 525 
z
M 3116 1747 
Q 3116 2381 2855 2742 
Q 2594 3103 2138 3103 
Q 1681 3103 1420 2742 
Q 1159 2381 1159 1747 
Q 1159 1113 1420 752 
Q 1681 391 2138 391 
Q 2594 391 2855 752 
Q 3116 1113 3116 1747 
z
" transform="scale(0.015625)"/>
       <path id="DejaVuSans-68" d="M 3513 2113 
L 3513 0 
L 2938 0 
L 2938 2094 
Q 2938 2591 2744 2837 
Q 2550 3084 2163 3084 
Q 1697 3084 1428 2787 
Q 1159 2491 1159 1978 
L 1159 0 
L 581 0 
L 581 4863 
L 1159 4863 
L 1159 2956 
Q 1366 3272 1645 3428 
Q 1925 3584 2291 3584 
Q 2894 3584 3203 3211 
Q 3513 2838 3513 2113 
z
" transform="scale(0.015625)"/>
       <path id="DejaVuSans-61" d="M 2194 1759 
Q 1497 1759 1228 1600 
Q 959 1441 959 1056 
Q 959 750 1161 570 
Q 1363 391 1709 391 
Q 2188 391 2477 730 
Q 2766 1069 2766 1631 
L 2766 1759 
L 2194 1759 
z
M 3341 1997 
L 3341 0 
L 2766 0 
L 2766 531 
Q 2569 213 2275 61 
Q 1981 -91 1556 -91 
Q 1019 -91 701 211 
Q 384 513 384 1019 
Q 384 1609 779 1909 
Q 1175 2209 1959 2209 
L 2766 2209 
L 2766 2266 
Q 2766 2663 2505 2880 
Q 2244 3097 1772 3097 
Q 1472 3097 1187 3025 
Q 903 2953 641 2809 
L 641 3341 
Q 956 3463 1253 3523 
Q 1550 3584 1831 3584 
Q 2591 3584 2966 3190 
Q 3341 2797 3341 1997 
z
" transform="scale(0.015625)"/>
      </defs>
      <use xlink:href="#DejaVuSans-41"/>
      <use xlink:href="#DejaVuSans-6c" x="68.408203"/>
      <use xlink:href="#DejaVuSans-70" x="96.191406"/>
      <use xlink:href="#DejaVuSans-68" x="159.667969"/>
      <use xlink:href="#DejaVuSans-61" x="223.046875"/>
     </g>
    </g>
   </g>
   <g id="matplotlib.axis_2">
    <g id="ytick_1">
     <g id="line2d_13">
      <path d="M 62.3 309.538101 
L 538.74 309.538101 
" clip-path="url(#p7e216b0181)" style="fill: none; stroke: #b0b0b0; stroke-width: 0.8; stroke-linecap: square"/>
     </g>
     <g id="line2d_14">
      <defs>
       <path id="md04fa6f82c" d="M 0 0 
L -3.5 0 
" style="stroke: #000000; stroke-width: 0.8"/>
      </defs>
      <g>
       <use xlink:href="#md04fa6f82c" x="62.3" y="309.538101" style="stroke: #000000; stroke-width: 0.8"/>
      </g>
     </g>
     <g id="text_8">
      <!-- −0.50 -->
      <g transform="translate(24.654687 313.33732) scale(0.1 -0.1)">
       <defs>
        <path id="DejaVuSans-2e" d="M 684 794 
L 1344 794 
L 1344 0 
L 684 0 
L 684 794 
z
" transform="scale(0.015625)"/>
       </defs>
       <use xlink:href="#DejaVuSans-2212"/>
       <use xlink:href="#DejaVuSans-30" x="83.789062"/>
       <use xlink:href="#DejaVuSans-2e" x="147.412109"/>
       <use xlink:href="#DejaVuSans-35" x="179.199219"/>
       <use xlink:href="#DejaVuSans-30" x="242.822266"/>
      </g>
     </g>
    </g>
    <g id="ytick_2">
     <g id="line2d_15">
      <path d="M 62.3 275.772106 
L 538.74 275.772106 
" clip-path="url(#p7e216b0181)" style="fill: none; stroke: #b0b0b0; stroke-width: 0.8; stroke-linecap: square"/>
     </g>
     <g id="line2d_16">
      <g>
       <use xlink:href="#md04fa6f82c" x="62.3" y="275.772106" style="stroke: #000000; stroke-width: 0.8"/>
      </g>
     </g>
     <g id="text_9">
      <!-- −0.25 -->
      <g transform="translate(24.654687 279.571325) scale(0.1 -0.1)">
       <use xlink:href="#DejaVuSans-2212"/>
       <use xlink:href="#DejaVuSans-30" x="83.789062"/>
       <use xlink:href="#DejaVuSans-2e" x="147.412109"/>
       <use xlink:href="#DejaVuSans-32" x="179.199219"/>
       <use xlink:href="#DejaVuSans-35" x="242.822266"/>
      </g>
     </g>
    </g>
    <g id="ytick_3">
     <g id="line2d_17">
      <path d="M 62.3 242.006111 
L 538.74 242.006111 
" clip-path="url(#p7e216b0181)" style="fill: none; stroke: #b0b0b0; stroke-width: 0.8; stroke-linecap: square"/>
     </g>
     <g id="line2d_18">
      <g>
       <use xlink:href="#md04fa6f82c" x="62.3" y="242.006111" style="stroke: #000000; stroke-width: 0.8"/>
      </g>
     </g>
     <g id="text_10">
      <!-- 0.00 -->
      <g transform="translate(33.034375 245.80533) scale(0.1 -0.1)">
       <use xlink:href="#DejaVuSans-30"/>
       <use xlink:href="#DejaVuSans-2e" x="63.623047"/>
       <use xlink:href="#DejaVuSans-30" x="95.410156"/>
       <use xlink:href="#DejaVuSans-30" x="159.033203"/>
      </g>
     </g>
    </g>
    <g id="ytick_4">
     <g id="line2d_19">
      <path d="M 62.3 208.240116 
L 538.74 208.240116 
" clip-path="url(#p7e216b0181)" style="fill: none; stroke: #b0b0b0; stroke-width: 0.8; stroke-linecap: square"/>
     </g>
     <g id="line2d_20">
      <g>
       <use xlink:href="#md04fa6f82c" x="62.3" y="208.240116" style="stroke: #000000; stroke-width: 0.8"/>
      </g>
     </g>
     <g id="text_11">
      <!-- 0.25 -->
      <g transform="translate(33.034375 212.039335) scale(0.1 -0.1)">
       <use xlink:href="#DejaVuSans-30"/>
       <use xlink:href="#DejaVuSans-2e" x="63.623047"/>
       <use xlink:href="#DejaVuSans-32" x="95.410156"/>
       <use xlink:href="#DejaVuSans-35" x="159.033203"/>
      </g>
     </g>
    </g>
    <g id="ytick_5">
     <g id="line2d_21">
      <path d="M 62.3 174.474121 
L 538.74 174.474121 
" clip-path="url(#p7e216b0181)" style="fill: none; stroke: #b0b0b0; stroke-width: 0.8; stroke-linecap: square"/>
     </g>
     <g id="line2d_22">
      <g>
       <use xlink:href="#md04fa6f82c" x="62.3" y="174.474121" style="stroke: #000000; stroke-width: 0.8"/>
      </g>
     </g>
     <g id="text_12">
      <!-- 0.50 -->
      <g transform="translate(33.034375 178.27334) scale(0.1 -0.1)">
       <use xlink:href="#DejaVuSans-30"/>
       <use xlink:href="#DejaVuSans-2e" x="63.623047"/>
       <use xlink:href="#DejaVuSans-35" x="95.410156"/>
       <use xlink:href="#DejaVuSans-30" x="159.033203"/>
      </g>
     </g>
    </g>
    <g id="ytick_6">
     <g id="line2d_23">
      <path d="M 62.3 140.708126 
L 538.74 140.708126 
" clip-path="url(#p7e216b0181)" style="fill: none; stroke: #b0b0b0; stroke-width: 0.8; stroke-linecap: square"/>
     </g>
     <g id="line2d_24">
      <g>
       <use xlink:href="#md04fa6f82c" x="62.3" y="140.708126" style="stroke: #000000; stroke-width: 0.8"/>
      </g>
     </g>
     <g id="text_13">
      <!-- 0.75 -->
      <g transform="translate(33.034375 144.507345) scale(0.1 -0.1)">
       <defs>
        <path id="DejaVuSans-37" d="M 525 4666 
L 3525 4666 
L 3525 4397 
L 1831 0 
L 1172 0 
L 2766 4134 
L 525 4134 
L 525 4666 
z
" transform="scale(0.015625)"/>
       </defs>
       <use xlink:href="#DejaVuSans-30"/>
       <use xlink:href="#DejaVuSans-2e" x="63.623047"/>
       <use xlink:href="#DejaVuSans-37" x="95.410156"/>
       <use xlink:href="#DejaVuSans-35" x="159.033203"/>
      </g>
     </g>
    </g>
    <g id="ytick_7">
     <g id="line2d_25">
      <path d="M 62.3 106.942131 
L 538.74 106.942131 
" clip-path="url(#p7e216b0181)" style="fill: none; stroke: #b0b0b0; stroke-width: 0.8; stroke-linecap: square"/>
     </g>
     <g id="line2d_26">
      <g>
       <use xlink:href="#md04fa6f82c" x="62.3" y="106.942131" style="stroke: #000000; stroke-width: 0.8"/>
      </g>
     </g>
     <g id="text_14">
      <!-- 1.00 -->
      <g transform="translate(33.034375 110.74135) scale(0.1 -0.1)">
       <use xlink:href="#DejaVuSans-31"/>
       <use xlink:href="#DejaVuSans-2e" x="63.623047"/>
       <use xlink:href="#DejaVuSans-30" x="95.410156"/>
       <use xlink:href="#DejaVuSans-30" x="159.033203"/>
      </g>
     </g>
    </g>
    <g id="ytick_8">
     <g id="line2d_27">
      <path d="M 62.3 73.176136 
L 538.74 73.176136 
" clip-path="url(#p7e216b0181)" style="fill: none; stroke: #b0b0b0; stroke-width: 0.8; stroke-linecap: square"/>
     </g>
     <g id="line2d_28">
      <g>
       <use xlink:href="#md04fa6f82c" x="62.3" y="73.176136" style="stroke: #000000; stroke-width: 0.8"/>
      </g>
     </g>
     <g id="text_15">
      <!-- 1.25 -->
      <g transform="translate(33.034375 76.975355) scale(0.1 -0.1)">
       <use xlink:href="#DejaVuSans-31"/>
       <use xlink:href="#DejaVuSans-2e" x="63.623047"/>
       <use xlink:href="#DejaVuSans-32" x="95.410156"/>
       <use xlink:href="#DejaVuSans-35" x="159.033203"/>
      </g>
     </g>
    </g>
    <g id="text_16">
     <!-- Cl -->
     <g transform="translate(18.575 184.828469) rotate(-90) scale(0.1 -0.1)">
      <defs>
       <path id="DejaVuSans-43" d="M 4122 4306 
L 4122 3641 
Q 3803 3938 3442 4084 
Q 3081 4231 2675 4231 
Q 1875 4231 1450 3742 
Q 1025 3253 1025 2328 
Q 1025 1406 1450 917 
Q 1875 428 2675 428 
Q 3081 428 3442 575 
Q 3803 722 4122 1019 
L 4122 359 
Q 3791 134 3420 21 
Q 3050 -91 2638 -91 
Q 1578 -91 968 557 
Q 359 1206 359 2328 
Q 359 3453 968 4101 
Q 1578 4750 2638 4750 
Q 3056 4750 3426 4639 
Q 3797 4528 4122 4306 
z
" transform="scale(0.015625)"/>
      </defs>
      <use xlink:href="#DejaVuSans-43"/>
      <use xlink:href="#DejaVuSans-6c" x="69.824219"/>
     </g>
    </g>
   </g>
   <g id="line2d_29">
    <path d="M 83.956364 298.449348 
L 87.858411 302.298672 
L 91.760459 305.486182 
L 95.662506 303.851908 
L 99.564554 300.758943 
L 103.466601 304.702811 
L 107.368649 303.109056 
L 111.270696 300.907513 
L 115.172744 298.098182 
L 119.074791 295.113268 
L 122.976839 290.818234 
L 126.878886 286.536705 
L 130.780934 282.998029 
L 134.682981 278.311309 
L 138.585029 272.90875 
L 142.487076 269.815785 
L 146.389124 264.966988 
L 150.291171 259.523909 
L 154.193219 253.729665 
L 158.095266 250.893321 
L 161.997314 245.666345 
L 165.899361 240.290799 
L 169.801409 237.143808 
L 173.703456 232.538126 
L 177.605504 227.50024 
L 181.507551 224.812466 
L 185.409599 220.422887 
L 189.311646 217.708101 
L 193.213694 214.426046 
L 197.115741 210.374127 
L 201.017789 196.111371 
L 204.919836 187.426757 
L 208.821884 177.580593 
L 212.723931 174.649704 
L 216.625979 171.313624 
L 220.528026 168.679876 
L 224.430074 165.803013 
L 228.332121 162.696542 
L 232.234169 159.549551 
L 236.136216 156.753727 
L 240.038264 153.836345 
L 243.940311 150.810912 
L 247.842359 147.758466 
L 251.744406 144.746539 
L 255.646454 141.775131 
L 259.548501 138.911775 
L 263.450549 136.048419 
L 267.352596 133.185062 
L 271.254644 130.375731 
L 275.156691 127.687958 
L 279.058739 125.000185 
L 282.960786 122.325918 
L 286.862834 119.678664 
L 290.764881 117.085436 
L 294.666929 114.559739 
L 298.568976 112.101575 
L 302.471024 109.68393 
L 306.373071 107.293297 
L 310.275119 104.862146 
L 314.177166 102.376968 
L 318.079214 99.905297 
L 321.981261 97.447133 
L 325.883309 94.948449 
L 329.785356 92.39574 
L 337.589451 87.546943 
L 341.491499 85.169817 
L 345.393546 82.954768 
L 349.295594 80.942315 
L 353.197641 79.132457 
L 357.099689 77.579222 
L 361.001736 76.188063 
L 364.903784 74.985993 
L 368.805831 74.229635 
L 372.707879 73.743404 
L 376.609926 73.878468 
L 380.511974 73.851456 
L 384.414021 73.662366 
L 388.316069 72.906008 
L 392.218116 72.595361 
L 396.120164 71.609394 
L 400.022211 71.13667 
L 403.924259 70.164209 
L 407.826306 69.056684 
L 411.728354 68.232794 
L 415.630401 67.08475 
L 419.532449 66.044758 
L 423.434496 65.072297 
L 427.336544 63.829708 
L 431.238591 62.776209 
L 435.140639 62.222447 
L 439.042686 61.547127 
L 442.944734 60.547654 
L 446.846781 59.777789 
L 450.748829 59.845321 
L 454.650876 59.710257 
L 458.552924 59.345584 
L 462.454971 58.5352 
L 466.357019 59.291559 
L 470.259066 59.791295 
L 474.161114 60.182981 
L 478.063161 60.020904 
L 481.965209 59.899347 
L 485.867256 61.222974 
L 489.769304 62.492575 
L 493.671351 63.627112 
L 497.573399 64.396977 
L 501.475446 64.545547 
L 505.377494 64.478015 
L 509.279541 66.801116 
L 513.181589 69.340319 
L 517.083636 71.839002 
" clip-path="url(#p7e216b0181)" style="fill: none; stroke: #0000ff; stroke-width: 1.5; stroke-linecap: square"/>
   </g>
   <g id="line2d_30">
    <path d="M 169.801409 232.517368 
L 172.639261 230.65512 
L 175.477114 228.649507 
L 178.314967 226.511033 
L 181.15282 224.254306 
L 183.990672 221.89161 
L 186.828525 219.416082 
L 189.666378 216.782267 
L 192.504231 213.862367 
L 195.342083 210.33921 
L 198.179936 205.525137 
L 201.017789 199.069706 
L 203.855641 192.699046 
L 206.693494 187.223282 
L 209.531347 183.469297 
L 212.3692 181.330774 
L 215.207052 179.130508 
L 218.044905 176.847198 
L 220.882758 174.471416 
L 223.720611 172.01476 
L 226.558463 169.461498 
L 229.396316 166.795836 
L 232.234169 164.378442 
L 235.072021 162.214532 
L 237.909874 160.003221 
L 240.747727 157.748502 
L 243.58558 155.456614 
L 246.423432 153.1332 
L 249.261285 150.791456 
L 252.099138 148.443038 
L 254.936991 146.268018 
L 257.774843 144.289952 
L 260.612696 142.322521 
L 263.450549 140.369629 
L 266.288401 138.409315 
L 269.126254 136.434042 
L 271.964107 134.420056 
L 274.80196 132.398252 
L 277.639812 130.368671 
L 280.477665 128.313185 
L 283.315518 126.313077 
L 286.153371 124.394536 
L 288.991223 122.380767 
L 291.829076 120.327212 
L 294.666929 118.330228 
L 297.504781 116.24881 
L 300.342634 114.085609 
L 303.180487 111.849341 
L 306.01834 109.690318 
L 308.856192 107.540641 
L 311.694045 105.461768 
L 314.531898 103.385076 
L 317.369751 101.323535 
L 320.207603 99.2846 
L 323.045456 97.34219 
L 325.883309 95.482168 
L 328.721161 93.589767 
L 331.559014 91.659963 
L 334.396867 89.719421 
L 337.23472 87.772937 
L 340.072572 85.85529 
L 342.910425 84.012995 
L 345.748278 82.282649 
L 348.586131 80.686907 
L 351.423983 79.238584 
L 354.261836 77.954877 
L 357.099689 76.813389 
L 359.937542 75.812172 
L 362.775394 74.943272 
L 365.613247 74.191989 
L 368.4511 73.544653 
L 371.288952 72.987208 
L 374.126805 72.489449 
L 376.964658 72.024987 
L 379.802511 71.558931 
L 382.640363 71.063088 
L 385.478216 70.521906 
L 388.316069 69.927606 
L 391.153922 69.271527 
L 393.991774 68.57093 
L 396.829627 67.837116 
L 399.66748 67.081952 
L 402.505332 66.316049 
L 405.343185 65.54902 
L 408.181038 64.798558 
L 411.018891 64.0546 
L 413.856743 63.284962 
L 416.694596 62.518914 
L 419.532449 61.765184 
L 422.370302 61.023126 
L 425.208154 60.267979 
L 428.046007 59.539011 
L 430.88386 58.800174 
L 433.721712 58.080497 
L 436.559565 57.383313 
L 439.397418 56.718153 
L 442.235271 56.070463 
L 445.073123 55.471285 
L 447.910976 54.923565 
L 450.748829 54.409818 
" clip-path="url(#p7e216b0181)" style="fill: none; stroke: #ffa500; stroke-width: 1.5; stroke-linecap: square"/>
   </g>
   <g id="patch_3">
    <path d="M 62.3 318.04 
L 62.3 41.856 
" style="fill: none; stroke: #000000; stroke-width: 0.8; stroke-linejoin: miter; stroke-linecap: square"/>
   </g>
   <g id="patch_4">
    <path d="M 538.74 318.04 
L 538.74 41.856 
" style="fill: none; stroke: #000000; stroke-width: 0.8; stroke-linejoin: miter; stroke-linecap: square"/>
   </g>
   <g id="patch_5">
    <path d="M 62.3 318.04 
L 538.74 318.04 
" style="fill: none; stroke: #000000; stroke-width: 0.8; stroke-linejoin: miter; stroke-linecap: square"/>
   </g>
   <g id="patch_6">
    <path d="M 62.3 41.856 
L 538.74 41.856 
" style="fill: none; stroke: #000000; stroke-width: 0.8; stroke-linejoin: miter; stroke-linecap: square"/>
   </g>
   <g id="text_17">
    <!-- Re = 200000 Mach = 0.00  -->
    <g transform="translate(219.2125 22.418625) scale(0.12 -0.12)">
     <defs>
      <path id="DejaVuSans-52" d="M 2841 2188 
Q 3044 2119 3236 1894 
Q 3428 1669 3622 1275 
L 4263 0 
L 3584 0 
L 2988 1197 
Q 2756 1666 2539 1819 
Q 2322 1972 1947 1972 
L 1259 1972 
L 1259 0 
L 628 0 
L 628 4666 
L 2053 4666 
Q 2853 4666 3247 4331 
Q 3641 3997 3641 3322 
Q 3641 2881 3436 2590 
Q 3231 2300 2841 2188 
z
M 1259 4147 
L 1259 2491 
L 2053 2491 
Q 2509 2491 2742 2702 
Q 2975 2913 2975 3322 
Q 2975 3731 2742 3939 
Q 2509 4147 2053 4147 
L 1259 4147 
z
" transform="scale(0.015625)"/>
      <path id="DejaVuSans-65" d="M 3597 1894 
L 3597 1613 
L 953 1613 
Q 991 1019 1311 708 
Q 1631 397 2203 397 
Q 2534 397 2845 478 
Q 3156 559 3463 722 
L 3463 178 
Q 3153 47 2828 -22 
Q 2503 -91 2169 -91 
Q 1331 -91 842 396 
Q 353 884 353 1716 
Q 353 2575 817 3079 
Q 1281 3584 2069 3584 
Q 2775 3584 3186 3129 
Q 3597 2675 3597 1894 
z
M 3022 2063 
Q 3016 2534 2758 2815 
Q 2500 3097 2075 3097 
Q 1594 3097 1305 2825 
Q 1016 2553 972 2059 
L 3022 2063 
z
" transform="scale(0.015625)"/>
      <path id="DejaVuSans-20" transform="scale(0.015625)"/>
      <path id="DejaVuSans-3d" d="M 678 2906 
L 4684 2906 
L 4684 2381 
L 678 2381 
L 678 2906 
z
M 678 1631 
L 4684 1631 
L 4684 1100 
L 678 1100 
L 678 1631 
z
" transform="scale(0.015625)"/>
      <path id="DejaVuSans-4d" d="M 628 4666 
L 1569 4666 
L 2759 1491 
L 3956 4666 
L 4897 4666 
L 4897 0 
L 4281 0 
L 4281 4097 
L 3078 897 
L 2444 897 
L 1241 4097 
L 1241 0 
L 628 0 
L 628 4666 
z
" transform="scale(0.015625)"/>
      <path id="DejaVuSans-63" d="M 3122 3366 
L 3122 2828 
Q 2878 2963 2633 3030 
Q 2388 3097 2138 3097 
Q 1578 3097 1268 2742 
Q 959 2388 959 1747 
Q 959 1106 1268 751 
Q 1578 397 2138 397 
Q 2388 397 2633 464 
Q 2878 531 3122 666 
L 3122 134 
Q 2881 22 2623 -34 
Q 2366 -91 2075 -91 
Q 1284 -91 818 406 
Q 353 903 353 1747 
Q 353 2603 823 3093 
Q 1294 3584 2113 3584 
Q 2378 3584 2631 3529 
Q 2884 3475 3122 3366 
z
" transform="scale(0.015625)"/>
     </defs>
     <use xlink:href="#DejaVuSans-52"/>
     <use xlink:href="#DejaVuSans-65" x="64.982422"/>
     <use xlink:href="#DejaVuSans-20" x="126.505859"/>
     <use xlink:href="#DejaVuSans-3d" x="158.292969"/>
     <use xlink:href="#DejaVuSans-20" x="242.082031"/>
     <use xlink:href="#DejaVuSans-32" x="273.869141"/>
     <use xlink:href="#DejaVuSans-30" x="337.492188"/>
     <use xlink:href="#DejaVuSans-30" x="401.115234"/>
     <use xlink:href="#DejaVuSans-30" x="464.738281"/>
     <use xlink:href="#DejaVuSans-30" x="528.361328"/>
     <use xlink:href="#DejaVuSans-30" x="591.984375"/>
     <use xlink:href="#DejaVuSans-20" x="655.607422"/>
     <use xlink:href="#DejaVuSans-4d" x="687.394531"/>
     <use xlink:href="#DejaVuSans-61" x="773.673828"/>
     <use xlink:href="#DejaVuSans-63" x="834.953125"/>
     <use xlink:href="#DejaVuSans-68" x="889.933594"/>
     <use xlink:href="#DejaVuSans-20" x="953.3125"/>
     <use xlink:href="#DejaVuSans-3d" x="985.099609"/>
     <use xlink:href="#DejaVuSans-20" x="1068.888672"/>
     <use xlink:href="#DejaVuSans-30" x="1100.675781"/>
     <use xlink:href="#DejaVuSans-2e" x="1164.298828"/>
     <use xlink:href="#DejaVuSans-30" x="1196.085938"/>
     <use xlink:href="#DejaVuSans-30" x="1259.708984"/>
     <use xlink:href="#DejaVuSans-20" x="1323.332031"/>
    </g>
    <!--  Cl vs Alpha -->
    <g transform="translate(265.20625 35.856) scale(0.12 -0.12)">
     <defs>
      <path id="DejaVuSans-76" d="M 191 3500 
L 800 3500 
L 1894 563 
L 2988 3500 
L 3597 3500 
L 2284 0 
L 1503 0 
L 191 3500 
z
" transform="scale(0.015625)"/>
      <path id="DejaVuSans-73" d="M 2834 3397 
L 2834 2853 
Q 2591 2978 2328 3040 
Q 2066 3103 1784 3103 
Q 1356 3103 1142 2972 
Q 928 2841 928 2578 
Q 928 2378 1081 2264 
Q 1234 2150 1697 2047 
L 1894 2003 
Q 2506 1872 2764 1633 
Q 3022 1394 3022 966 
Q 3022 478 2636 193 
Q 2250 -91 1575 -91 
Q 1294 -91 989 -36 
Q 684 19 347 128 
L 347 722 
Q 666 556 975 473 
Q 1284 391 1588 391 
Q 1994 391 2212 530 
Q 2431 669 2431 922 
Q 2431 1156 2273 1281 
Q 2116 1406 1581 1522 
L 1381 1569 
Q 847 1681 609 1914 
Q 372 2147 372 2553 
Q 372 3047 722 3315 
Q 1072 3584 1716 3584 
Q 2034 3584 2315 3537 
Q 2597 3491 2834 3397 
z
" transform="scale(0.015625)"/>
     </defs>
     <use xlink:href="#DejaVuSans-20"/>
     <use xlink:href="#DejaVuSans-43" x="31.787109"/>
     <use xlink:href="#DejaVuSans-6c" x="101.611328"/>
     <use xlink:href="#DejaVuSans-20" x="129.394531"/>
     <use xlink:href="#DejaVuSans-76" x="161.181641"/>
     <use xlink:href="#DejaVuSans-73" x="220.361328"/>
     <use xlink:href="#DejaVuSans-20" x="272.460938"/>
     <use xlink:href="#DejaVuSans-41" x="304.248047"/>
     <use xlink:href="#DejaVuSans-6c" x="372.65625"/>
     <use xlink:href="#DejaVuSans-70" x="400.439453"/>
     <use xlink:href="#DejaVuSans-68" x="463.916016"/>
     <use xlink:href="#DejaVuSans-61" x="527.294922"/>
    </g>
   </g>
   <g id="legend_1">
    <g id="patch_7">
     <path d="M 69.3 79.21225 
L 170.684375 79.21225 
Q 172.684375 79.21225 172.684375 77.21225 
L 172.684375 48.856 
Q 172.684375 46.856 170.684375 46.856 
L 69.3 46.856 
Q 67.3 46.856 67.3 48.856 
L 67.3 77.21225 
Q 67.3 79.21225 69.3 79.21225 
z
" style="fill: #ffffff; opacity: 0.8; stroke: #cccccc; stroke-linejoin: miter"/>
    </g>
    <g id="line2d_31">
     <path d="M 71.3 54.954438 
L 81.3 54.954438 
L 91.3 54.954438 
" style="fill: none; stroke: #0000ff; stroke-width: 1.5; stroke-linecap: square"/>
    </g>
    <g id="text_18">
     <!-- benchmark Cl -->
     <g transform="translate(99.3 58.454438) scale(0.1 -0.1)">
      <defs>
       <path id="DejaVuSans-62" d="M 3116 1747 
Q 3116 2381 2855 2742 
Q 2594 3103 2138 3103 
Q 1681 3103 1420 2742 
Q 1159 2381 1159 1747 
Q 1159 1113 1420 752 
Q 1681 391 2138 391 
Q 2594 391 2855 752 
Q 3116 1113 3116 1747 
z
M 1159 2969 
Q 1341 3281 1617 3432 
Q 1894 3584 2278 3584 
Q 2916 3584 3314 3078 
Q 3713 2572 3713 1747 
Q 3713 922 3314 415 
Q 2916 -91 2278 -91 
Q 1894 -91 1617 61 
Q 1341 213 1159 525 
L 1159 0 
L 581 0 
L 581 4863 
L 1159 4863 
L 1159 2969 
z
" transform="scale(0.015625)"/>
       <path id="DejaVuSans-6e" d="M 3513 2113 
L 3513 0 
L 2938 0 
L 2938 2094 
Q 2938 2591 2744 2837 
Q 2550 3084 2163 3084 
Q 1697 3084 1428 2787 
Q 1159 2491 1159 1978 
L 1159 0 
L 581 0 
L 581 3500 
L 1159 3500 
L 1159 2956 
Q 1366 3272 1645 3428 
Q 1925 3584 2291 3584 
Q 2894 3584 3203 3211 
Q 3513 2838 3513 2113 
z
" transform="scale(0.015625)"/>
       <path id="DejaVuSans-6d" d="M 3328 2828 
Q 3544 3216 3844 3400 
Q 4144 3584 4550 3584 
Q 5097 3584 5394 3201 
Q 5691 2819 5691 2113 
L 5691 0 
L 5113 0 
L 5113 2094 
Q 5113 2597 4934 2840 
Q 4756 3084 4391 3084 
Q 3944 3084 3684 2787 
Q 3425 2491 3425 1978 
L 3425 0 
L 2847 0 
L 2847 2094 
Q 2847 2600 2669 2842 
Q 2491 3084 2119 3084 
Q 1678 3084 1418 2786 
Q 1159 2488 1159 1978 
L 1159 0 
L 581 0 
L 581 3500 
L 1159 3500 
L 1159 2956 
Q 1356 3278 1631 3431 
Q 1906 3584 2284 3584 
Q 2666 3584 2933 3390 
Q 3200 3197 3328 2828 
z
" transform="scale(0.015625)"/>
       <path id="DejaVuSans-72" d="M 2631 2963 
Q 2534 3019 2420 3045 
Q 2306 3072 2169 3072 
Q 1681 3072 1420 2755 
Q 1159 2438 1159 1844 
L 1159 0 
L 581 0 
L 581 3500 
L 1159 3500 
L 1159 2956 
Q 1341 3275 1631 3429 
Q 1922 3584 2338 3584 
Q 2397 3584 2469 3576 
Q 2541 3569 2628 3553 
L 2631 2963 
z
" transform="scale(0.015625)"/>
       <path id="DejaVuSans-6b" d="M 581 4863 
L 1159 4863 
L 1159 1991 
L 2875 3500 
L 3609 3500 
L 1753 1863 
L 3688 0 
L 2938 0 
L 1159 1709 
L 1159 0 
L 581 0 
L 581 4863 
z
" transform="scale(0.015625)"/>
      </defs>
      <use xlink:href="#DejaVuSans-62"/>
      <use xlink:href="#DejaVuSans-65" x="63.476562"/>
      <use xlink:href="#DejaVuSans-6e" x="125"/>
      <use xlink:href="#DejaVuSans-63" x="188.378906"/>
      <use xlink:href="#DejaVuSans-68" x="243.359375"/>
      <use xlink:href="#DejaVuSans-6d" x="306.738281"/>
      <use xlink:href="#DejaVuSans-61" x="404.150391"/>
      <use xlink:href="#DejaVuSans-72" x="465.429688"/>
      <use xlink:href="#DejaVuSans-6b" x="506.542969"/>
      <use xlink:href="#DejaVuSans-20" x="564.453125"/>
      <use xlink:href="#DejaVuSans-43" x="596.240234"/>
      <use xlink:href="#DejaVuSans-6c" x="666.064453"/>
     </g>
    </g>
    <g id="line2d_32">
     <path d="M 71.3 69.632563 
L 81.3 69.632563 
L 91.3 69.632563 
" style="fill: none; stroke: #ffa500; stroke-width: 1.5; stroke-linecap: square"/>
    </g>
    <g id="text_19">
     <!-- Predicted Cl -->
     <g transform="translate(99.3 73.132563) scale(0.1 -0.1)">
      <defs>
       <path id="DejaVuSans-50" d="M 1259 4147 
L 1259 2394 
L 2053 2394 
Q 2494 2394 2734 2622 
Q 2975 2850 2975 3272 
Q 2975 3691 2734 3919 
Q 2494 4147 2053 4147 
L 1259 4147 
z
M 628 4666 
L 2053 4666 
Q 2838 4666 3239 4311 
Q 3641 3956 3641 3272 
Q 3641 2581 3239 2228 
Q 2838 1875 2053 1875 
L 1259 1875 
L 1259 0 
L 628 0 
L 628 4666 
z
" transform="scale(0.015625)"/>
       <path id="DejaVuSans-64" d="M 2906 2969 
L 2906 4863 
L 3481 4863 
L 3481 0 
L 2906 0 
L 2906 525 
Q 2725 213 2448 61 
Q 2172 -91 1784 -91 
Q 1150 -91 751 415 
Q 353 922 353 1747 
Q 353 2572 751 3078 
Q 1150 3584 1784 3584 
Q 2172 3584 2448 3432 
Q 2725 3281 2906 2969 
z
M 947 1747 
Q 947 1113 1208 752 
Q 1469 391 1925 391 
Q 2381 391 2643 752 
Q 2906 1113 2906 1747 
Q 2906 2381 2643 2742 
Q 2381 3103 1925 3103 
Q 1469 3103 1208 2742 
Q 947 2381 947 1747 
z
" transform="scale(0.015625)"/>
       <path id="DejaVuSans-69" d="M 603 3500 
L 1178 3500 
L 1178 0 
L 603 0 
L 603 3500 
z
M 603 4863 
L 1178 4863 
L 1178 4134 
L 603 4134 
L 603 4863 
z
" transform="scale(0.015625)"/>
       <path id="DejaVuSans-74" d="M 1172 4494 
L 1172 3500 
L 2356 3500 
L 2356 3053 
L 1172 3053 
L 1172 1153 
Q 1172 725 1289 603 
Q 1406 481 1766 481 
L 2356 481 
L 2356 0 
L 1766 0 
Q 1100 0 847 248 
Q 594 497 594 1153 
L 594 3053 
L 172 3053 
L 172 3500 
L 594 3500 
L 594 4494 
L 1172 4494 
z
" transform="scale(0.015625)"/>
      </defs>
      <use xlink:href="#DejaVuSans-50"/>
      <use xlink:href="#DejaVuSans-72" x="58.552734"/>
      <use xlink:href="#DejaVuSans-65" x="97.416016"/>
      <use xlink:href="#DejaVuSans-64" x="158.939453"/>
      <use xlink:href="#DejaVuSans-69" x="222.416016"/>
      <use xlink:href="#DejaVuSans-63" x="250.199219"/>
      <use xlink:href="#DejaVuSans-74" x="305.179688"/>
      <use xlink:href="#DejaVuSans-65" x="344.388672"/>
      <use xlink:href="#DejaVuSans-64" x="405.912109"/>
      <use xlink:href="#DejaVuSans-20" x="469.388672"/>
      <use xlink:href="#DejaVuSans-43" x="501.175781"/>
      <use xlink:href="#DejaVuSans-6c" x="571"/>
     </g>
    </g>
   </g>
  </g>
  <g id="axes_2">
   <g id="patch_8">
    <path d="M 592.76 318.04 
L 1069.2 318.04 
L 1069.2 41.856 
L 592.76 41.856 
z
" style="fill: #ffffff"/>
   </g>
   <g id="matplotlib.axis_3">
    <g id="xtick_7">
     <g id="line2d_33">
      <path d="M 669.045029 318.04 
L 669.045029 41.856 
" clip-path="url(#p3bd6cfdc98)" style="fill: none; stroke: #b0b0b0; stroke-width: 0.8; stroke-linecap: square"/>
     </g>
     <g id="line2d_34">
      <g>
       <use xlink:href="#m457fad2ba7" x="669.045029" y="318.04" style="stroke: #000000; stroke-width: 0.8"/>
      </g>
     </g>
     <g id="text_20">
      <!-- −5 -->
      <g transform="translate(661.673935 332.638438) scale(0.1 -0.1)">
       <use xlink:href="#DejaVuSans-2212"/>
       <use xlink:href="#DejaVuSans-35" x="83.789062"/>
      </g>
     </g>
    </g>
    <g id="xtick_8">
     <g id="line2d_35">
      <path d="M 747.085979 318.04 
L 747.085979 41.856 
" clip-path="url(#p3bd6cfdc98)" style="fill: none; stroke: #b0b0b0; stroke-width: 0.8; stroke-linecap: square"/>
     </g>
     <g id="line2d_36">
      <g>
       <use xlink:href="#m457fad2ba7" x="747.085979" y="318.04" style="stroke: #000000; stroke-width: 0.8"/>
      </g>
     </g>
     <g id="text_21">
      <!-- 0 -->
      <g transform="translate(743.904729 332.638438) scale(0.1 -0.1)">
       <use xlink:href="#DejaVuSans-30"/>
      </g>
     </g>
    </g>
    <g id="xtick_9">
     <g id="line2d_37">
      <path d="M 825.126929 318.04 
L 825.126929 41.856 
" clip-path="url(#p3bd6cfdc98)" style="fill: none; stroke: #b0b0b0; stroke-width: 0.8; stroke-linecap: square"/>
     </g>
     <g id="line2d_38">
      <g>
       <use xlink:href="#m457fad2ba7" x="825.126929" y="318.04" style="stroke: #000000; stroke-width: 0.8"/>
      </g>
     </g>
     <g id="text_22">
      <!-- 5 -->
      <g transform="translate(821.945679 332.638438) scale(0.1 -0.1)">
       <use xlink:href="#DejaVuSans-35"/>
      </g>
     </g>
    </g>
    <g id="xtick_10">
     <g id="line2d_39">
      <path d="M 903.167879 318.04 
L 903.167879 41.856 
" clip-path="url(#p3bd6cfdc98)" style="fill: none; stroke: #b0b0b0; stroke-width: 0.8; stroke-linecap: square"/>
     </g>
     <g id="line2d_40">
      <g>
       <use xlink:href="#m457fad2ba7" x="903.167879" y="318.04" style="stroke: #000000; stroke-width: 0.8"/>
      </g>
     </g>
     <g id="text_23">
      <!-- 10 -->
      <g transform="translate(896.805379 332.638438) scale(0.1 -0.1)">
       <use xlink:href="#DejaVuSans-31"/>
       <use xlink:href="#DejaVuSans-30" x="63.623047"/>
      </g>
     </g>
    </g>
    <g id="xtick_11">
     <g id="line2d_41">
      <path d="M 981.208829 318.04 
L 981.208829 41.856 
" clip-path="url(#p3bd6cfdc98)" style="fill: none; stroke: #b0b0b0; stroke-width: 0.8; stroke-linecap: square"/>
     </g>
     <g id="line2d_42">
      <g>
       <use xlink:href="#m457fad2ba7" x="981.208829" y="318.04" style="stroke: #000000; stroke-width: 0.8"/>
      </g>
     </g>
     <g id="text_24">
      <!-- 15 -->
      <g transform="translate(974.846329 332.638438) scale(0.1 -0.1)">
       <use xlink:href="#DejaVuSans-31"/>
       <use xlink:href="#DejaVuSans-35" x="63.623047"/>
      </g>
     </g>
    </g>
    <g id="xtick_12">
     <g id="line2d_43">
      <path d="M 1059.249779 318.04 
L 1059.249779 41.856 
" clip-path="url(#p3bd6cfdc98)" style="fill: none; stroke: #b0b0b0; stroke-width: 0.8; stroke-linecap: square"/>
     </g>
     <g id="line2d_44">
      <g>
       <use xlink:href="#m457fad2ba7" x="1059.249779" y="318.04" style="stroke: #000000; stroke-width: 0.8"/>
      </g>
     </g>
     <g id="text_25">
      <!-- 20 -->
      <g transform="translate(1052.887279 332.638438) scale(0.1 -0.1)">
       <use xlink:href="#DejaVuSans-32"/>
       <use xlink:href="#DejaVuSans-30" x="63.623047"/>
      </g>
     </g>
    </g>
    <g id="text_26">
     <!-- Alpha -->
     <g transform="translate(816.763594 346.316563) scale(0.1 -0.1)">
      <use xlink:href="#DejaVuSans-41"/>
      <use xlink:href="#DejaVuSans-6c" x="68.408203"/>
      <use xlink:href="#DejaVuSans-70" x="96.191406"/>
      <use xlink:href="#DejaVuSans-68" x="159.667969"/>
      <use xlink:href="#DejaVuSans-61" x="223.046875"/>
     </g>
    </g>
   </g>
   <g id="matplotlib.axis_4">
    <g id="ytick_9">
     <g id="line2d_45">
      <path d="M 592.76 279.249524 
L 1069.2 279.249524 
" clip-path="url(#p3bd6cfdc98)" style="fill: none; stroke: #b0b0b0; stroke-width: 0.8; stroke-linecap: square"/>
     </g>
     <g id="line2d_46">
      <g>
       <use xlink:href="#md04fa6f82c" x="592.76" y="279.249524" style="stroke: #000000; stroke-width: 0.8"/>
      </g>
     </g>
     <g id="text_27">
      <!-- 0.02 -->
      <g transform="translate(563.494375 283.048743) scale(0.1 -0.1)">
       <use xlink:href="#DejaVuSans-30"/>
       <use xlink:href="#DejaVuSans-2e" x="63.623047"/>
       <use xlink:href="#DejaVuSans-30" x="95.410156"/>
       <use xlink:href="#DejaVuSans-32" x="159.033203"/>
      </g>
     </g>
    </g>
    <g id="ytick_10">
     <g id="line2d_47">
      <path d="M 592.76 234.254586 
L 1069.2 234.254586 
" clip-path="url(#p3bd6cfdc98)" style="fill: none; stroke: #b0b0b0; stroke-width: 0.8; stroke-linecap: square"/>
     </g>
     <g id="line2d_48">
      <g>
       <use xlink:href="#md04fa6f82c" x="592.76" y="234.254586" style="stroke: #000000; stroke-width: 0.8"/>
      </g>
     </g>
     <g id="text_28">
      <!-- 0.04 -->
      <g transform="translate(563.494375 238.053804) scale(0.1 -0.1)">
       <defs>
        <path id="DejaVuSans-34" d="M 2419 4116 
L 825 1625 
L 2419 1625 
L 2419 4116 
z
M 2253 4666 
L 3047 4666 
L 3047 1625 
L 3713 1625 
L 3713 1100 
L 3047 1100 
L 3047 0 
L 2419 0 
L 2419 1100 
L 313 1100 
L 313 1709 
L 2253 4666 
z
" transform="scale(0.015625)"/>
       </defs>
       <use xlink:href="#DejaVuSans-30"/>
       <use xlink:href="#DejaVuSans-2e" x="63.623047"/>
       <use xlink:href="#DejaVuSans-30" x="95.410156"/>
       <use xlink:href="#DejaVuSans-34" x="159.033203"/>
      </g>
     </g>
    </g>
    <g id="ytick_11">
     <g id="line2d_49">
      <path d="M 592.76 189.259648 
L 1069.2 189.259648 
" clip-path="url(#p3bd6cfdc98)" style="fill: none; stroke: #b0b0b0; stroke-width: 0.8; stroke-linecap: square"/>
     </g>
     <g id="line2d_50">
      <g>
       <use xlink:href="#md04fa6f82c" x="592.76" y="189.259648" style="stroke: #000000; stroke-width: 0.8"/>
      </g>
     </g>
     <g id="text_29">
      <!-- 0.06 -->
      <g transform="translate(563.494375 193.058866) scale(0.1 -0.1)">
       <defs>
        <path id="DejaVuSans-36" d="M 2113 2584 
Q 1688 2584 1439 2293 
Q 1191 2003 1191 1497 
Q 1191 994 1439 701 
Q 1688 409 2113 409 
Q 2538 409 2786 701 
Q 3034 994 3034 1497 
Q 3034 2003 2786 2293 
Q 2538 2584 2113 2584 
z
M 3366 4563 
L 3366 3988 
Q 3128 4100 2886 4159 
Q 2644 4219 2406 4219 
Q 1781 4219 1451 3797 
Q 1122 3375 1075 2522 
Q 1259 2794 1537 2939 
Q 1816 3084 2150 3084 
Q 2853 3084 3261 2657 
Q 3669 2231 3669 1497 
Q 3669 778 3244 343 
Q 2819 -91 2113 -91 
Q 1303 -91 875 529 
Q 447 1150 447 2328 
Q 447 3434 972 4092 
Q 1497 4750 2381 4750 
Q 2619 4750 2861 4703 
Q 3103 4656 3366 4563 
z
" transform="scale(0.015625)"/>
       </defs>
       <use xlink:href="#DejaVuSans-30"/>
       <use xlink:href="#DejaVuSans-2e" x="63.623047"/>
       <use xlink:href="#DejaVuSans-30" x="95.410156"/>
       <use xlink:href="#DejaVuSans-36" x="159.033203"/>
      </g>
     </g>
    </g>
    <g id="ytick_12">
     <g id="line2d_51">
      <path d="M 592.76 144.26471 
L 1069.2 144.26471 
" clip-path="url(#p3bd6cfdc98)" style="fill: none; stroke: #b0b0b0; stroke-width: 0.8; stroke-linecap: square"/>
     </g>
     <g id="line2d_52">
      <g>
       <use xlink:href="#md04fa6f82c" x="592.76" y="144.26471" style="stroke: #000000; stroke-width: 0.8"/>
      </g>
     </g>
     <g id="text_30">
      <!-- 0.08 -->
      <g transform="translate(563.494375 148.063928) scale(0.1 -0.1)">
       <defs>
        <path id="DejaVuSans-38" d="M 2034 2216 
Q 1584 2216 1326 1975 
Q 1069 1734 1069 1313 
Q 1069 891 1326 650 
Q 1584 409 2034 409 
Q 2484 409 2743 651 
Q 3003 894 3003 1313 
Q 3003 1734 2745 1975 
Q 2488 2216 2034 2216 
z
M 1403 2484 
Q 997 2584 770 2862 
Q 544 3141 544 3541 
Q 544 4100 942 4425 
Q 1341 4750 2034 4750 
Q 2731 4750 3128 4425 
Q 3525 4100 3525 3541 
Q 3525 3141 3298 2862 
Q 3072 2584 2669 2484 
Q 3125 2378 3379 2068 
Q 3634 1759 3634 1313 
Q 3634 634 3220 271 
Q 2806 -91 2034 -91 
Q 1263 -91 848 271 
Q 434 634 434 1313 
Q 434 1759 690 2068 
Q 947 2378 1403 2484 
z
M 1172 3481 
Q 1172 3119 1398 2916 
Q 1625 2713 2034 2713 
Q 2441 2713 2670 2916 
Q 2900 3119 2900 3481 
Q 2900 3844 2670 4047 
Q 2441 4250 2034 4250 
Q 1625 4250 1398 4047 
Q 1172 3844 1172 3481 
z
" transform="scale(0.015625)"/>
       </defs>
       <use xlink:href="#DejaVuSans-30"/>
       <use xlink:href="#DejaVuSans-2e" x="63.623047"/>
       <use xlink:href="#DejaVuSans-30" x="95.410156"/>
       <use xlink:href="#DejaVuSans-38" x="159.033203"/>
      </g>
     </g>
    </g>
    <g id="ytick_13">
     <g id="line2d_53">
      <path d="M 592.76 99.269771 
L 1069.2 99.269771 
" clip-path="url(#p3bd6cfdc98)" style="fill: none; stroke: #b0b0b0; stroke-width: 0.8; stroke-linecap: square"/>
     </g>
     <g id="line2d_54">
      <g>
       <use xlink:href="#md04fa6f82c" x="592.76" y="99.269771" style="stroke: #000000; stroke-width: 0.8"/>
      </g>
     </g>
     <g id="text_31">
      <!-- 0.10 -->
      <g transform="translate(563.494375 103.06899) scale(0.1 -0.1)">
       <use xlink:href="#DejaVuSans-30"/>
       <use xlink:href="#DejaVuSans-2e" x="63.623047"/>
       <use xlink:href="#DejaVuSans-31" x="95.410156"/>
       <use xlink:href="#DejaVuSans-30" x="159.033203"/>
      </g>
     </g>
    </g>
    <g id="ytick_14">
     <g id="line2d_55">
      <path d="M 592.76 54.274833 
L 1069.2 54.274833 
" clip-path="url(#p3bd6cfdc98)" style="fill: none; stroke: #b0b0b0; stroke-width: 0.8; stroke-linecap: square"/>
     </g>
     <g id="line2d_56">
      <g>
       <use xlink:href="#md04fa6f82c" x="592.76" y="54.274833" style="stroke: #000000; stroke-width: 0.8"/>
      </g>
     </g>
     <g id="text_32">
      <!-- 0.12 -->
      <g transform="translate(563.494375 58.074052) scale(0.1 -0.1)">
       <use xlink:href="#DejaVuSans-30"/>
       <use xlink:href="#DejaVuSans-2e" x="63.623047"/>
       <use xlink:href="#DejaVuSans-31" x="95.410156"/>
       <use xlink:href="#DejaVuSans-32" x="159.033203"/>
      </g>
     </g>
    </g>
    <g id="text_33">
     <!-- Cd -->
     <g transform="translate(557.414688 186.613625) rotate(-90) scale(0.1 -0.1)">
      <use xlink:href="#DejaVuSans-43"/>
      <use xlink:href="#DejaVuSans-64" x="69.824219"/>
     </g>
    </g>
   </g>
   <g id="line2d_57">
    <path d="M 614.416364 121.339789 
L 618.318411 125.006876 
L 622.220459 142.239937 
L 626.122506 155.558439 
L 630.024554 159.900451 
L 633.926601 219.473749 
L 637.828649 232.61227 
L 641.730696 245.525818 
L 645.632744 254.592298 
L 649.534791 260.666614 
L 653.436839 265.976017 
L 657.338886 267.955794 
L 661.240934 270.767978 
L 665.142981 274.84002 
L 669.045029 276.459838 
L 672.947076 278.12465 
L 676.849124 280.306905 
L 680.751171 282.466662 
L 684.653219 284.131475 
L 688.555266 285.548815 
L 692.457314 286.921161 
L 696.359361 288.473486 
L 700.261409 289.553365 
L 704.163456 290.993203 
L 708.065504 292.61302 
L 711.967551 293.557914 
L 715.869599 295.177732 
L 719.771646 296.235113 
L 723.673694 298.147398 
L 727.575741 299.767216 
L 731.477789 300.35215 
L 735.379836 300.44214 
L 739.281884 300.712109 
L 743.183931 300.824597 
L 747.085979 300.982079 
L 750.988026 300.982079 
L 754.890074 300.959581 
L 758.792121 300.937084 
L 762.694169 300.914586 
L 766.596216 300.802099 
L 770.498264 300.689612 
L 774.400311 300.532129 
L 778.302359 300.374647 
L 782.204406 300.194667 
L 786.106454 299.99219 
L 790.008501 299.722221 
L 793.910549 299.452251 
L 797.812596 299.114789 
L 801.714644 298.754829 
L 805.616691 298.372372 
L 809.518739 297.922423 
L 813.420786 297.427479 
L 817.322834 296.842545 
L 821.224881 296.190118 
L 825.126929 295.537691 
L 829.028976 294.817772 
L 832.931024 294.030361 
L 836.833071 293.220452 
L 840.735119 292.410543 
L 844.637166 291.600634 
L 848.539214 290.790725 
L 852.441261 290.003314 
L 856.343309 289.215903 
L 860.245356 288.360999 
L 868.049451 286.696186 
L 871.951499 285.841282 
L 875.853546 284.896389 
L 879.755594 284.108977 
L 883.657641 283.276571 
L 887.559689 282.376672 
L 891.461736 281.409281 
L 895.363784 280.329402 
L 899.265831 278.844569 
L 903.167879 276.842295 
L 907.069926 273.895126 
L 910.971974 270.677988 
L 914.874021 267.415855 
L 918.776069 264.513682 
L 922.678116 261.004076 
L 926.580164 258.101903 
L 930.482211 254.434815 
L 934.384259 251.172682 
L 938.286306 248.068032 
L 942.188354 244.468437 
L 946.090401 240.846344 
L 949.992449 237.539216 
L 953.894496 233.984616 
L 957.796544 230.295031 
L 961.698591 226.425466 
L 965.600639 222.285932 
L 969.502686 218.1239 
L 973.404734 214.074356 
L 977.306781 209.32739 
L 981.208829 203.972992 
L 985.110876 198.641092 
L 989.012924 193.646654 
L 992.914971 188.449739 
L 996.817019 181.273046 
L 1000.719066 174.096353 
L 1004.621114 167.077143 
L 1008.523161 161.025324 
L 1012.425209 154.321078 
L 1016.327256 144.534679 
L 1020.229304 134.410818 
L 1024.131351 124.354449 
L 1028.033399 115.040497 
L 1031.935446 107.346363 
L 1035.837494 100.304655 
L 1039.739541 85.996265 
L 1043.641589 70.405519 
L 1047.543636 54.409818 
" clip-path="url(#p3bd6cfdc98)" style="fill: none; stroke: #0000ff; stroke-width: 1.5; stroke-linecap: square"/>
   </g>
   <g id="line2d_58">
    <path d="M 700.261409 300.817444 
L 703.099261 301.438266 
L 705.937114 301.962183 
L 708.774967 302.396597 
L 711.61282 302.759996 
L 714.450672 303.074956 
L 717.288525 303.367555 
L 720.126378 303.663698 
L 722.964231 303.990419 
L 725.802083 304.392808 
L 728.639936 304.943638 
L 731.477789 305.486182 
L 734.315641 305.474574 
L 737.153494 304.940849 
L 739.991347 304.460968 
L 742.8292 304.162168 
L 745.667052 303.829834 
L 748.504905 303.457109 
L 751.342758 303.032455 
L 754.180611 302.540157 
L 757.018463 301.957827 
L 759.856316 301.264367 
L 762.694169 300.658663 
L 765.532021 300.163863 
L 768.369874 299.618722 
L 771.207727 299.030624 
L 774.04558 298.411015 
L 776.883432 297.778181 
L 779.721285 297.145192 
L 782.559138 296.530107 
L 785.396991 296.028727 
L 788.234843 295.648334 
L 791.072696 295.308379 
L 793.910549 295.01436 
L 796.748401 294.768455 
L 799.586254 294.577891 
L 802.424107 294.448939 
L 805.26196 294.390364 
L 808.099812 294.404939 
L 810.937665 294.492153 
L 813.775518 294.645072 
L 816.613371 294.845224 
L 819.451223 295.081414 
L 822.289076 295.341233 
L 825.126929 295.607083 
L 827.964781 295.85945 
L 830.802634 296.073873 
L 833.640487 296.222748 
L 836.47834 296.287843 
L 839.316192 296.253848 
L 842.154045 296.117222 
L 844.991898 295.862484 
L 847.829751 295.489293 
L 850.667603 295.004347 
L 853.505456 294.469001 
L 856.343309 293.903894 
L 859.181161 293.277608 
L 862.019014 292.60733 
L 864.856867 291.909602 
L 867.69472 291.189837 
L 870.532572 290.456585 
L 873.370425 289.715503 
L 876.208278 288.967018 
L 879.046131 288.210288 
L 881.883983 287.44136 
L 884.721836 286.671175 
L 887.559689 285.871782 
L 890.397542 285.029349 
L 893.235394 284.116948 
L 896.073247 283.082528 
L 898.9111 281.88333 
L 901.748952 280.49411 
L 904.586805 278.883004 
L 907.424658 277.092802 
L 910.262511 275.160852 
L 913.100363 273.128897 
L 915.938216 271.036909 
L 918.776069 268.900204 
L 921.613922 266.699405 
L 924.451774 264.480236 
L 927.289627 262.245528 
L 930.12748 259.996779 
L 932.965332 257.736094 
L 935.803185 255.469329 
L 938.641038 253.217843 
L 941.478891 250.992413 
L 944.316743 248.744489 
L 947.154596 246.54861 
L 949.992449 244.407551 
L 952.830302 242.323005 
L 955.668154 240.266259 
L 958.506007 238.287606 
L 961.34386 236.337843 
L 964.181712 234.452957 
L 967.019565 232.626704 
L 969.857418 230.857927 
L 972.695271 229.107857 
L 975.533123 227.417736 
L 978.370976 225.784622 
L 981.208829 224.173206 
" clip-path="url(#p3bd6cfdc98)" style="fill: none; stroke: #ffa500; stroke-width: 1.5; stroke-linecap: square"/>
   </g>
   <g id="patch_9">
    <path d="M 592.76 318.04 
L 592.76 41.856 
" style="fill: none; stroke: #000000; stroke-width: 0.8; stroke-linejoin: miter; stroke-linecap: square"/>
   </g>
   <g id="patch_10">
    <path d="M 1069.2 318.04 
L 1069.2 41.856 
" style="fill: none; stroke: #000000; stroke-width: 0.8; stroke-linejoin: miter; stroke-linecap: square"/>
   </g>
   <g id="patch_11">
    <path d="M 592.76 318.04 
L 1069.2 318.04 
" style="fill: none; stroke: #000000; stroke-width: 0.8; stroke-linejoin: miter; stroke-linecap: square"/>
   </g>
   <g id="patch_12">
    <path d="M 592.76 41.856 
L 1069.2 41.856 
" style="fill: none; stroke: #000000; stroke-width: 0.8; stroke-linejoin: miter; stroke-linecap: square"/>
   </g>
   <g id="text_34">
    <!-- Re = 200000 Mach = 0.00  -->
    <g transform="translate(749.6725 22.418625) scale(0.12 -0.12)">
     <use xlink:href="#DejaVuSans-52"/>
     <use xlink:href="#DejaVuSans-65" x="64.982422"/>
     <use xlink:href="#DejaVuSans-20" x="126.505859"/>
     <use xlink:href="#DejaVuSans-3d" x="158.292969"/>
     <use xlink:href="#DejaVuSans-20" x="242.082031"/>
     <use xlink:href="#DejaVuSans-32" x="273.869141"/>
     <use xlink:href="#DejaVuSans-30" x="337.492188"/>
     <use xlink:href="#DejaVuSans-30" x="401.115234"/>
     <use xlink:href="#DejaVuSans-30" x="464.738281"/>
     <use xlink:href="#DejaVuSans-30" x="528.361328"/>
     <use xlink:href="#DejaVuSans-30" x="591.984375"/>
     <use xlink:href="#DejaVuSans-20" x="655.607422"/>
     <use xlink:href="#DejaVuSans-4d" x="687.394531"/>
     <use xlink:href="#DejaVuSans-61" x="773.673828"/>
     <use xlink:href="#DejaVuSans-63" x="834.953125"/>
     <use xlink:href="#DejaVuSans-68" x="889.933594"/>
     <use xlink:href="#DejaVuSans-20" x="953.3125"/>
     <use xlink:href="#DejaVuSans-3d" x="985.099609"/>
     <use xlink:href="#DejaVuSans-20" x="1068.888672"/>
     <use xlink:href="#DejaVuSans-30" x="1100.675781"/>
     <use xlink:href="#DejaVuSans-2e" x="1164.298828"/>
     <use xlink:href="#DejaVuSans-30" x="1196.085938"/>
     <use xlink:href="#DejaVuSans-30" x="1259.708984"/>
     <use xlink:href="#DejaVuSans-20" x="1323.332031"/>
    </g>
    <!--  Cd vs Alpha -->
    <g transform="translate(793.524063 35.856) scale(0.12 -0.12)">
     <use xlink:href="#DejaVuSans-20"/>
     <use xlink:href="#DejaVuSans-43" x="31.787109"/>
     <use xlink:href="#DejaVuSans-64" x="101.611328"/>
     <use xlink:href="#DejaVuSans-20" x="165.087891"/>
     <use xlink:href="#DejaVuSans-76" x="196.875"/>
     <use xlink:href="#DejaVuSans-73" x="256.054688"/>
     <use xlink:href="#DejaVuSans-20" x="308.154297"/>
     <use xlink:href="#DejaVuSans-41" x="339.941406"/>
     <use xlink:href="#DejaVuSans-6c" x="408.349609"/>
     <use xlink:href="#DejaVuSans-70" x="436.132812"/>
     <use xlink:href="#DejaVuSans-68" x="499.609375"/>
     <use xlink:href="#DejaVuSans-61" x="562.988281"/>
    </g>
   </g>
   <g id="legend_2">
    <g id="patch_13">
     <path d="M 599.76 79.21225 
L 704.714688 79.21225 
Q 706.714688 79.21225 706.714688 77.21225 
L 706.714688 48.856 
Q 706.714688 46.856 704.714688 46.856 
L 599.76 46.856 
Q 597.76 46.856 597.76 48.856 
L 597.76 77.21225 
Q 597.76 79.21225 599.76 79.21225 
z
" style="fill: #ffffff; opacity: 0.8; stroke: #cccccc; stroke-linejoin: miter"/>
    </g>
    <g id="line2d_59">
     <path d="M 601.76 54.954438 
L 611.76 54.954438 
L 621.76 54.954438 
" style="fill: none; stroke: #0000ff; stroke-width: 1.5; stroke-linecap: square"/>
    </g>
    <g id="text_35">
     <!-- benchmark Cd -->
     <g transform="translate(629.76 58.454438) scale(0.1 -0.1)">
      <use xlink:href="#DejaVuSans-62"/>
      <use xlink:href="#DejaVuSans-65" x="63.476562"/>
      <use xlink:href="#DejaVuSans-6e" x="125"/>
      <use xlink:href="#DejaVuSans-63" x="188.378906"/>
      <use xlink:href="#DejaVuSans-68" x="243.359375"/>
      <use xlink:href="#DejaVuSans-6d" x="306.738281"/>
      <use xlink:href="#DejaVuSans-61" x="404.150391"/>
      <use xlink:href="#DejaVuSans-72" x="465.429688"/>
      <use xlink:href="#DejaVuSans-6b" x="506.542969"/>
      <use xlink:href="#DejaVuSans-20" x="564.453125"/>
      <use xlink:href="#DejaVuSans-43" x="596.240234"/>
      <use xlink:href="#DejaVuSans-64" x="666.064453"/>
     </g>
    </g>
    <g id="line2d_60">
     <path d="M 601.76 69.632563 
L 611.76 69.632563 
L 621.76 69.632563 
" style="fill: none; stroke: #ffa500; stroke-width: 1.5; stroke-linecap: square"/>
    </g>
    <g id="text_36">
     <!-- Predicted Cd -->
     <g transform="translate(629.76 73.132563) scale(0.1 -0.1)">
      <use xlink:href="#DejaVuSans-50"/>
      <use xlink:href="#DejaVuSans-72" x="58.552734"/>
      <use xlink:href="#DejaVuSans-65" x="97.416016"/>
      <use xlink:href="#DejaVuSans-64" x="158.939453"/>
      <use xlink:href="#DejaVuSans-69" x="222.416016"/>
      <use xlink:href="#DejaVuSans-63" x="250.199219"/>
      <use xlink:href="#DejaVuSans-74" x="305.179688"/>
      <use xlink:href="#DejaVuSans-65" x="344.388672"/>
      <use xlink:href="#DejaVuSans-64" x="405.912109"/>
      <use xlink:href="#DejaVuSans-20" x="469.388672"/>
      <use xlink:href="#DejaVuSans-43" x="501.175781"/>
      <use xlink:href="#DejaVuSans-64" x="571"/>
     </g>
    </g>
   </g>
  </g>
 </g>
 <defs>
  <clipPath id="p7e216b0181">
   <rect x="62.3" y="41.856" width="476.44" height="276.184"/>
  </clipPath>
  <clipPath id="p3bd6cfdc98">
   <rect x="592.76" y="41.856" width="476.44" height="276.184"/>
  </clipPath>
 </defs>
</svg>
