<?xml version="1.0" encoding="utf-8" standalone="no"?>
<!DOCTYPE svg PUBLIC "-//W3C//DTD SVG 1.1//EN"
  "http://www.w3.org/Graphics/SVG/1.1/DTD/svg11.dtd">
<svg xmlns:xlink="http://www.w3.org/1999/xlink" width="1080pt" height="360pt" viewBox="0 0 1080 360" xmlns="http://www.w3.org/2000/svg" version="1.1">
 <metadata>
  <rdf:RDF xmlns:dc="http://purl.org/dc/elements/1.1/" xmlns:cc="http://creativecommons.org/ns#" xmlns:rdf="http://www.w3.org/1999/02/22-rdf-syntax-ns#">
   <cc:Work>
    <dc:type rdf:resource="http://purl.org/dc/dcmitype/StillImage"/>
    <dc:date>2024-08-23T19:03:06.775503</dc:date>
    <dc:format>image/svg+xml</dc:format>
    <dc:creator>
     <cc:Agent>
      <dc:title>Matplotlib v3.7.5, https://matplotlib.org/</dc:title>
     </cc:Agent>
    </dc:creator>
   </cc:Work>
  </rdf:RDF>
 </metadata>
 <defs>
  <style type="text/css">*{stroke-linejoin: round; stroke-linecap: butt}</style>
 </defs>
 <g id="figure_1">
  <g id="patch_1">
   <path d="M 0 360 
L 1080 360 
L 1080 0 
L 0 0 
z
" style="fill: #ffffff"/>
  </g>
  <g id="axes_1">
   <g id="patch_2">
    <path d="M 47.72 318.04 
L 346.62 318.04 
L 346.62 41.856 
L 47.72 41.856 
z
" style="fill: #ffffff"/>
   </g>
   <g id="PathCollection_1">
    <defs>
     <path id="mfef3153168" d="M 0 3 
C 0.795609 3 1.55874 2.683901 2.12132 2.12132 
C 2.683901 1.55874 3 0.795609 3 0 
C 3 -0.795609 2.683901 -1.55874 2.12132 -2.12132 
C 1.55874 -2.683901 0.795609 -3 0 -3 
C -0.795609 -3 -1.55874 -2.683901 -2.12132 -2.12132 
C -2.683901 -1.55874 -3 -0.795609 -3 0 
C -3 0.795609 -2.683901 1.55874 -2.12132 2.12132 
C -1.55874 2.683901 -0.795609 3 0 3 
z
" style="stroke: #ffa500"/>
    </defs>
    <g clip-path="url(#pccc7c85f79)">
     <use xlink:href="#mfef3153168" x="99.61153" y="233.80939" style="fill: #ffa500; stroke: #ffa500"/>
     <use xlink:href="#mfef3153168" x="103.202639" y="226.925365" style="fill: #ffa500; stroke: #ffa500"/>
     <use xlink:href="#mfef3153168" x="110.384858" y="213.723126" style="fill: #ffa500; stroke: #ffa500"/>
     <use xlink:href="#mfef3153168" x="113.975967" y="206.688219" style="fill: #ffa500; stroke: #ffa500"/>
     <use xlink:href="#mfef3153168" x="117.567076" y="199.464708" style="fill: #ffa500; stroke: #ffa500"/>
     <use xlink:href="#mfef3153168" x="121.158186" y="192.165755" style="fill: #ffa500; stroke: #ffa500"/>
     <use xlink:href="#mfef3153168" x="124.749295" y="185.187429" style="fill: #ffa500; stroke: #ffa500"/>
     <use xlink:href="#mfef3153168" x="128.340404" y="178.492007" style="fill: #ffa500; stroke: #ffa500"/>
     <use xlink:href="#mfef3153168" x="131.931514" y="172.645301" style="fill: #ffa500; stroke: #ffa500"/>
     <use xlink:href="#mfef3153168" x="139.113732" y="132.585935" style="fill: #ffa500; stroke: #ffa500"/>
     <use xlink:href="#mfef3153168" x="142.704842" y="125.965955" style="fill: #ffa500; stroke: #ffa500"/>
     <use xlink:href="#mfef3153168" x="146.295951" y="119.081931" style="fill: #ffa500; stroke: #ffa500"/>
     <use xlink:href="#mfef3153168" x="149.88706" y="111.915001" style="fill: #ffa500; stroke: #ffa500"/>
     <use xlink:href="#mfef3153168" x="157.069279" y="97.090772" style="fill: #ffa500; stroke: #ffa500"/>
     <use xlink:href="#mfef3153168" x="167.842607" y="89.131708" style="fill: #ffa500; stroke: #ffa500"/>
     <use xlink:href="#mfef3153168" x="171.433716" y="82.907795" style="fill: #ffa500; stroke: #ffa500"/>
     <use xlink:href="#mfef3153168" x="175.024826" y="76.363256" style="fill: #ffa500; stroke: #ffa500"/>
     <use xlink:href="#mfef3153168" x="178.615935" y="69.818718" style="fill: #ffa500; stroke: #ffa500"/>
     <use xlink:href="#mfef3153168" x="182.207044" y="63.839989" style="fill: #ffa500; stroke: #ffa500"/>
     <use xlink:href="#mfef3153168" x="185.798154" y="59.106043" style="fill: #ffa500; stroke: #ffa500"/>
     <use xlink:href="#mfef3153168" x="189.389263" y="55.748902" style="fill: #ffa500; stroke: #ffa500"/>
     <use xlink:href="#mfef3153168" x="192.980372" y="54.409818" style="fill: #ffa500; stroke: #ffa500"/>
     <use xlink:href="#mfef3153168" x="279.166996" y="151.333115" style="fill: #ffa500; stroke: #ffa500"/>
     <use xlink:href="#mfef3153168" x="293.531434" y="157.12324" style="fill: #ffa500; stroke: #ffa500"/>
     <use xlink:href="#mfef3153168" x="297.122543" y="158.160559" style="fill: #ffa500; stroke: #ffa500"/>
     <use xlink:href="#mfef3153168" x="300.713652" y="158.952693" style="fill: #ffa500; stroke: #ffa500"/>
     <use xlink:href="#mfef3153168" x="318.669199" y="160.668984" style="fill: #ffa500; stroke: #ffa500"/>
     <use xlink:href="#mfef3153168" x="329.442527" y="160.593543" style="fill: #ffa500; stroke: #ffa500"/>
     <use xlink:href="#mfef3153168" x="333.033636" y="160.291778" style="fill: #ffa500; stroke: #ffa500"/>
    </g>
   </g>
   <g id="matplotlib.axis_1">
    <g id="xtick_1">
     <g id="line2d_1">
      <defs>
       <path id="mec4c9475d2" d="M 0 0 
L 0 3.5 
" style="stroke: #000000; stroke-width: 0.8"/>
      </defs>
      <g>
       <use xlink:href="#mec4c9475d2" x="97.217457" y="318.04" style="stroke: #000000; stroke-width: 0.8"/>
      </g>
     </g>
     <g id="text_1">
      <!-- 0 -->
      <g transform="translate(94.036207 332.638438) scale(0.1 -0.1)">
       <defs>
        <path id="DejaVuSans-30" d="M 2034 4250 
Q 1547 4250 1301 3770 
Q 1056 3291 1056 2328 
Q 1056 1369 1301 889 
Q 1547 409 2034 409 
Q 2525 409 2770 889 
Q 3016 1369 3016 2328 
Q 3016 3291 2770 3770 
Q 2525 4250 2034 4250 
z
M 2034 4750 
Q 2819 4750 3233 4129 
Q 3647 3509 3647 2328 
Q 3647 1150 3233 529 
Q 2819 -91 2034 -91 
Q 1250 -91 836 529 
Q 422 1150 422 2328 
Q 422 3509 836 4129 
Q 1250 4750 2034 4750 
z
" transform="scale(0.015625)"/>
       </defs>
       <use xlink:href="#DejaVuSans-30"/>
      </g>
     </g>
    </g>
    <g id="xtick_2">
     <g id="line2d_2">
      <g>
       <use xlink:href="#mec4c9475d2" x="157.069279" y="318.04" style="stroke: #000000; stroke-width: 0.8"/>
      </g>
     </g>
     <g id="text_2">
      <!-- 5 -->
      <g transform="translate(153.888029 332.638438) scale(0.1 -0.1)">
       <defs>
        <path id="DejaVuSans-35" d="M 691 4666 
L 3169 4666 
L 3169 4134 
L 1269 4134 
L 1269 2991 
Q 1406 3038 1543 3061 
Q 1681 3084 1819 3084 
Q 2600 3084 3056 2656 
Q 3513 2228 3513 1497 
Q 3513 744 3044 326 
Q 2575 -91 1722 -91 
Q 1428 -91 1123 -41 
Q 819 9 494 109 
L 494 744 
Q 775 591 1075 516 
Q 1375 441 1709 441 
Q 2250 441 2565 725 
Q 2881 1009 2881 1497 
Q 2881 1984 2565 2268 
Q 2250 2553 1709 2553 
Q 1456 2553 1204 2497 
Q 953 2441 691 2322 
L 691 4666 
z
" transform="scale(0.015625)"/>
       </defs>
       <use xlink:href="#DejaVuSans-35"/>
      </g>
     </g>
    </g>
    <g id="xtick_3">
     <g id="line2d_3">
      <g>
       <use xlink:href="#mec4c9475d2" x="216.921101" y="318.04" style="stroke: #000000; stroke-width: 0.8"/>
      </g>
     </g>
     <g id="text_3">
      <!-- 10 -->
      <g transform="translate(210.558601 332.638438) scale(0.1 -0.1)">
       <defs>
        <path id="DejaVuSans-31" d="M 794 531 
L 1825 531 
L 1825 4091 
L 703 3866 
L 703 4441 
L 1819 4666 
L 2450 4666 
L 2450 531 
L 3481 531 
L 3481 0 
L 794 0 
L 794 531 
z
" transform="scale(0.015625)"/>
       </defs>
       <use xlink:href="#DejaVuSans-31"/>
       <use xlink:href="#DejaVuSans-30" x="63.623047"/>
      </g>
     </g>
    </g>
    <g id="xtick_4">
     <g id="line2d_4">
      <g>
       <use xlink:href="#mec4c9475d2" x="276.772924" y="318.04" style="stroke: #000000; stroke-width: 0.8"/>
      </g>
     </g>
     <g id="text_4">
      <!-- 15 -->
      <g transform="translate(270.410424 332.638438) scale(0.1 -0.1)">
       <use xlink:href="#DejaVuSans-31"/>
       <use xlink:href="#DejaVuSans-35" x="63.623047"/>
      </g>
     </g>
    </g>
    <g id="xtick_5">
     <g id="line2d_5">
      <g>
       <use xlink:href="#mec4c9475d2" x="336.624746" y="318.04" style="stroke: #000000; stroke-width: 0.8"/>
      </g>
     </g>
     <g id="text_5">
      <!-- 20 -->
      <g transform="translate(330.262246 332.638438) scale(0.1 -0.1)">
       <defs>
        <path id="DejaVuSans-32" d="M 1228 531 
L 3431 531 
L 3431 0 
L 469 0 
L 469 531 
Q 828 903 1448 1529 
Q 2069 2156 2228 2338 
Q 2531 2678 2651 2914 
Q 2772 3150 2772 3378 
Q 2772 3750 2511 3984 
Q 2250 4219 1831 4219 
Q 1534 4219 1204 4116 
Q 875 4013 500 3803 
L 500 4441 
Q 881 4594 1212 4672 
Q 1544 4750 1819 4750 
Q 2544 4750 2975 4387 
Q 3406 4025 3406 3419 
Q 3406 3131 3298 2873 
Q 3191 2616 2906 2266 
Q 2828 2175 2409 1742 
Q 1991 1309 1228 531 
z
" transform="scale(0.015625)"/>
       </defs>
       <use xlink:href="#DejaVuSans-32"/>
       <use xlink:href="#DejaVuSans-30" x="63.623047"/>
      </g>
     </g>
    </g>
    <g id="text_6">
     <!-- Alpha -->
     <g transform="translate(182.953594 346.316563) scale(0.1 -0.1)">
      <defs>
       <path id="DejaVuSans-41" d="M 2188 4044 
L 1331 1722 
L 3047 1722 
L 2188 4044 
z
M 1831 4666 
L 2547 4666 
L 4325 0 
L 3669 0 
L 3244 1197 
L 1141 1197 
L 716 0 
L 50 0 
L 1831 4666 
z
" transform="scale(0.015625)"/>
       <path id="DejaVuSans-6c" d="M 603 4863 
L 1178 4863 
L 1178 0 
L 603 0 
L 603 4863 
z
" transform="scale(0.015625)"/>
       <path id="DejaVuSans-70" d="M 1159 525 
L 1159 -1331 
L 581 -1331 
L 581 3500 
L 1159 3500 
L 1159 2969 
Q 1341 3281 1617 3432 
Q 1894 3584 2278 3584 
Q 2916 3584 3314 3078 
Q 3713 2572 3713 1747 
Q 3713 922 3314 415 
Q 2916 -91 2278 -91 
Q 1894 -91 1617 61 
Q 1341 213 1159 525 
z
M 3116 1747 
Q 3116 2381 2855 2742 
Q 2594 3103 2138 3103 
Q 1681 3103 1420 2742 
Q 1159 2381 1159 1747 
Q 1159 1113 1420 752 
Q 1681 391 2138 391 
Q 2594 391 2855 752 
Q 3116 1113 3116 1747 
z
" transform="scale(0.015625)"/>
       <path id="DejaVuSans-68" d="M 3513 2113 
L 3513 0 
L 2938 0 
L 2938 2094 
Q 2938 2591 2744 2837 
Q 2550 3084 2163 3084 
Q 1697 3084 1428 2787 
Q 1159 2491 1159 1978 
L 1159 0 
L 581 0 
L 581 4863 
L 1159 4863 
L 1159 2956 
Q 1366 3272 1645 3428 
Q 1925 3584 2291 3584 
Q 2894 3584 3203 3211 
Q 3513 2838 3513 2113 
z
" transform="scale(0.015625)"/>
       <path id="DejaVuSans-61" d="M 2194 1759 
Q 1497 1759 1228 1600 
Q 959 1441 959 1056 
Q 959 750 1161 570 
Q 1363 391 1709 391 
Q 2188 391 2477 730 
Q 2766 1069 2766 1631 
L 2766 1759 
L 2194 1759 
z
M 3341 1997 
L 3341 0 
L 2766 0 
L 2766 531 
Q 2569 213 2275 61 
Q 1981 -91 1556 -91 
Q 1019 -91 701 211 
Q 384 513 384 1019 
Q 384 1609 779 1909 
Q 1175 2209 1959 2209 
L 2766 2209 
L 2766 2266 
Q 2766 2663 2505 2880 
Q 2244 3097 1772 3097 
Q 1472 3097 1187 3025 
Q 903 2953 641 2809 
L 641 3341 
Q 956 3463 1253 3523 
Q 1550 3584 1831 3584 
Q 2591 3584 2966 3190 
Q 3341 2797 3341 1997 
z
" transform="scale(0.015625)"/>
      </defs>
      <use xlink:href="#DejaVuSans-41"/>
      <use xlink:href="#DejaVuSans-6c" x="68.408203"/>
      <use xlink:href="#DejaVuSans-70" x="96.191406"/>
      <use xlink:href="#DejaVuSans-68" x="159.667969"/>
      <use xlink:href="#DejaVuSans-61" x="223.046875"/>
     </g>
    </g>
   </g>
   <g id="matplotlib.axis_2">
    <g id="ytick_1">
     <g id="line2d_6">
      <defs>
       <path id="m95f6b2c51e" d="M 0 0 
L -3.5 0 
" style="stroke: #000000; stroke-width: 0.8"/>
      </defs>
      <g>
       <use xlink:href="#m95f6b2c51e" x="47.72" y="299.141614" style="stroke: #000000; stroke-width: 0.8"/>
      </g>
     </g>
     <g id="text_7">
      <!-- 0.2 -->
      <g transform="translate(24.816875 302.940833) scale(0.1 -0.1)">
       <defs>
        <path id="DejaVuSans-2e" d="M 684 794 
L 1344 794 
L 1344 0 
L 684 0 
L 684 794 
z
" transform="scale(0.015625)"/>
       </defs>
       <use xlink:href="#DejaVuSans-30"/>
       <use xlink:href="#DejaVuSans-2e" x="63.623047"/>
       <use xlink:href="#DejaVuSans-32" x="95.410156"/>
      </g>
     </g>
    </g>
    <g id="ytick_2">
     <g id="line2d_7">
      <g>
       <use xlink:href="#m95f6b2c51e" x="47.72" y="261.420931" style="stroke: #000000; stroke-width: 0.8"/>
      </g>
     </g>
     <g id="text_8">
      <!-- 0.4 -->
      <g transform="translate(24.816875 265.220149) scale(0.1 -0.1)">
       <defs>
        <path id="DejaVuSans-34" d="M 2419 4116 
L 825 1625 
L 2419 1625 
L 2419 4116 
z
M 2253 4666 
L 3047 4666 
L 3047 1625 
L 3713 1625 
L 3713 1100 
L 3047 1100 
L 3047 0 
L 2419 0 
L 2419 1100 
L 313 1100 
L 313 1709 
L 2253 4666 
z
" transform="scale(0.015625)"/>
       </defs>
       <use xlink:href="#DejaVuSans-30"/>
       <use xlink:href="#DejaVuSans-2e" x="63.623047"/>
       <use xlink:href="#DejaVuSans-34" x="95.410156"/>
      </g>
     </g>
    </g>
    <g id="ytick_3">
     <g id="line2d_8">
      <g>
       <use xlink:href="#m95f6b2c51e" x="47.72" y="223.700247" style="stroke: #000000; stroke-width: 0.8"/>
      </g>
     </g>
     <g id="text_9">
      <!-- 0.6 -->
      <g transform="translate(24.816875 227.499466) scale(0.1 -0.1)">
       <defs>
        <path id="DejaVuSans-36" d="M 2113 2584 
Q 1688 2584 1439 2293 
Q 1191 2003 1191 1497 
Q 1191 994 1439 701 
Q 1688 409 2113 409 
Q 2538 409 2786 701 
Q 3034 994 3034 1497 
Q 3034 2003 2786 2293 
Q 2538 2584 2113 2584 
z
M 3366 4563 
L 3366 3988 
Q 3128 4100 2886 4159 
Q 2644 4219 2406 4219 
Q 1781 4219 1451 3797 
Q 1122 3375 1075 2522 
Q 1259 2794 1537 2939 
Q 1816 3084 2150 3084 
Q 2853 3084 3261 2657 
Q 3669 2231 3669 1497 
Q 3669 778 3244 343 
Q 2819 -91 2113 -91 
Q 1303 -91 875 529 
Q 447 1150 447 2328 
Q 447 3434 972 4092 
Q 1497 4750 2381 4750 
Q 2619 4750 2861 4703 
Q 3103 4656 3366 4563 
z
" transform="scale(0.015625)"/>
       </defs>
       <use xlink:href="#DejaVuSans-30"/>
       <use xlink:href="#DejaVuSans-2e" x="63.623047"/>
       <use xlink:href="#DejaVuSans-36" x="95.410156"/>
      </g>
     </g>
    </g>
    <g id="ytick_4">
     <g id="line2d_9">
      <g>
       <use xlink:href="#m95f6b2c51e" x="47.72" y="185.979563" style="stroke: #000000; stroke-width: 0.8"/>
      </g>
     </g>
     <g id="text_10">
      <!-- 0.8 -->
      <g transform="translate(24.816875 189.778782) scale(0.1 -0.1)">
       <defs>
        <path id="DejaVuSans-38" d="M 2034 2216 
Q 1584 2216 1326 1975 
Q 1069 1734 1069 1313 
Q 1069 891 1326 650 
Q 1584 409 2034 409 
Q 2484 409 2743 651 
Q 3003 894 3003 1313 
Q 3003 1734 2745 1975 
Q 2488 2216 2034 2216 
z
M 1403 2484 
Q 997 2584 770 2862 
Q 544 3141 544 3541 
Q 544 4100 942 4425 
Q 1341 4750 2034 4750 
Q 2731 4750 3128 4425 
Q 3525 4100 3525 3541 
Q 3525 3141 3298 2862 
Q 3072 2584 2669 2484 
Q 3125 2378 3379 2068 
Q 3634 1759 3634 1313 
Q 3634 634 3220 271 
Q 2806 -91 2034 -91 
Q 1263 -91 848 271 
Q 434 634 434 1313 
Q 434 1759 690 2068 
Q 947 2378 1403 2484 
z
M 1172 3481 
Q 1172 3119 1398 2916 
Q 1625 2713 2034 2713 
Q 2441 2713 2670 2916 
Q 2900 3119 2900 3481 
Q 2900 3844 2670 4047 
Q 2441 4250 2034 4250 
Q 1625 4250 1398 4047 
Q 1172 3844 1172 3481 
z
" transform="scale(0.015625)"/>
       </defs>
       <use xlink:href="#DejaVuSans-30"/>
       <use xlink:href="#DejaVuSans-2e" x="63.623047"/>
       <use xlink:href="#DejaVuSans-38" x="95.410156"/>
      </g>
     </g>
    </g>
    <g id="ytick_5">
     <g id="line2d_10">
      <g>
       <use xlink:href="#m95f6b2c51e" x="47.72" y="148.258879" style="stroke: #000000; stroke-width: 0.8"/>
      </g>
     </g>
     <g id="text_11">
      <!-- 1.0 -->
      <g transform="translate(24.816875 152.058098) scale(0.1 -0.1)">
       <use xlink:href="#DejaVuSans-31"/>
       <use xlink:href="#DejaVuSans-2e" x="63.623047"/>
       <use xlink:href="#DejaVuSans-30" x="95.410156"/>
      </g>
     </g>
    </g>
    <g id="ytick_6">
     <g id="line2d_11">
      <g>
       <use xlink:href="#m95f6b2c51e" x="47.72" y="110.538196" style="stroke: #000000; stroke-width: 0.8"/>
      </g>
     </g>
     <g id="text_12">
      <!-- 1.2 -->
      <g transform="translate(24.816875 114.337414) scale(0.1 -0.1)">
       <use xlink:href="#DejaVuSans-31"/>
       <use xlink:href="#DejaVuSans-2e" x="63.623047"/>
       <use xlink:href="#DejaVuSans-32" x="95.410156"/>
      </g>
     </g>
    </g>
    <g id="ytick_7">
     <g id="line2d_12">
      <g>
       <use xlink:href="#m95f6b2c51e" x="47.72" y="72.817512" style="stroke: #000000; stroke-width: 0.8"/>
      </g>
     </g>
     <g id="text_13">
      <!-- 1.4 -->
      <g transform="translate(24.816875 76.616731) scale(0.1 -0.1)">
       <use xlink:href="#DejaVuSans-31"/>
       <use xlink:href="#DejaVuSans-2e" x="63.623047"/>
       <use xlink:href="#DejaVuSans-34" x="95.410156"/>
      </g>
     </g>
    </g>
    <g id="text_14">
     <!-- Cl -->
     <g transform="translate(18.737187 184.828469) rotate(-90) scale(0.1 -0.1)">
      <defs>
       <path id="DejaVuSans-43" d="M 4122 4306 
L 4122 3641 
Q 3803 3938 3442 4084 
Q 3081 4231 2675 4231 
Q 1875 4231 1450 3742 
Q 1025 3253 1025 2328 
Q 1025 1406 1450 917 
Q 1875 428 2675 428 
Q 3081 428 3442 575 
Q 3803 722 4122 1019 
L 4122 359 
Q 3791 134 3420 21 
Q 3050 -91 2638 -91 
Q 1578 -91 968 557 
Q 359 1206 359 2328 
Q 359 3453 968 4101 
Q 1578 4750 2638 4750 
Q 3056 4750 3426 4639 
Q 3797 4528 4122 4306 
z
" transform="scale(0.015625)"/>
      </defs>
      <use xlink:href="#DejaVuSans-43"/>
      <use xlink:href="#DejaVuSans-6c" x="69.824219"/>
     </g>
    </g>
   </g>
   <g id="line2d_13">
    <path d="M 61.306364 305.486182 
L 63.482794 302.292668 
L 65.659223 298.912981 
L 67.835653 295.380881 
L 70.012083 291.739478 
L 72.188513 288.046326 
L 74.364943 284.294676 
L 76.541373 280.53156 
L 78.717803 276.749085 
L 80.894233 272.935663 
L 83.070663 269.063749 
L 85.247093 265.124319 
L 87.423522 261.131019 
L 89.599952 257.080386 
L 91.776382 252.970409 
L 93.952812 248.801256 
L 96.129242 244.576816 
L 98.305672 240.306348 
L 100.482102 236.004948 
L 102.658532 231.692599 
L 104.834962 227.391266 
L 107.011391 223.120601 
L 109.187821 218.892901 
L 111.364251 214.706728 
L 113.540681 210.533236 
L 115.717111 206.334247 
L 117.893541 202.045236 
L 120.069971 197.543442 
L 122.246401 192.793883 
L 124.422831 187.682298 
L 126.599261 182.342014 
L 128.77569 176.684906 
L 130.95212 168.384517 
L 133.12855 149.437127 
L 135.30498 135.683846 
L 137.48141 128.50444 
L 139.65784 121.76483 
L 141.83427 116.877078 
L 144.0107 113.415732 
L 146.18713 110.468758 
L 148.36356 107.680112 
L 150.539989 105.018879 
L 152.716419 102.515028 
L 154.892849 100.168201 
L 157.069279 98.005579 
L 159.245709 96.055537 
L 161.422139 94.389504 
L 163.598569 92.527281 
L 165.774999 90.315668 
L 167.951429 87.886822 
L 170.127859 85.422947 
L 172.304288 82.920288 
L 174.480718 80.368706 
L 176.657148 77.776968 
L 178.833578 75.167469 
L 181.010008 72.579284 
L 183.186438 70.056952 
L 185.362868 67.639797 
L 187.539298 65.365276 
L 189.715728 63.280132 
L 191.892157 61.449431 
L 194.068587 59.95744 
L 196.245017 58.899984 
L 198.421447 58.370548 
L 200.597877 58.444091 
L 202.774307 59.168884 
L 204.950737 60.551201 
L 207.127167 62.55617 
L 209.303597 65.114025 
L 211.480027 68.115588 
L 213.656456 71.418719 
L 215.832886 74.865451 
L 218.009316 78.306764 
L 220.185746 81.622666 
L 222.362176 84.731226 
L 224.538606 87.587142 
L 226.715036 90.174631 
L 228.891466 92.499154 
L 231.067896 94.585895 
L 233.244326 96.447735 
L 235.420755 98.11296 
L 237.597185 99.608885 
L 239.773615 100.959388 
L 241.950045 102.017181 
L 244.126475 102.858393 
L 246.302905 103.607221 
L 248.479335 104.345235 
L 250.655765 105.021262 
L 252.832195 105.630604 
L 255.008625 106.170967 
L 257.185054 106.641857 
L 259.361484 107.045994 
L 261.537914 107.389628 
L 263.714344 107.681821 
L 265.890774 107.933072 
L 268.067204 108.154127 
L 270.243634 108.354903 
L 272.420064 108.544032 
L 274.596494 108.72862 
L 276.772924 108.916175 
" clip-path="url(#pccc7c85f79)" style="fill: none; stroke: #0000ff; stroke-width: 1.5; stroke-linecap: square"/>
   </g>
   <g id="patch_3">
    <path d="M 47.72 318.04 
L 47.72 41.856 
" style="fill: none; stroke: #000000; stroke-width: 0.8; stroke-linejoin: miter; stroke-linecap: square"/>
   </g>
   <g id="patch_4">
    <path d="M 346.62 318.04 
L 346.62 41.856 
" style="fill: none; stroke: #000000; stroke-width: 0.8; stroke-linejoin: miter; stroke-linecap: square"/>
   </g>
   <g id="patch_5">
    <path d="M 47.72 318.04 
L 346.62 318.04 
" style="fill: none; stroke: #000000; stroke-width: 0.8; stroke-linejoin: miter; stroke-linecap: square"/>
   </g>
   <g id="patch_6">
    <path d="M 47.72 41.856 
L 346.62 41.856 
" style="fill: none; stroke: #000000; stroke-width: 0.8; stroke-linejoin: miter; stroke-linecap: square"/>
   </g>
   <g id="text_15">
    <!-- Re = 4474736 Mach = 0.70  -->
    <g transform="translate(112.045 22.418625) scale(0.12 -0.12)">
     <defs>
      <path id="DejaVuSans-52" d="M 2841 2188 
Q 3044 2119 3236 1894 
Q 3428 1669 3622 1275 
L 4263 0 
L 3584 0 
L 2988 1197 
Q 2756 1666 2539 1819 
Q 2322 1972 1947 1972 
L 1259 1972 
L 1259 0 
L 628 0 
L 628 4666 
L 2053 4666 
Q 2853 4666 3247 4331 
Q 3641 3997 3641 3322 
Q 3641 2881 3436 2590 
Q 3231 2300 2841 2188 
z
M 1259 4147 
L 1259 2491 
L 2053 2491 
Q 2509 2491 2742 2702 
Q 2975 2913 2975 3322 
Q 2975 3731 2742 3939 
Q 2509 4147 2053 4147 
L 1259 4147 
z
" transform="scale(0.015625)"/>
      <path id="DejaVuSans-65" d="M 3597 1894 
L 3597 1613 
L 953 1613 
Q 991 1019 1311 708 
Q 1631 397 2203 397 
Q 2534 397 2845 478 
Q 3156 559 3463 722 
L 3463 178 
Q 3153 47 2828 -22 
Q 2503 -91 2169 -91 
Q 1331 -91 842 396 
Q 353 884 353 1716 
Q 353 2575 817 3079 
Q 1281 3584 2069 3584 
Q 2775 3584 3186 3129 
Q 3597 2675 3597 1894 
z
M 3022 2063 
Q 3016 2534 2758 2815 
Q 2500 3097 2075 3097 
Q 1594 3097 1305 2825 
Q 1016 2553 972 2059 
L 3022 2063 
z
" transform="scale(0.015625)"/>
      <path id="DejaVuSans-20" transform="scale(0.015625)"/>
      <path id="DejaVuSans-3d" d="M 678 2906 
L 4684 2906 
L 4684 2381 
L 678 2381 
L 678 2906 
z
M 678 1631 
L 4684 1631 
L 4684 1100 
L 678 1100 
L 678 1631 
z
" transform="scale(0.015625)"/>
      <path id="DejaVuSans-37" d="M 525 4666 
L 3525 4666 
L 3525 4397 
L 1831 0 
L 1172 0 
L 2766 4134 
L 525 4134 
L 525 4666 
z
" transform="scale(0.015625)"/>
      <path id="DejaVuSans-33" d="M 2597 2516 
Q 3050 2419 3304 2112 
Q 3559 1806 3559 1356 
Q 3559 666 3084 287 
Q 2609 -91 1734 -91 
Q 1441 -91 1130 -33 
Q 819 25 488 141 
L 488 750 
Q 750 597 1062 519 
Q 1375 441 1716 441 
Q 2309 441 2620 675 
Q 2931 909 2931 1356 
Q 2931 1769 2642 2001 
Q 2353 2234 1838 2234 
L 1294 2234 
L 1294 2753 
L 1863 2753 
Q 2328 2753 2575 2939 
Q 2822 3125 2822 3475 
Q 2822 3834 2567 4026 
Q 2313 4219 1838 4219 
Q 1578 4219 1281 4162 
Q 984 4106 628 3988 
L 628 4550 
Q 988 4650 1302 4700 
Q 1616 4750 1894 4750 
Q 2613 4750 3031 4423 
Q 3450 4097 3450 3541 
Q 3450 3153 3228 2886 
Q 3006 2619 2597 2516 
z
" transform="scale(0.015625)"/>
      <path id="DejaVuSans-4d" d="M 628 4666 
L 1569 4666 
L 2759 1491 
L 3956 4666 
L 4897 4666 
L 4897 0 
L 4281 0 
L 4281 4097 
L 3078 897 
L 2444 897 
L 1241 4097 
L 1241 0 
L 628 0 
L 628 4666 
z
" transform="scale(0.015625)"/>
      <path id="DejaVuSans-63" d="M 3122 3366 
L 3122 2828 
Q 2878 2963 2633 3030 
Q 2388 3097 2138 3097 
Q 1578 3097 1268 2742 
Q 959 2388 959 1747 
Q 959 1106 1268 751 
Q 1578 397 2138 397 
Q 2388 397 2633 464 
Q 2878 531 3122 666 
L 3122 134 
Q 2881 22 2623 -34 
Q 2366 -91 2075 -91 
Q 1284 -91 818 406 
Q 353 903 353 1747 
Q 353 2603 823 3093 
Q 1294 3584 2113 3584 
Q 2378 3584 2631 3529 
Q 2884 3475 3122 3366 
z
" transform="scale(0.015625)"/>
     </defs>
     <use xlink:href="#DejaVuSans-52"/>
     <use xlink:href="#DejaVuSans-65" x="64.982422"/>
     <use xlink:href="#DejaVuSans-20" x="126.505859"/>
     <use xlink:href="#DejaVuSans-3d" x="158.292969"/>
     <use xlink:href="#DejaVuSans-20" x="242.082031"/>
     <use xlink:href="#DejaVuSans-34" x="273.869141"/>
     <use xlink:href="#DejaVuSans-34" x="337.492188"/>
     <use xlink:href="#DejaVuSans-37" x="401.115234"/>
     <use xlink:href="#DejaVuSans-34" x="464.738281"/>
     <use xlink:href="#DejaVuSans-37" x="528.361328"/>
     <use xlink:href="#DejaVuSans-33" x="591.984375"/>
     <use xlink:href="#DejaVuSans-36" x="655.607422"/>
     <use xlink:href="#DejaVuSans-20" x="719.230469"/>
     <use xlink:href="#DejaVuSans-4d" x="751.017578"/>
     <use xlink:href="#DejaVuSans-61" x="837.296875"/>
     <use xlink:href="#DejaVuSans-63" x="898.576172"/>
     <use xlink:href="#DejaVuSans-68" x="953.556641"/>
     <use xlink:href="#DejaVuSans-20" x="1016.935547"/>
     <use xlink:href="#DejaVuSans-3d" x="1048.722656"/>
     <use xlink:href="#DejaVuSans-20" x="1132.511719"/>
     <use xlink:href="#DejaVuSans-30" x="1164.298828"/>
     <use xlink:href="#DejaVuSans-2e" x="1227.921875"/>
     <use xlink:href="#DejaVuSans-37" x="1259.708984"/>
     <use xlink:href="#DejaVuSans-30" x="1323.332031"/>
     <use xlink:href="#DejaVuSans-20" x="1386.955078"/>
    </g>
    <!--  Cl vs Alpha -->
    <g transform="translate(161.85625 35.856) scale(0.12 -0.12)">
     <defs>
      <path id="DejaVuSans-76" d="M 191 3500 
L 800 3500 
L 1894 563 
L 2988 3500 
L 3597 3500 
L 2284 0 
L 1503 0 
L 191 3500 
z
" transform="scale(0.015625)"/>
      <path id="DejaVuSans-73" d="M 2834 3397 
L 2834 2853 
Q 2591 2978 2328 3040 
Q 2066 3103 1784 3103 
Q 1356 3103 1142 2972 
Q 928 2841 928 2578 
Q 928 2378 1081 2264 
Q 1234 2150 1697 2047 
L 1894 2003 
Q 2506 1872 2764 1633 
Q 3022 1394 3022 966 
Q 3022 478 2636 193 
Q 2250 -91 1575 -91 
Q 1294 -91 989 -36 
Q 684 19 347 128 
L 347 722 
Q 666 556 975 473 
Q 1284 391 1588 391 
Q 1994 391 2212 530 
Q 2431 669 2431 922 
Q 2431 1156 2273 1281 
Q 2116 1406 1581 1522 
L 1381 1569 
Q 847 1681 609 1914 
Q 372 2147 372 2553 
Q 372 3047 722 3315 
Q 1072 3584 1716 3584 
Q 2034 3584 2315 3537 
Q 2597 3491 2834 3397 
z
" transform="scale(0.015625)"/>
     </defs>
     <use xlink:href="#DejaVuSans-20"/>
     <use xlink:href="#DejaVuSans-43" x="31.787109"/>
     <use xlink:href="#DejaVuSans-6c" x="101.611328"/>
     <use xlink:href="#DejaVuSans-20" x="129.394531"/>
     <use xlink:href="#DejaVuSans-76" x="161.181641"/>
     <use xlink:href="#DejaVuSans-73" x="220.361328"/>
     <use xlink:href="#DejaVuSans-20" x="272.460938"/>
     <use xlink:href="#DejaVuSans-41" x="304.248047"/>
     <use xlink:href="#DejaVuSans-6c" x="372.65625"/>
     <use xlink:href="#DejaVuSans-70" x="400.439453"/>
     <use xlink:href="#DejaVuSans-68" x="463.916016"/>
     <use xlink:href="#DejaVuSans-61" x="527.294922"/>
    </g>
   </g>
   <g id="legend_1">
    <g id="patch_7">
     <path d="M 247.740312 79.21225 
L 339.62 79.21225 
Q 341.62 79.21225 341.62 77.21225 
L 341.62 48.856 
Q 341.62 46.856 339.62 46.856 
L 247.740312 46.856 
Q 245.740312 46.856 245.740312 48.856 
L 245.740312 77.21225 
Q 245.740312 79.21225 247.740312 79.21225 
z
" style="fill: #ffffff; opacity: 0.8; stroke: #cccccc; stroke-linejoin: miter"/>
    </g>
    <g id="line2d_14">
     <path d="M 249.740312 54.954438 
L 259.740312 54.954438 
L 269.740312 54.954438 
" style="fill: none; stroke: #0000ff; stroke-width: 1.5; stroke-linecap: square"/>
    </g>
    <g id="text_16">
     <!-- Predicted Cl -->
     <g transform="translate(277.740312 58.454438) scale(0.1 -0.1)">
      <defs>
       <path id="DejaVuSans-50" d="M 1259 4147 
L 1259 2394 
L 2053 2394 
Q 2494 2394 2734 2622 
Q 2975 2850 2975 3272 
Q 2975 3691 2734 3919 
Q 2494 4147 2053 4147 
L 1259 4147 
z
M 628 4666 
L 2053 4666 
Q 2838 4666 3239 4311 
Q 3641 3956 3641 3272 
Q 3641 2581 3239 2228 
Q 2838 1875 2053 1875 
L 1259 1875 
L 1259 0 
L 628 0 
L 628 4666 
z
" transform="scale(0.015625)"/>
       <path id="DejaVuSans-72" d="M 2631 2963 
Q 2534 3019 2420 3045 
Q 2306 3072 2169 3072 
Q 1681 3072 1420 2755 
Q 1159 2438 1159 1844 
L 1159 0 
L 581 0 
L 581 3500 
L 1159 3500 
L 1159 2956 
Q 1341 3275 1631 3429 
Q 1922 3584 2338 3584 
Q 2397 3584 2469 3576 
Q 2541 3569 2628 3553 
L 2631 2963 
z
" transform="scale(0.015625)"/>
       <path id="DejaVuSans-64" d="M 2906 2969 
L 2906 4863 
L 3481 4863 
L 3481 0 
L 2906 0 
L 2906 525 
Q 2725 213 2448 61 
Q 2172 -91 1784 -91 
Q 1150 -91 751 415 
Q 353 922 353 1747 
Q 353 2572 751 3078 
Q 1150 3584 1784 3584 
Q 2172 3584 2448 3432 
Q 2725 3281 2906 2969 
z
M 947 1747 
Q 947 1113 1208 752 
Q 1469 391 1925 391 
Q 2381 391 2643 752 
Q 2906 1113 2906 1747 
Q 2906 2381 2643 2742 
Q 2381 3103 1925 3103 
Q 1469 3103 1208 2742 
Q 947 2381 947 1747 
z
" transform="scale(0.015625)"/>
       <path id="DejaVuSans-69" d="M 603 3500 
L 1178 3500 
L 1178 0 
L 603 0 
L 603 3500 
z
M 603 4863 
L 1178 4863 
L 1178 4134 
L 603 4134 
L 603 4863 
z
" transform="scale(0.015625)"/>
       <path id="DejaVuSans-74" d="M 1172 4494 
L 1172 3500 
L 2356 3500 
L 2356 3053 
L 1172 3053 
L 1172 1153 
Q 1172 725 1289 603 
Q 1406 481 1766 481 
L 2356 481 
L 2356 0 
L 1766 0 
Q 1100 0 847 248 
Q 594 497 594 1153 
L 594 3053 
L 172 3053 
L 172 3500 
L 594 3500 
L 594 4494 
L 1172 4494 
z
" transform="scale(0.015625)"/>
      </defs>
      <use xlink:href="#DejaVuSans-50"/>
      <use xlink:href="#DejaVuSans-72" x="58.552734"/>
      <use xlink:href="#DejaVuSans-65" x="97.416016"/>
      <use xlink:href="#DejaVuSans-64" x="158.939453"/>
      <use xlink:href="#DejaVuSans-69" x="222.416016"/>
      <use xlink:href="#DejaVuSans-63" x="250.199219"/>
      <use xlink:href="#DejaVuSans-74" x="305.179688"/>
      <use xlink:href="#DejaVuSans-65" x="344.388672"/>
      <use xlink:href="#DejaVuSans-64" x="405.912109"/>
      <use xlink:href="#DejaVuSans-20" x="469.388672"/>
      <use xlink:href="#DejaVuSans-43" x="501.175781"/>
      <use xlink:href="#DejaVuSans-6c" x="571"/>
     </g>
    </g>
    <g id="PathCollection_2">
     <g>
      <use xlink:href="#mfef3153168" x="259.740312" y="70.507563" style="fill: #ffa500; stroke: #ffa500"/>
     </g>
    </g>
    <g id="text_17">
     <!-- Original Cl -->
     <g transform="translate(277.740312 73.132563) scale(0.1 -0.1)">
      <defs>
       <path id="DejaVuSans-4f" d="M 2522 4238 
Q 1834 4238 1429 3725 
Q 1025 3213 1025 2328 
Q 1025 1447 1429 934 
Q 1834 422 2522 422 
Q 3209 422 3611 934 
Q 4013 1447 4013 2328 
Q 4013 3213 3611 3725 
Q 3209 4238 2522 4238 
z
M 2522 4750 
Q 3503 4750 4090 4092 
Q 4678 3434 4678 2328 
Q 4678 1225 4090 567 
Q 3503 -91 2522 -91 
Q 1538 -91 948 565 
Q 359 1222 359 2328 
Q 359 3434 948 4092 
Q 1538 4750 2522 4750 
z
" transform="scale(0.015625)"/>
       <path id="DejaVuSans-67" d="M 2906 1791 
Q 2906 2416 2648 2759 
Q 2391 3103 1925 3103 
Q 1463 3103 1205 2759 
Q 947 2416 947 1791 
Q 947 1169 1205 825 
Q 1463 481 1925 481 
Q 2391 481 2648 825 
Q 2906 1169 2906 1791 
z
M 3481 434 
Q 3481 -459 3084 -895 
Q 2688 -1331 1869 -1331 
Q 1566 -1331 1297 -1286 
Q 1028 -1241 775 -1147 
L 775 -588 
Q 1028 -725 1275 -790 
Q 1522 -856 1778 -856 
Q 2344 -856 2625 -561 
Q 2906 -266 2906 331 
L 2906 616 
Q 2728 306 2450 153 
Q 2172 0 1784 0 
Q 1141 0 747 490 
Q 353 981 353 1791 
Q 353 2603 747 3093 
Q 1141 3584 1784 3584 
Q 2172 3584 2450 3431 
Q 2728 3278 2906 2969 
L 2906 3500 
L 3481 3500 
L 3481 434 
z
" transform="scale(0.015625)"/>
       <path id="DejaVuSans-6e" d="M 3513 2113 
L 3513 0 
L 2938 0 
L 2938 2094 
Q 2938 2591 2744 2837 
Q 2550 3084 2163 3084 
Q 1697 3084 1428 2787 
Q 1159 2491 1159 1978 
L 1159 0 
L 581 0 
L 581 3500 
L 1159 3500 
L 1159 2956 
Q 1366 3272 1645 3428 
Q 1925 3584 2291 3584 
Q 2894 3584 3203 3211 
Q 3513 2838 3513 2113 
z
" transform="scale(0.015625)"/>
      </defs>
      <use xlink:href="#DejaVuSans-4f"/>
      <use xlink:href="#DejaVuSans-72" x="78.710938"/>
      <use xlink:href="#DejaVuSans-69" x="119.824219"/>
      <use xlink:href="#DejaVuSans-67" x="147.607422"/>
      <use xlink:href="#DejaVuSans-69" x="211.083984"/>
      <use xlink:href="#DejaVuSans-6e" x="238.867188"/>
      <use xlink:href="#DejaVuSans-61" x="302.246094"/>
      <use xlink:href="#DejaVuSans-6c" x="363.525391"/>
      <use xlink:href="#DejaVuSans-20" x="391.308594"/>
      <use xlink:href="#DejaVuSans-43" x="423.095703"/>
      <use xlink:href="#DejaVuSans-6c" x="492.919922"/>
     </g>
    </g>
   </g>
  </g>
  <g id="axes_2">
   <g id="patch_8">
    <path d="M 409.01 318.04 
L 707.91 318.04 
L 707.91 41.856 
L 409.01 41.856 
z
" style="fill: #ffffff"/>
   </g>
   <g id="PathCollection_3">
    <g clip-path="url(#p8548de4854)">
     <use xlink:href="#mfef3153168" x="460.90153" y="305.486182" style="fill: #ffa500; stroke: #ffa500"/>
     <use xlink:href="#mfef3153168" x="464.492639" y="305.407422" style="fill: #ffa500; stroke: #ffa500"/>
     <use xlink:href="#mfef3153168" x="471.674858" y="305.259747" style="fill: #ffa500; stroke: #ffa500"/>
     <use xlink:href="#mfef3153168" x="475.265967" y="305.161298" style="fill: #ffa500; stroke: #ffa500"/>
     <use xlink:href="#mfef3153168" x="478.857076" y="305.053003" style="fill: #ffa500; stroke: #ffa500"/>
     <use xlink:href="#mfef3153168" x="482.448186" y="304.964398" style="fill: #ffa500; stroke: #ffa500"/>
     <use xlink:href="#mfef3153168" x="486.039295" y="304.925018" style="fill: #ffa500; stroke: #ffa500"/>
     <use xlink:href="#mfef3153168" x="489.630404" y="304.895483" style="fill: #ffa500; stroke: #ffa500"/>
     <use xlink:href="#mfef3153168" x="493.221514" y="305.003778" style="fill: #ffa500; stroke: #ffa500"/>
     <use xlink:href="#mfef3153168" x="500.403732" y="304.639514" style="fill: #ffa500; stroke: #ffa500"/>
     <use xlink:href="#mfef3153168" x="503.994842" y="304.35401" style="fill: #ffa500; stroke: #ffa500"/>
     <use xlink:href="#mfef3153168" x="507.585951" y="304.019281" style="fill: #ffa500; stroke: #ffa500"/>
     <use xlink:href="#mfef3153168" x="511.17706" y="303.645172" style="fill: #ffa500; stroke: #ffa500"/>
     <use xlink:href="#mfef3153168" x="518.359279" y="302.729589" style="fill: #ffa500; stroke: #ffa500"/>
     <use xlink:href="#mfef3153168" x="529.132607" y="298.230436" style="fill: #ffa500; stroke: #ffa500"/>
     <use xlink:href="#mfef3153168" x="532.723716" y="297.039194" style="fill: #ffa500; stroke: #ffa500"/>
     <use xlink:href="#mfef3153168" x="536.314826" y="295.808573" style="fill: #ffa500; stroke: #ffa500"/>
     <use xlink:href="#mfef3153168" x="539.905935" y="294.469656" style="fill: #ffa500; stroke: #ffa500"/>
     <use xlink:href="#mfef3153168" x="543.497044" y="292.874771" style="fill: #ffa500; stroke: #ffa500"/>
     <use xlink:href="#mfef3153168" x="547.088154" y="290.866396" style="fill: #ffa500; stroke: #ffa500"/>
     <use xlink:href="#mfef3153168" x="550.679263" y="288.365773" style="fill: #ffa500; stroke: #ffa500"/>
     <use xlink:href="#mfef3153168" x="554.270372" y="285.156311" style="fill: #ffa500; stroke: #ffa500"/>
     <use xlink:href="#mfef3153168" x="640.456996" y="153.341959" style="fill: #ffa500; stroke: #ffa500"/>
     <use xlink:href="#mfef3153168" x="654.821434" y="129.861696" style="fill: #ffa500; stroke: #ffa500"/>
     <use xlink:href="#mfef3153168" x="658.412543" y="123.551068" style="fill: #ffa500; stroke: #ffa500"/>
     <use xlink:href="#mfef3153168" x="662.003652" y="117.18137" style="fill: #ffa500; stroke: #ffa500"/>
     <use xlink:href="#mfef3153168" x="679.959199" y="83.74784" style="fill: #ffa500; stroke: #ffa500"/>
     <use xlink:href="#mfef3153168" x="690.732527" y="61.754169" style="fill: #ffa500; stroke: #ffa500"/>
     <use xlink:href="#mfef3153168" x="694.323636" y="54.409818" style="fill: #ffa500; stroke: #ffa500"/>
    </g>
   </g>
   <g id="matplotlib.axis_3">
    <g id="xtick_6">
     <g id="line2d_15">
      <g>
       <use xlink:href="#mec4c9475d2" x="458.507457" y="318.04" style="stroke: #000000; stroke-width: 0.8"/>
      </g>
     </g>
     <g id="text_18">
      <!-- 0 -->
      <g transform="translate(455.326207 332.638438) scale(0.1 -0.1)">
       <use xlink:href="#DejaVuSans-30"/>
      </g>
     </g>
    </g>
    <g id="xtick_7">
     <g id="line2d_16">
      <g>
       <use xlink:href="#mec4c9475d2" x="518.359279" y="318.04" style="stroke: #000000; stroke-width: 0.8"/>
      </g>
     </g>
     <g id="text_19">
      <!-- 5 -->
      <g transform="translate(515.178029 332.638438) scale(0.1 -0.1)">
       <use xlink:href="#DejaVuSans-35"/>
      </g>
     </g>
    </g>
    <g id="xtick_8">
     <g id="line2d_17">
      <g>
       <use xlink:href="#mec4c9475d2" x="578.211101" y="318.04" style="stroke: #000000; stroke-width: 0.8"/>
      </g>
     </g>
     <g id="text_20">
      <!-- 10 -->
      <g transform="translate(571.848601 332.638438) scale(0.1 -0.1)">
       <use xlink:href="#DejaVuSans-31"/>
       <use xlink:href="#DejaVuSans-30" x="63.623047"/>
      </g>
     </g>
    </g>
    <g id="xtick_9">
     <g id="line2d_18">
      <g>
       <use xlink:href="#mec4c9475d2" x="638.062924" y="318.04" style="stroke: #000000; stroke-width: 0.8"/>
      </g>
     </g>
     <g id="text_21">
      <!-- 15 -->
      <g transform="translate(631.700424 332.638438) scale(0.1 -0.1)">
       <use xlink:href="#DejaVuSans-31"/>
       <use xlink:href="#DejaVuSans-35" x="63.623047"/>
      </g>
     </g>
    </g>
    <g id="xtick_10">
     <g id="line2d_19">
      <g>
       <use xlink:href="#mec4c9475d2" x="697.914746" y="318.04" style="stroke: #000000; stroke-width: 0.8"/>
      </g>
     </g>
     <g id="text_22">
      <!-- 20 -->
      <g transform="translate(691.552246 332.638438) scale(0.1 -0.1)">
       <use xlink:href="#DejaVuSans-32"/>
       <use xlink:href="#DejaVuSans-30" x="63.623047"/>
      </g>
     </g>
    </g>
    <g id="text_23">
     <!-- Alpha -->
     <g transform="translate(544.243594 346.316563) scale(0.1 -0.1)">
      <use xlink:href="#DejaVuSans-41"/>
      <use xlink:href="#DejaVuSans-6c" x="68.408203"/>
      <use xlink:href="#DejaVuSans-70" x="96.191406"/>
      <use xlink:href="#DejaVuSans-68" x="159.667969"/>
      <use xlink:href="#DejaVuSans-61" x="223.046875"/>
     </g>
    </g>
   </g>
   <g id="matplotlib.axis_4">
    <g id="ytick_8">
     <g id="line2d_20">
      <g>
       <use xlink:href="#m95f6b2c51e" x="409.01" y="312.456423" style="stroke: #000000; stroke-width: 0.8"/>
      </g>
     </g>
     <g id="text_24">
      <!-- 0.00 -->
      <g transform="translate(379.744375 316.255642) scale(0.1 -0.1)">
       <use xlink:href="#DejaVuSans-30"/>
       <use xlink:href="#DejaVuSans-2e" x="63.623047"/>
       <use xlink:href="#DejaVuSans-30" x="95.410156"/>
       <use xlink:href="#DejaVuSans-30" x="159.033203"/>
      </g>
     </g>
    </g>
    <g id="ytick_9">
     <g id="line2d_21">
      <g>
       <use xlink:href="#m95f6b2c51e" x="409.01" y="263.231555" style="stroke: #000000; stroke-width: 0.8"/>
      </g>
     </g>
     <g id="text_25">
      <!-- 0.05 -->
      <g transform="translate(379.744375 267.030774) scale(0.1 -0.1)">
       <use xlink:href="#DejaVuSans-30"/>
       <use xlink:href="#DejaVuSans-2e" x="63.623047"/>
       <use xlink:href="#DejaVuSans-30" x="95.410156"/>
       <use xlink:href="#DejaVuSans-35" x="159.033203"/>
      </g>
     </g>
    </g>
    <g id="ytick_10">
     <g id="line2d_22">
      <g>
       <use xlink:href="#m95f6b2c51e" x="409.01" y="214.006686" style="stroke: #000000; stroke-width: 0.8"/>
      </g>
     </g>
     <g id="text_26">
      <!-- 0.10 -->
      <g transform="translate(379.744375 217.805905) scale(0.1 -0.1)">
       <use xlink:href="#DejaVuSans-30"/>
       <use xlink:href="#DejaVuSans-2e" x="63.623047"/>
       <use xlink:href="#DejaVuSans-31" x="95.410156"/>
       <use xlink:href="#DejaVuSans-30" x="159.033203"/>
      </g>
     </g>
    </g>
    <g id="ytick_11">
     <g id="line2d_23">
      <g>
       <use xlink:href="#m95f6b2c51e" x="409.01" y="164.781818" style="stroke: #000000; stroke-width: 0.8"/>
      </g>
     </g>
     <g id="text_27">
      <!-- 0.15 -->
      <g transform="translate(379.744375 168.581037) scale(0.1 -0.1)">
       <use xlink:href="#DejaVuSans-30"/>
       <use xlink:href="#DejaVuSans-2e" x="63.623047"/>
       <use xlink:href="#DejaVuSans-31" x="95.410156"/>
       <use xlink:href="#DejaVuSans-35" x="159.033203"/>
      </g>
     </g>
    </g>
    <g id="ytick_12">
     <g id="line2d_24">
      <g>
       <use xlink:href="#m95f6b2c51e" x="409.01" y="115.55695" style="stroke: #000000; stroke-width: 0.8"/>
      </g>
     </g>
     <g id="text_28">
      <!-- 0.20 -->
      <g transform="translate(379.744375 119.356168) scale(0.1 -0.1)">
       <use xlink:href="#DejaVuSans-30"/>
       <use xlink:href="#DejaVuSans-2e" x="63.623047"/>
       <use xlink:href="#DejaVuSans-32" x="95.410156"/>
       <use xlink:href="#DejaVuSans-30" x="159.033203"/>
      </g>
     </g>
    </g>
    <g id="ytick_13">
     <g id="line2d_25">
      <g>
       <use xlink:href="#m95f6b2c51e" x="409.01" y="66.332081" style="stroke: #000000; stroke-width: 0.8"/>
      </g>
     </g>
     <g id="text_29">
      <!-- 0.25 -->
      <g transform="translate(379.744375 70.1313) scale(0.1 -0.1)">
       <use xlink:href="#DejaVuSans-30"/>
       <use xlink:href="#DejaVuSans-2e" x="63.623047"/>
       <use xlink:href="#DejaVuSans-32" x="95.410156"/>
       <use xlink:href="#DejaVuSans-35" x="159.033203"/>
      </g>
     </g>
    </g>
    <g id="text_30">
     <!-- Cd -->
     <g transform="translate(373.664687 186.613625) rotate(-90) scale(0.1 -0.1)">
      <use xlink:href="#DejaVuSans-43"/>
      <use xlink:href="#DejaVuSans-64" x="69.824219"/>
     </g>
    </g>
   </g>
   <g id="line2d_26">
    <path d="M 422.596364 304.020675 
L 424.772794 304.24582 
L 426.949223 304.460643 
L 429.125653 304.660823 
L 431.302083 304.841245 
L 433.478513 304.997117 
L 435.654943 305.12811 
L 437.831373 305.231292 
L 440.007803 305.307054 
L 442.184233 305.35606 
L 444.360663 305.379066 
L 446.537093 305.377051 
L 448.713522 305.351859 
L 450.889952 305.30567 
L 453.066382 305.241062 
L 455.242812 305.160873 
L 457.419242 305.068167 
L 459.595672 304.966077 
L 461.772102 304.857669 
L 463.948532 304.745789 
L 466.124962 304.632879 
L 468.301391 304.520841 
L 470.477821 304.410868 
L 472.654251 304.300668 
L 474.830681 304.1937 
L 477.007111 304.090407 
L 479.183541 303.990407 
L 481.359971 303.890566 
L 483.536401 303.796999 
L 485.712831 303.71955 
L 487.889261 303.708634 
L 490.06569 303.899716 
L 492.24212 304.352729 
L 494.41855 304.27514 
L 496.59498 303.795898 
L 498.77141 303.548341 
L 500.94784 303.347992 
L 503.12427 303.159405 
L 505.3007 302.973784 
L 507.47713 302.7722 
L 509.65356 302.521824 
L 511.829989 302.223095 
L 514.006419 301.894799 
L 516.182849 301.532674 
L 518.359279 301.101849 
L 520.535709 300.559838 
L 522.712139 299.934566 
L 524.888569 299.374829 
L 527.064999 298.909488 
L 529.241429 298.478643 
L 531.417859 298.0401 
L 533.594288 297.570166 
L 535.770718 297.045384 
L 537.947148 296.445148 
L 540.123578 295.754062 
L 542.300008 294.96467 
L 544.476438 294.074858 
L 546.652868 293.08052 
L 548.829298 291.967873 
L 551.005728 290.709455 
L 553.182157 289.264127 
L 555.358587 287.579572 
L 557.535017 285.597029 
L 559.711447 283.259162 
L 561.887877 280.521783 
L 564.064307 277.367656 
L 566.240737 273.816972 
L 568.417167 269.929884 
L 570.593597 265.797624 
L 572.770027 261.524707 
L 574.946456 257.20972 
L 577.122886 252.931015 
L 579.299316 248.740842 
L 581.475746 244.66672 
L 583.652176 240.716605 
L 585.828606 236.883837 
L 588.005036 233.150869 
L 590.181466 229.492991 
L 592.357896 225.908111 
L 594.534326 222.335159 
L 596.710755 218.740934 
L 598.887185 215.097536 
L 601.063615 211.386427 
L 603.240045 207.74316 
L 605.416475 204.022186 
L 607.592905 200.205114 
L 609.769335 196.275743 
L 611.945765 192.351014 
L 614.122195 188.48928 
L 616.298625 184.748244 
L 618.475054 181.182956 
L 620.651484 177.83979 
L 622.827914 174.752148 
L 625.004344 171.938221 
L 627.180774 169.401576 
L 629.357204 167.133482 
L 631.533634 165.116365 
L 633.710064 163.327369 
L 635.886494 161.741379 
L 638.062924 160.337269 
" clip-path="url(#p8548de4854)" style="fill: none; stroke: #0000ff; stroke-width: 1.5; stroke-linecap: square"/>
   </g>
   <g id="patch_9">
    <path d="M 409.01 318.04 
L 409.01 41.856 
" style="fill: none; stroke: #000000; stroke-width: 0.8; stroke-linejoin: miter; stroke-linecap: square"/>
   </g>
   <g id="patch_10">
    <path d="M 707.91 318.04 
L 707.91 41.856 
" style="fill: none; stroke: #000000; stroke-width: 0.8; stroke-linejoin: miter; stroke-linecap: square"/>
   </g>
   <g id="patch_11">
    <path d="M 409.01 318.04 
L 707.91 318.04 
" style="fill: none; stroke: #000000; stroke-width: 0.8; stroke-linejoin: miter; stroke-linecap: square"/>
   </g>
   <g id="patch_12">
    <path d="M 409.01 41.856 
L 707.91 41.856 
" style="fill: none; stroke: #000000; stroke-width: 0.8; stroke-linejoin: miter; stroke-linecap: square"/>
   </g>
   <g id="text_31">
    <!-- Re = 4474736 Mach = 0.70  -->
    <g transform="translate(473.335 22.418625) scale(0.12 -0.12)">
     <use xlink:href="#DejaVuSans-52"/>
     <use xlink:href="#DejaVuSans-65" x="64.982422"/>
     <use xlink:href="#DejaVuSans-20" x="126.505859"/>
     <use xlink:href="#DejaVuSans-3d" x="158.292969"/>
     <use xlink:href="#DejaVuSans-20" x="242.082031"/>
     <use xlink:href="#DejaVuSans-34" x="273.869141"/>
     <use xlink:href="#DejaVuSans-34" x="337.492188"/>
     <use xlink:href="#DejaVuSans-37" x="401.115234"/>
     <use xlink:href="#DejaVuSans-34" x="464.738281"/>
     <use xlink:href="#DejaVuSans-37" x="528.361328"/>
     <use xlink:href="#DejaVuSans-33" x="591.984375"/>
     <use xlink:href="#DejaVuSans-36" x="655.607422"/>
     <use xlink:href="#DejaVuSans-20" x="719.230469"/>
     <use xlink:href="#DejaVuSans-4d" x="751.017578"/>
     <use xlink:href="#DejaVuSans-61" x="837.296875"/>
     <use xlink:href="#DejaVuSans-63" x="898.576172"/>
     <use xlink:href="#DejaVuSans-68" x="953.556641"/>
     <use xlink:href="#DejaVuSans-20" x="1016.935547"/>
     <use xlink:href="#DejaVuSans-3d" x="1048.722656"/>
     <use xlink:href="#DejaVuSans-20" x="1132.511719"/>
     <use xlink:href="#DejaVuSans-30" x="1164.298828"/>
     <use xlink:href="#DejaVuSans-2e" x="1227.921875"/>
     <use xlink:href="#DejaVuSans-37" x="1259.708984"/>
     <use xlink:href="#DejaVuSans-30" x="1323.332031"/>
     <use xlink:href="#DejaVuSans-20" x="1386.955078"/>
    </g>
    <!--  Cd vs Alpha -->
    <g transform="translate(521.004062 35.856) scale(0.12 -0.12)">
     <use xlink:href="#DejaVuSans-20"/>
     <use xlink:href="#DejaVuSans-43" x="31.787109"/>
     <use xlink:href="#DejaVuSans-64" x="101.611328"/>
     <use xlink:href="#DejaVuSans-20" x="165.087891"/>
     <use xlink:href="#DejaVuSans-76" x="196.875"/>
     <use xlink:href="#DejaVuSans-73" x="256.054688"/>
     <use xlink:href="#DejaVuSans-20" x="308.154297"/>
     <use xlink:href="#DejaVuSans-41" x="339.941406"/>
     <use xlink:href="#DejaVuSans-6c" x="408.349609"/>
     <use xlink:href="#DejaVuSans-70" x="436.132812"/>
     <use xlink:href="#DejaVuSans-68" x="499.609375"/>
     <use xlink:href="#DejaVuSans-61" x="562.988281"/>
    </g>
   </g>
   <g id="legend_2">
    <g id="patch_13">
     <path d="M 416.01 79.21225 
L 511.46 79.21225 
Q 513.46 79.21225 513.46 77.21225 
L 513.46 48.856 
Q 513.46 46.856 511.46 46.856 
L 416.01 46.856 
Q 414.01 46.856 414.01 48.856 
L 414.01 77.21225 
Q 414.01 79.21225 416.01 79.21225 
z
" style="fill: #ffffff; opacity: 0.8; stroke: #cccccc; stroke-linejoin: miter"/>
    </g>
    <g id="line2d_27">
     <path d="M 418.01 54.954438 
L 428.01 54.954438 
L 438.01 54.954438 
" style="fill: none; stroke: #0000ff; stroke-width: 1.5; stroke-linecap: square"/>
    </g>
    <g id="text_32">
     <!-- Predicted Cd -->
     <g transform="translate(446.01 58.454438) scale(0.1 -0.1)">
      <use xlink:href="#DejaVuSans-50"/>
      <use xlink:href="#DejaVuSans-72" x="58.552734"/>
      <use xlink:href="#DejaVuSans-65" x="97.416016"/>
      <use xlink:href="#DejaVuSans-64" x="158.939453"/>
      <use xlink:href="#DejaVuSans-69" x="222.416016"/>
      <use xlink:href="#DejaVuSans-63" x="250.199219"/>
      <use xlink:href="#DejaVuSans-74" x="305.179688"/>
      <use xlink:href="#DejaVuSans-65" x="344.388672"/>
      <use xlink:href="#DejaVuSans-64" x="405.912109"/>
      <use xlink:href="#DejaVuSans-20" x="469.388672"/>
      <use xlink:href="#DejaVuSans-43" x="501.175781"/>
      <use xlink:href="#DejaVuSans-64" x="571"/>
     </g>
    </g>
    <g id="PathCollection_4">
     <g>
      <use xlink:href="#mfef3153168" x="428.01" y="70.507563" style="fill: #ffa500; stroke: #ffa500"/>
     </g>
    </g>
    <g id="text_33">
     <!-- Original Cd -->
     <g transform="translate(446.01 73.132563) scale(0.1 -0.1)">
      <use xlink:href="#DejaVuSans-4f"/>
      <use xlink:href="#DejaVuSans-72" x="78.710938"/>
      <use xlink:href="#DejaVuSans-69" x="119.824219"/>
      <use xlink:href="#DejaVuSans-67" x="147.607422"/>
      <use xlink:href="#DejaVuSans-69" x="211.083984"/>
      <use xlink:href="#DejaVuSans-6e" x="238.867188"/>
      <use xlink:href="#DejaVuSans-61" x="302.246094"/>
      <use xlink:href="#DejaVuSans-6c" x="363.525391"/>
      <use xlink:href="#DejaVuSans-20" x="391.308594"/>
      <use xlink:href="#DejaVuSans-43" x="423.095703"/>
      <use xlink:href="#DejaVuSans-64" x="492.919922"/>
     </g>
    </g>
   </g>
  </g>
  <g id="axes_3">
   <g id="patch_14">
    <path d="M 770.3 318.04 
L 1069.2 318.04 
L 1069.2 41.856 
L 770.3 41.856 
z
" style="fill: #ffffff"/>
   </g>
   <g id="PathCollection_5">
    <g clip-path="url(#p4f856d01b3)">
     <use xlink:href="#mfef3153168" x="822.19153" y="277.019198" style="fill: #ffa500; stroke: #ffa500"/>
     <use xlink:href="#mfef3153168" x="825.782639" y="269.622265" style="fill: #ffa500; stroke: #ffa500"/>
     <use xlink:href="#mfef3153168" x="832.964858" y="253.035204" style="fill: #ffa500; stroke: #ffa500"/>
     <use xlink:href="#mfef3153168" x="836.555967" y="245.638271" style="fill: #ffa500; stroke: #ffa500"/>
     <use xlink:href="#mfef3153168" x="840.147076" y="238.689637" style="fill: #ffa500; stroke: #ffa500"/>
     <use xlink:href="#mfef3153168" x="843.738186" y="231.741003" style="fill: #ffa500; stroke: #ffa500"/>
     <use xlink:href="#mfef3153168" x="847.329295" y="224.344071" style="fill: #ffa500; stroke: #ffa500"/>
     <use xlink:href="#mfef3153168" x="850.920404" y="216.05054" style="fill: #ffa500; stroke: #ffa500"/>
     <use xlink:href="#mfef3153168" x="854.511514" y="205.515514" style="fill: #ffa500; stroke: #ffa500"/>
     <use xlink:href="#mfef3153168" x="861.693732" y="248.328065" style="fill: #ffa500; stroke: #ffa500"/>
     <use xlink:href="#mfef3153168" x="865.284842" y="238.017189" style="fill: #ffa500; stroke: #ffa500"/>
     <use xlink:href="#mfef3153168" x="868.875951" y="228.154612" style="fill: #ffa500; stroke: #ffa500"/>
     <use xlink:href="#mfef3153168" x="872.46706" y="218.740334" style="fill: #ffa500; stroke: #ffa500"/>
     <use xlink:href="#mfef3153168" x="879.649279" y="199.911777" style="fill: #ffa500; stroke: #ffa500"/>
     <use xlink:href="#mfef3153168" x="890.422607" y="157.323376" style="fill: #ffa500; stroke: #ffa500"/>
     <use xlink:href="#mfef3153168" x="894.013716" y="147.909098" style="fill: #ffa500; stroke: #ffa500"/>
     <use xlink:href="#mfef3153168" x="897.604826" y="138.49482" style="fill: #ffa500; stroke: #ffa500"/>
     <use xlink:href="#mfef3153168" x="901.195935" y="129.080542" style="fill: #ffa500; stroke: #ffa500"/>
     <use xlink:href="#mfef3153168" x="904.787044" y="119.217965" style="fill: #ffa500; stroke: #ffa500"/>
     <use xlink:href="#mfef3153168" x="908.378154" y="108.68294" style="fill: #ffa500; stroke: #ffa500"/>
     <use xlink:href="#mfef3153168" x="911.969263" y="98.147914" style="fill: #ffa500; stroke: #ffa500"/>
     <use xlink:href="#mfef3153168" x="915.560372" y="88.285337" style="fill: #ffa500; stroke: #ffa500"/>
     <use xlink:href="#mfef3153168" x="1001.746996" y="161.133918" style="fill: #ffa500; stroke: #ffa500"/>
     <use xlink:href="#mfef3153168" x="1016.111434" y="203.946468" style="fill: #ffa500; stroke: #ffa500"/>
     <use xlink:href="#mfef3153168" x="1019.702543" y="214.481493" style="fill: #ffa500; stroke: #ffa500"/>
     <use xlink:href="#mfef3153168" x="1023.293652" y="224.56822" style="fill: #ffa500; stroke: #ffa500"/>
     <use xlink:href="#mfef3153168" x="1041.249199" y="271.639611" style="fill: #ffa500; stroke: #ffa500"/>
     <use xlink:href="#mfef3153168" x="1052.022527" y="297.64095" style="fill: #ffa500; stroke: #ffa500"/>
     <use xlink:href="#mfef3153168" x="1055.613636" y="305.486182" style="fill: #ffa500; stroke: #ffa500"/>
    </g>
   </g>
   <g id="matplotlib.axis_5">
    <g id="xtick_11">
     <g id="line2d_28">
      <g>
       <use xlink:href="#mec4c9475d2" x="819.797457" y="318.04" style="stroke: #000000; stroke-width: 0.8"/>
      </g>
     </g>
     <g id="text_34">
      <!-- 0 -->
      <g transform="translate(816.616207 332.638438) scale(0.1 -0.1)">
       <use xlink:href="#DejaVuSans-30"/>
      </g>
     </g>
    </g>
    <g id="xtick_12">
     <g id="line2d_29">
      <g>
       <use xlink:href="#mec4c9475d2" x="879.649279" y="318.04" style="stroke: #000000; stroke-width: 0.8"/>
      </g>
     </g>
     <g id="text_35">
      <!-- 5 -->
      <g transform="translate(876.468029 332.638438) scale(0.1 -0.1)">
       <use xlink:href="#DejaVuSans-35"/>
      </g>
     </g>
    </g>
    <g id="xtick_13">
     <g id="line2d_30">
      <g>
       <use xlink:href="#mec4c9475d2" x="939.501101" y="318.04" style="stroke: #000000; stroke-width: 0.8"/>
      </g>
     </g>
     <g id="text_36">
      <!-- 10 -->
      <g transform="translate(933.138601 332.638438) scale(0.1 -0.1)">
       <use xlink:href="#DejaVuSans-31"/>
       <use xlink:href="#DejaVuSans-30" x="63.623047"/>
      </g>
     </g>
    </g>
    <g id="xtick_14">
     <g id="line2d_31">
      <g>
       <use xlink:href="#mec4c9475d2" x="999.352924" y="318.04" style="stroke: #000000; stroke-width: 0.8"/>
      </g>
     </g>
     <g id="text_37">
      <!-- 15 -->
      <g transform="translate(992.990424 332.638438) scale(0.1 -0.1)">
       <use xlink:href="#DejaVuSans-31"/>
       <use xlink:href="#DejaVuSans-35" x="63.623047"/>
      </g>
     </g>
    </g>
    <g id="xtick_15">
     <g id="line2d_32">
      <g>
       <use xlink:href="#mec4c9475d2" x="1059.204746" y="318.04" style="stroke: #000000; stroke-width: 0.8"/>
      </g>
     </g>
     <g id="text_38">
      <!-- 20 -->
      <g transform="translate(1052.842246 332.638438) scale(0.1 -0.1)">
       <use xlink:href="#DejaVuSans-32"/>
       <use xlink:href="#DejaVuSans-30" x="63.623047"/>
      </g>
     </g>
    </g>
    <g id="text_39">
     <!-- Alpha -->
     <g transform="translate(905.533594 346.316563) scale(0.1 -0.1)">
      <use xlink:href="#DejaVuSans-41"/>
      <use xlink:href="#DejaVuSans-6c" x="68.408203"/>
      <use xlink:href="#DejaVuSans-70" x="96.191406"/>
      <use xlink:href="#DejaVuSans-68" x="159.667969"/>
      <use xlink:href="#DejaVuSans-61" x="223.046875"/>
     </g>
    </g>
   </g>
   <g id="matplotlib.axis_6">
    <g id="ytick_14">
     <g id="line2d_33">
      <g>
       <use xlink:href="#m95f6b2c51e" x="770.3" y="285.985177" style="stroke: #000000; stroke-width: 0.8"/>
      </g>
     </g>
     <g id="text_40">
      <!-- 0.10 -->
      <g transform="translate(732.654687 289.784396) scale(0.1 -0.1)">
       <defs>
        <path id="DejaVuSans-2212" d="M 678 2272 
L 4684 2272 
L 4684 1741 
L 678 1741 
L 678 2272 
z
" transform="scale(0.015625)"/>
       </defs>
       <use xlink:href="#DejaVuSans-2212"/>
       <use xlink:href="#DejaVuSans-30" x="83.789062"/>
       <use xlink:href="#DejaVuSans-2e" x="147.412109"/>
       <use xlink:href="#DejaVuSans-31" x="179.199219"/>
       <use xlink:href="#DejaVuSans-30" x="242.822266"/>
      </g>
     </g>
    </g>
    <g id="ytick_15">
     <g id="line2d_34">
      <g>
       <use xlink:href="#m95f6b2c51e" x="770.3" y="241.155281" style="stroke: #000000; stroke-width: 0.8"/>
      </g>
     </g>
     <g id="text_41">
      <!-- 0.08 -->
      <g transform="translate(732.654687 244.9545) scale(0.1 -0.1)">
       <use xlink:href="#DejaVuSans-2212"/>
       <use xlink:href="#DejaVuSans-30" x="83.789062"/>
       <use xlink:href="#DejaVuSans-2e" x="147.412109"/>
       <use xlink:href="#DejaVuSans-30" x="179.199219"/>
       <use xlink:href="#DejaVuSans-38" x="242.822266"/>
      </g>
     </g>
    </g>
    <g id="ytick_16">
     <g id="line2d_35">
      <g>
       <use xlink:href="#m95f6b2c51e" x="770.3" y="196.325386" style="stroke: #000000; stroke-width: 0.8"/>
      </g>
     </g>
     <g id="text_42">
      <!-- 0.06 -->
      <g transform="translate(732.654687 200.124604) scale(0.1 -0.1)">
       <use xlink:href="#DejaVuSans-2212"/>
       <use xlink:href="#DejaVuSans-30" x="83.789062"/>
       <use xlink:href="#DejaVuSans-2e" x="147.412109"/>
       <use xlink:href="#DejaVuSans-30" x="179.199219"/>
       <use xlink:href="#DejaVuSans-36" x="242.822266"/>
      </g>
     </g>
    </g>
    <g id="ytick_17">
     <g id="line2d_36">
      <g>
       <use xlink:href="#m95f6b2c51e" x="770.3" y="151.49549" style="stroke: #000000; stroke-width: 0.8"/>
      </g>
     </g>
     <g id="text_43">
      <!-- 0.04 -->
      <g transform="translate(732.654687 155.294709) scale(0.1 -0.1)">
       <use xlink:href="#DejaVuSans-2212"/>
       <use xlink:href="#DejaVuSans-30" x="83.789062"/>
       <use xlink:href="#DejaVuSans-2e" x="147.412109"/>
       <use xlink:href="#DejaVuSans-30" x="179.199219"/>
       <use xlink:href="#DejaVuSans-34" x="242.822266"/>
      </g>
     </g>
    </g>
    <g id="ytick_18">
     <g id="line2d_37">
      <g>
       <use xlink:href="#m95f6b2c51e" x="770.3" y="106.665594" style="stroke: #000000; stroke-width: 0.8"/>
      </g>
     </g>
     <g id="text_44">
      <!-- 0.02 -->
      <g transform="translate(732.654687 110.464813) scale(0.1 -0.1)">
       <use xlink:href="#DejaVuSans-2212"/>
       <use xlink:href="#DejaVuSans-30" x="83.789062"/>
       <use xlink:href="#DejaVuSans-2e" x="147.412109"/>
       <use xlink:href="#DejaVuSans-30" x="179.199219"/>
       <use xlink:href="#DejaVuSans-32" x="242.822266"/>
      </g>
     </g>
    </g>
    <g id="ytick_19">
     <g id="line2d_38">
      <g>
       <use xlink:href="#m95f6b2c51e" x="770.3" y="61.835699" style="stroke: #000000; stroke-width: 0.8"/>
      </g>
     </g>
     <g id="text_45">
      <!-- 0.00 -->
      <g transform="translate(741.034375 65.634917) scale(0.1 -0.1)">
       <use xlink:href="#DejaVuSans-30"/>
       <use xlink:href="#DejaVuSans-2e" x="63.623047"/>
       <use xlink:href="#DejaVuSans-30" x="95.410156"/>
       <use xlink:href="#DejaVuSans-30" x="159.033203"/>
      </g>
     </g>
    </g>
    <g id="text_46">
     <!-- Cm -->
     <g transform="translate(726.575 188.309719) rotate(-90) scale(0.1 -0.1)">
      <defs>
       <path id="DejaVuSans-6d" d="M 3328 2828 
Q 3544 3216 3844 3400 
Q 4144 3584 4550 3584 
Q 5097 3584 5394 3201 
Q 5691 2819 5691 2113 
L 5691 0 
L 5113 0 
L 5113 2094 
Q 5113 2597 4934 2840 
Q 4756 3084 4391 3084 
Q 3944 3084 3684 2787 
Q 3425 2491 3425 1978 
L 3425 0 
L 2847 0 
L 2847 2094 
Q 2847 2600 2669 2842 
Q 2491 3084 2119 3084 
Q 1678 3084 1418 2786 
Q 1159 2488 1159 1978 
L 1159 0 
L 581 0 
L 581 3500 
L 1159 3500 
L 1159 2956 
Q 1356 3278 1631 3431 
Q 1906 3584 2284 3584 
Q 2666 3584 2933 3390 
Q 3200 3197 3328 2828 
z
" transform="scale(0.015625)"/>
      </defs>
      <use xlink:href="#DejaVuSans-43"/>
      <use xlink:href="#DejaVuSans-6d" x="69.824219"/>
     </g>
    </g>
   </g>
   <g id="line2d_39">
    <path d="M 783.886364 305.34401 
L 786.062794 304.615571 
L 788.239223 303.738497 
L 790.415653 302.70798 
L 792.592083 301.533405 
L 794.768513 300.236549 
L 796.944943 298.819884 
L 799.121373 297.316411 
L 801.297803 295.737785 
L 803.474233 294.094061 
L 805.650663 292.387594 
L 807.827093 290.625213 
L 810.003522 288.821316 
L 812.179952 286.981846 
L 814.356382 285.110729 
L 816.532812 283.209635 
L 818.709242 281.278095 
L 820.885672 279.313523 
L 823.062102 277.311207 
L 825.238532 275.263633 
L 827.414962 273.159712 
L 829.591391 270.983344 
L 831.767821 268.710699 
L 833.944251 266.28825 
L 836.120681 263.683867 
L 838.297111 260.841603 
L 840.473541 257.682398 
L 842.649971 254.058253 
L 844.826401 249.873407 
L 847.002831 244.754472 
L 849.179261 238.045873 
L 851.35569 227.918778 
L 853.53212 216.511193 
L 855.70855 233.434999 
L 857.88498 254.932103 
L 860.06141 257.239285 
L 862.23784 255.605865 
L 864.41427 250.843001 
L 866.5907 244.244675 
L 868.76713 236.244313 
L 870.94356 227.339907 
L 873.119989 218.617352 
L 875.296419 210.848058 
L 877.472849 203.907874 
L 879.649279 197.02792 
L 881.825709 189.242009 
L 884.002139 180.594063 
L 886.178569 172.967867 
L 888.354999 166.795794 
L 890.531429 161.262288 
L 892.707859 155.853501 
L 894.884288 150.366321 
L 897.060718 144.677693 
L 899.237148 138.75768 
L 901.413578 132.63854 
L 903.590008 126.384877 
L 905.766438 120.052096 
L 907.942868 113.658927 
L 910.119298 107.190325 
L 912.295728 100.623696 
L 914.472157 93.961589 
L 916.648587 87.260088 
L 918.825017 80.646347 
L 921.001447 74.319847 
L 923.177877 68.531742 
L 925.354307 63.544615 
L 927.530737 59.571723 
L 929.707167 56.733275 
L 931.883597 55.041512 
L 934.060027 54.409818 
L 936.236456 54.685826 
L 938.412886 55.691243 
L 940.589316 57.254111 
L 942.765746 59.227752 
L 944.942176 61.49725 
L 947.118606 63.979035 
L 949.295036 66.61803 
L 951.471466 69.383773 
L 953.647896 72.242295 
L 955.824326 75.22977 
L 958.000755 78.373126 
L 960.177185 81.707025 
L 962.353615 85.266106 
L 964.530045 88.900229 
L 966.706475 92.770531 
L 968.882905 96.928616 
L 971.059335 101.423748 
L 973.235765 106.115427 
L 975.412195 110.921245 
L 977.588625 115.747813 
L 979.765054 120.496478 
L 981.941484 125.075033 
L 984.117914 129.407585 
L 986.294344 133.440912 
L 988.470774 137.145746 
L 990.647204 140.514541 
L 992.823634 143.556701 
L 995.000064 146.293335 
L 997.176494 148.752015 
L 999.352924 150.9574 
" clip-path="url(#p4f856d01b3)" style="fill: none; stroke: #0000ff; stroke-width: 1.5; stroke-linecap: square"/>
   </g>
   <g id="patch_15">
    <path d="M 770.3 318.04 
L 770.3 41.856 
" style="fill: none; stroke: #000000; stroke-width: 0.8; stroke-linejoin: miter; stroke-linecap: square"/>
   </g>
   <g id="patch_16">
    <path d="M 1069.2 318.04 
L 1069.2 41.856 
" style="fill: none; stroke: #000000; stroke-width: 0.8; stroke-linejoin: miter; stroke-linecap: square"/>
   </g>
   <g id="patch_17">
    <path d="M 770.3 318.04 
L 1069.2 318.04 
" style="fill: none; stroke: #000000; stroke-width: 0.8; stroke-linejoin: miter; stroke-linecap: square"/>
   </g>
   <g id="patch_18">
    <path d="M 770.3 41.856 
L 1069.2 41.856 
" style="fill: none; stroke: #000000; stroke-width: 0.8; stroke-linejoin: miter; stroke-linecap: square"/>
   </g>
   <g id="text_47">
    <!-- Re = 4474736 Mach = 0.70  -->
    <g transform="translate(834.625 22.418625) scale(0.12 -0.12)">
     <use xlink:href="#DejaVuSans-52"/>
     <use xlink:href="#DejaVuSans-65" x="64.982422"/>
     <use xlink:href="#DejaVuSans-20" x="126.505859"/>
     <use xlink:href="#DejaVuSans-3d" x="158.292969"/>
     <use xlink:href="#DejaVuSans-20" x="242.082031"/>
     <use xlink:href="#DejaVuSans-34" x="273.869141"/>
     <use xlink:href="#DejaVuSans-34" x="337.492188"/>
     <use xlink:href="#DejaVuSans-37" x="401.115234"/>
     <use xlink:href="#DejaVuSans-34" x="464.738281"/>
     <use xlink:href="#DejaVuSans-37" x="528.361328"/>
     <use xlink:href="#DejaVuSans-33" x="591.984375"/>
     <use xlink:href="#DejaVuSans-36" x="655.607422"/>
     <use xlink:href="#DejaVuSans-20" x="719.230469"/>
     <use xlink:href="#DejaVuSans-4d" x="751.017578"/>
     <use xlink:href="#DejaVuSans-61" x="837.296875"/>
     <use xlink:href="#DejaVuSans-63" x="898.576172"/>
     <use xlink:href="#DejaVuSans-68" x="953.556641"/>
     <use xlink:href="#DejaVuSans-20" x="1016.935547"/>
     <use xlink:href="#DejaVuSans-3d" x="1048.722656"/>
     <use xlink:href="#DejaVuSans-20" x="1132.511719"/>
     <use xlink:href="#DejaVuSans-30" x="1164.298828"/>
     <use xlink:href="#DejaVuSans-2e" x="1227.921875"/>
     <use xlink:href="#DejaVuSans-37" x="1259.708984"/>
     <use xlink:href="#DejaVuSans-30" x="1323.332031"/>
     <use xlink:href="#DejaVuSans-20" x="1386.955078"/>
    </g>
    <!--  Cm vs Alpha -->
    <g transform="translate(880.25875 35.856) scale(0.12 -0.12)">
     <use xlink:href="#DejaVuSans-20"/>
     <use xlink:href="#DejaVuSans-43" x="31.787109"/>
     <use xlink:href="#DejaVuSans-6d" x="101.611328"/>
     <use xlink:href="#DejaVuSans-20" x="199.023438"/>
     <use xlink:href="#DejaVuSans-76" x="230.810547"/>
     <use xlink:href="#DejaVuSans-73" x="289.990234"/>
     <use xlink:href="#DejaVuSans-20" x="342.089844"/>
     <use xlink:href="#DejaVuSans-41" x="373.876953"/>
     <use xlink:href="#DejaVuSans-6c" x="442.285156"/>
     <use xlink:href="#DejaVuSans-70" x="470.068359"/>
     <use xlink:href="#DejaVuSans-68" x="533.544922"/>
     <use xlink:href="#DejaVuSans-61" x="596.923828"/>
    </g>
   </g>
   <g id="legend_3">
    <g id="patch_19">
     <path d="M 963.357813 79.21225 
L 1062.2 79.21225 
Q 1064.2 79.21225 1064.2 77.21225 
L 1064.2 48.856 
Q 1064.2 46.856 1062.2 46.856 
L 963.357813 46.856 
Q 961.357813 46.856 961.357813 48.856 
L 961.357813 77.21225 
Q 961.357813 79.21225 963.357813 79.21225 
z
" style="fill: #ffffff; opacity: 0.8; stroke: #cccccc; stroke-linejoin: miter"/>
    </g>
    <g id="line2d_40">
     <path d="M 965.357813 54.954438 
L 975.357813 54.954438 
L 985.357813 54.954438 
" style="fill: none; stroke: #0000ff; stroke-width: 1.5; stroke-linecap: square"/>
    </g>
    <g id="text_48">
     <!-- Predicted Cm -->
     <g transform="translate(993.357813 58.454438) scale(0.1 -0.1)">
      <use xlink:href="#DejaVuSans-50"/>
      <use xlink:href="#DejaVuSans-72" x="58.552734"/>
      <use xlink:href="#DejaVuSans-65" x="97.416016"/>
      <use xlink:href="#DejaVuSans-64" x="158.939453"/>
      <use xlink:href="#DejaVuSans-69" x="222.416016"/>
      <use xlink:href="#DejaVuSans-63" x="250.199219"/>
      <use xlink:href="#DejaVuSans-74" x="305.179688"/>
      <use xlink:href="#DejaVuSans-65" x="344.388672"/>
      <use xlink:href="#DejaVuSans-64" x="405.912109"/>
      <use xlink:href="#DejaVuSans-20" x="469.388672"/>
      <use xlink:href="#DejaVuSans-43" x="501.175781"/>
      <use xlink:href="#DejaVuSans-6d" x="571"/>
     </g>
    </g>
    <g id="PathCollection_6">
     <g>
      <use xlink:href="#mfef3153168" x="975.357813" y="70.507563" style="fill: #ffa500; stroke: #ffa500"/>
     </g>
    </g>
    <g id="text_49">
     <!-- Original Cm -->
     <g transform="translate(993.357813 73.132563) scale(0.1 -0.1)">
      <use xlink:href="#DejaVuSans-4f"/>
      <use xlink:href="#DejaVuSans-72" x="78.710938"/>
      <use xlink:href="#DejaVuSans-69" x="119.824219"/>
      <use xlink:href="#DejaVuSans-67" x="147.607422"/>
      <use xlink:href="#DejaVuSans-69" x="211.083984"/>
      <use xlink:href="#DejaVuSans-6e" x="238.867188"/>
      <use xlink:href="#DejaVuSans-61" x="302.246094"/>
      <use xlink:href="#DejaVuSans-6c" x="363.525391"/>
      <use xlink:href="#DejaVuSans-20" x="391.308594"/>
      <use xlink:href="#DejaVuSans-43" x="423.095703"/>
      <use xlink:href="#DejaVuSans-6d" x="492.919922"/>
     </g>
    </g>
   </g>
  </g>
 </g>
 <defs>
  <clipPath id="pccc7c85f79">
   <rect x="47.72" y="41.856" width="298.9" height="276.184"/>
  </clipPath>
  <clipPath id="p8548de4854">
   <rect x="409.01" y="41.856" width="298.9" height="276.184"/>
  </clipPath>
  <clipPath id="p4f856d01b3">
   <rect x="770.3" y="41.856" width="298.9" height="276.184"/>
  </clipPath>
 </defs>
</svg>
