<?xml version="1.0" encoding="utf-8" standalone="no"?>
<!DOCTYPE svg PUBLIC "-//W3C//DTD SVG 1.1//EN"
  "http://www.w3.org/Graphics/SVG/1.1/DTD/svg11.dtd">
<svg xmlns:xlink="http://www.w3.org/1999/xlink" width="1080pt" height="360pt" viewBox="0 0 1080 360" xmlns="http://www.w3.org/2000/svg" version="1.1">
 <metadata>
  <rdf:RDF xmlns:dc="http://purl.org/dc/elements/1.1/" xmlns:cc="http://creativecommons.org/ns#" xmlns:rdf="http://www.w3.org/1999/02/22-rdf-syntax-ns#">
   <cc:Work>
    <dc:type rdf:resource="http://purl.org/dc/dcmitype/StillImage"/>
    <dc:date>2024-08-23T18:19:33.476956</dc:date>
    <dc:format>image/svg+xml</dc:format>
    <dc:creator>
     <cc:Agent>
      <dc:title>Matplotlib v3.7.5, https://matplotlib.org/</dc:title>
     </cc:Agent>
    </dc:creator>
   </cc:Work>
  </rdf:RDF>
 </metadata>
 <defs>
  <style type="text/css">*{stroke-linejoin: round; stroke-linecap: butt}</style>
 </defs>
 <g id="figure_1">
  <g id="patch_1">
   <path d="M 0 360 
L 1080 360 
L 1080 0 
L 0 0 
z
" style="fill: #ffffff"/>
  </g>
  <g id="axes_1">
   <g id="patch_2">
    <path d="M 47.72 318.04 
L 346.62 318.04 
L 346.62 41.856 
L 47.72 41.856 
z
" style="fill: #ffffff"/>
   </g>
   <g id="PathCollection_1">
    <defs>
     <path id="mdde6ed03c4" d="M 0 3 
C 0.795609 3 1.55874 2.683901 2.12132 2.12132 
C 2.683901 1.55874 3 0.795609 3 0 
C 3 -0.795609 2.683901 -1.55874 2.12132 -2.12132 
C 1.55874 -2.683901 0.795609 -3 0 -3 
C -0.795609 -3 -1.55874 -2.683901 -2.12132 -2.12132 
C -2.683901 -1.55874 -3 -0.795609 -3 0 
C -3 0.795609 -2.683901 1.55874 -2.12132 2.12132 
C -1.55874 2.683901 -0.795609 3 0 3 
z
" style="stroke: #ffa500"/>
    </defs>
    <g clip-path="url(#p7a4ad0bbb7)">
     <use xlink:href="#mdde6ed03c4" x="102.910539" y="225.855204" style="fill: #ffa500; stroke: #ffa500"/>
     <use xlink:href="#mdde6ed03c4" x="106.810931" y="219.305998" style="fill: #ffa500; stroke: #ffa500"/>
     <use xlink:href="#mdde6ed03c4" x="110.711322" y="213.028866" style="fill: #ffa500; stroke: #ffa500"/>
     <use xlink:href="#mdde6ed03c4" x="114.611714" y="206.421359" style="fill: #ffa500; stroke: #ffa500"/>
     <use xlink:href="#mdde6ed03c4" x="118.512105" y="199.65838" style="fill: #ffa500; stroke: #ffa500"/>
     <use xlink:href="#mdde6ed03c4" x="122.412497" y="192.953704" style="fill: #ffa500; stroke: #ffa500"/>
     <use xlink:href="#mdde6ed03c4" x="126.312888" y="186.385064" style="fill: #ffa500; stroke: #ffa500"/>
     <use xlink:href="#mdde6ed03c4" x="130.21328" y="181.118492" style="fill: #ffa500; stroke: #ffa500"/>
     <use xlink:href="#mdde6ed03c4" x="161.416411" y="100.390297" style="fill: #ffa500; stroke: #ffa500"/>
     <use xlink:href="#mdde6ed03c4" x="165.316803" y="92.830531" style="fill: #ffa500; stroke: #ffa500"/>
     <use xlink:href="#mdde6ed03c4" x="169.217194" y="85.173596" style="fill: #ffa500; stroke: #ffa500"/>
     <use xlink:href="#mdde6ed03c4" x="173.117586" y="77.808168" style="fill: #ffa500; stroke: #ffa500"/>
     <use xlink:href="#mdde6ed03c4" x="180.918369" y="76.428365" style="fill: #ffa500; stroke: #ffa500"/>
     <use xlink:href="#mdde6ed03c4" x="184.81876" y="71.80311" style="fill: #ffa500; stroke: #ffa500"/>
     <use xlink:href="#mdde6ed03c4" x="188.719152" y="66.672575" style="fill: #ffa500; stroke: #ffa500"/>
     <use xlink:href="#mdde6ed03c4" x="192.619543" y="61.833547" style="fill: #ffa500; stroke: #ffa500"/>
     <use xlink:href="#mdde6ed03c4" x="196.519935" y="57.966212" style="fill: #ffa500; stroke: #ffa500"/>
     <use xlink:href="#mdde6ed03c4" x="200.420326" y="55.498114" style="fill: #ffa500; stroke: #ffa500"/>
     <use xlink:href="#mdde6ed03c4" x="204.320718" y="54.409818" style="fill: #ffa500; stroke: #ffa500"/>
     <use xlink:href="#mdde6ed03c4" x="208.221109" y="54.9734" style="fill: #ffa500; stroke: #ffa500"/>
     <use xlink:href="#mdde6ed03c4" x="212.121501" y="56.450372" style="fill: #ffa500; stroke: #ffa500"/>
     <use xlink:href="#mdde6ed03c4" x="216.021892" y="58.529793" style="fill: #ffa500; stroke: #ffa500"/>
     <use xlink:href="#mdde6ed03c4" x="219.922284" y="62.319393" style="fill: #ffa500; stroke: #ffa500"/>
     <use xlink:href="#mdde6ed03c4" x="223.822675" y="65.934089" style="fill: #ffa500; stroke: #ffa500"/>
     <use xlink:href="#mdde6ed03c4" x="227.723067" y="69.645953" style="fill: #ffa500; stroke: #ffa500"/>
     <use xlink:href="#mdde6ed03c4" x="231.623458" y="73.765928" style="fill: #ffa500; stroke: #ffa500"/>
     <use xlink:href="#mdde6ed03c4" x="235.523849" y="78.332882" style="fill: #ffa500; stroke: #ffa500"/>
     <use xlink:href="#mdde6ed03c4" x="239.424241" y="82.41399" style="fill: #ffa500; stroke: #ffa500"/>
     <use xlink:href="#mdde6ed03c4" x="243.324632" y="86.96151" style="fill: #ffa500; stroke: #ffa500"/>
     <use xlink:href="#mdde6ed03c4" x="247.225024" y="91.120353" style="fill: #ffa500; stroke: #ffa500"/>
     <use xlink:href="#mdde6ed03c4" x="251.125415" y="94.832217" style="fill: #ffa500; stroke: #ffa500"/>
     <use xlink:href="#mdde6ed03c4" x="255.025807" y="98.757854" style="fill: #ffa500; stroke: #ffa500"/>
     <use xlink:href="#mdde6ed03c4" x="258.926198" y="102.02274" style="fill: #ffa500; stroke: #ffa500"/>
     <use xlink:href="#mdde6ed03c4" x="262.82659" y="105.251997" style="fill: #ffa500; stroke: #ffa500"/>
     <use xlink:href="#mdde6ed03c4" x="270.627373" y="111.224666" style="fill: #ffa500; stroke: #ffa500"/>
     <use xlink:href="#mdde6ed03c4" x="290.12933" y="114.382666" style="fill: #ffa500; stroke: #ffa500"/>
     <use xlink:href="#mdde6ed03c4" x="305.730896" y="150.665656" style="fill: #ffa500; stroke: #ffa500"/>
     <use xlink:href="#mdde6ed03c4" x="313.531679" y="152.803379" style="fill: #ffa500; stroke: #ffa500"/>
     <use xlink:href="#mdde6ed03c4" x="321.332462" y="153.211489" style="fill: #ffa500; stroke: #ffa500"/>
     <use xlink:href="#mdde6ed03c4" x="329.133245" y="154.241483" style="fill: #ffa500; stroke: #ffa500"/>
     <use xlink:href="#mdde6ed03c4" x="333.033636" y="154.066579" style="fill: #ffa500; stroke: #ffa500"/>
    </g>
   </g>
   <g id="matplotlib.axis_1">
    <g id="xtick_1">
     <g id="line2d_1">
      <defs>
       <path id="m73672ede99" d="M 0 0 
L 0 3.5 
" style="stroke: #000000; stroke-width: 0.8"/>
      </defs>
      <g>
       <use xlink:href="#m73672ede99" x="100.310278" y="318.04" style="stroke: #000000; stroke-width: 0.8"/>
      </g>
     </g>
     <g id="text_1">
      <!-- 0 -->
      <g transform="translate(97.129028 332.638438) scale(0.1 -0.1)">
       <defs>
        <path id="DejaVuSans-30" d="M 2034 4250 
Q 1547 4250 1301 3770 
Q 1056 3291 1056 2328 
Q 1056 1369 1301 889 
Q 1547 409 2034 409 
Q 2525 409 2770 889 
Q 3016 1369 3016 2328 
Q 3016 3291 2770 3770 
Q 2525 4250 2034 4250 
z
M 2034 4750 
Q 2819 4750 3233 4129 
Q 3647 3509 3647 2328 
Q 3647 1150 3233 529 
Q 2819 -91 2034 -91 
Q 1250 -91 836 529 
Q 422 1150 422 2328 
Q 422 3509 836 4129 
Q 1250 4750 2034 4750 
z
" transform="scale(0.015625)"/>
       </defs>
       <use xlink:href="#DejaVuSans-30"/>
      </g>
     </g>
    </g>
    <g id="xtick_2">
     <g id="line2d_2">
      <g>
       <use xlink:href="#m73672ede99" x="165.316803" y="318.04" style="stroke: #000000; stroke-width: 0.8"/>
      </g>
     </g>
     <g id="text_2">
      <!-- 5 -->
      <g transform="translate(162.135553 332.638438) scale(0.1 -0.1)">
       <defs>
        <path id="DejaVuSans-35" d="M 691 4666 
L 3169 4666 
L 3169 4134 
L 1269 4134 
L 1269 2991 
Q 1406 3038 1543 3061 
Q 1681 3084 1819 3084 
Q 2600 3084 3056 2656 
Q 3513 2228 3513 1497 
Q 3513 744 3044 326 
Q 2575 -91 1722 -91 
Q 1428 -91 1123 -41 
Q 819 9 494 109 
L 494 744 
Q 775 591 1075 516 
Q 1375 441 1709 441 
Q 2250 441 2565 725 
Q 2881 1009 2881 1497 
Q 2881 1984 2565 2268 
Q 2250 2553 1709 2553 
Q 1456 2553 1204 2497 
Q 953 2441 691 2322 
L 691 4666 
z
" transform="scale(0.015625)"/>
       </defs>
       <use xlink:href="#DejaVuSans-35"/>
      </g>
     </g>
    </g>
    <g id="xtick_3">
     <g id="line2d_3">
      <g>
       <use xlink:href="#m73672ede99" x="230.323328" y="318.04" style="stroke: #000000; stroke-width: 0.8"/>
      </g>
     </g>
     <g id="text_3">
      <!-- 10 -->
      <g transform="translate(223.960828 332.638438) scale(0.1 -0.1)">
       <defs>
        <path id="DejaVuSans-31" d="M 794 531 
L 1825 531 
L 1825 4091 
L 703 3866 
L 703 4441 
L 1819 4666 
L 2450 4666 
L 2450 531 
L 3481 531 
L 3481 0 
L 794 0 
L 794 531 
z
" transform="scale(0.015625)"/>
       </defs>
       <use xlink:href="#DejaVuSans-31"/>
       <use xlink:href="#DejaVuSans-30" x="63.623047"/>
      </g>
     </g>
    </g>
    <g id="xtick_4">
     <g id="line2d_4">
      <g>
       <use xlink:href="#m73672ede99" x="295.329852" y="318.04" style="stroke: #000000; stroke-width: 0.8"/>
      </g>
     </g>
     <g id="text_4">
      <!-- 15 -->
      <g transform="translate(288.967352 332.638438) scale(0.1 -0.1)">
       <use xlink:href="#DejaVuSans-31"/>
       <use xlink:href="#DejaVuSans-35" x="63.623047"/>
      </g>
     </g>
    </g>
    <g id="text_5">
     <!-- Alpha -->
     <g transform="translate(182.953594 346.316563) scale(0.1 -0.1)">
      <defs>
       <path id="DejaVuSans-41" d="M 2188 4044 
L 1331 1722 
L 3047 1722 
L 2188 4044 
z
M 1831 4666 
L 2547 4666 
L 4325 0 
L 3669 0 
L 3244 1197 
L 1141 1197 
L 716 0 
L 50 0 
L 1831 4666 
z
" transform="scale(0.015625)"/>
       <path id="DejaVuSans-6c" d="M 603 4863 
L 1178 4863 
L 1178 0 
L 603 0 
L 603 4863 
z
" transform="scale(0.015625)"/>
       <path id="DejaVuSans-70" d="M 1159 525 
L 1159 -1331 
L 581 -1331 
L 581 3500 
L 1159 3500 
L 1159 2969 
Q 1341 3281 1617 3432 
Q 1894 3584 2278 3584 
Q 2916 3584 3314 3078 
Q 3713 2572 3713 1747 
Q 3713 922 3314 415 
Q 2916 -91 2278 -91 
Q 1894 -91 1617 61 
Q 1341 213 1159 525 
z
M 3116 1747 
Q 3116 2381 2855 2742 
Q 2594 3103 2138 3103 
Q 1681 3103 1420 2742 
Q 1159 2381 1159 1747 
Q 1159 1113 1420 752 
Q 1681 391 2138 391 
Q 2594 391 2855 752 
Q 3116 1113 3116 1747 
z
" transform="scale(0.015625)"/>
       <path id="DejaVuSans-68" d="M 3513 2113 
L 3513 0 
L 2938 0 
L 2938 2094 
Q 2938 2591 2744 2837 
Q 2550 3084 2163 3084 
Q 1697 3084 1428 2787 
Q 1159 2491 1159 1978 
L 1159 0 
L 581 0 
L 581 4863 
L 1159 4863 
L 1159 2956 
Q 1366 3272 1645 3428 
Q 1925 3584 2291 3584 
Q 2894 3584 3203 3211 
Q 3513 2838 3513 2113 
z
" transform="scale(0.015625)"/>
       <path id="DejaVuSans-61" d="M 2194 1759 
Q 1497 1759 1228 1600 
Q 959 1441 959 1056 
Q 959 750 1161 570 
Q 1363 391 1709 391 
Q 2188 391 2477 730 
Q 2766 1069 2766 1631 
L 2766 1759 
L 2194 1759 
z
M 3341 1997 
L 3341 0 
L 2766 0 
L 2766 531 
Q 2569 213 2275 61 
Q 1981 -91 1556 -91 
Q 1019 -91 701 211 
Q 384 513 384 1019 
Q 384 1609 779 1909 
Q 1175 2209 1959 2209 
L 2766 2209 
L 2766 2266 
Q 2766 2663 2505 2880 
Q 2244 3097 1772 3097 
Q 1472 3097 1187 3025 
Q 903 2953 641 2809 
L 641 3341 
Q 956 3463 1253 3523 
Q 1550 3584 1831 3584 
Q 2591 3584 2966 3190 
Q 3341 2797 3341 1997 
z
" transform="scale(0.015625)"/>
      </defs>
      <use xlink:href="#DejaVuSans-41"/>
      <use xlink:href="#DejaVuSans-6c" x="68.408203"/>
      <use xlink:href="#DejaVuSans-70" x="96.191406"/>
      <use xlink:href="#DejaVuSans-68" x="159.667969"/>
      <use xlink:href="#DejaVuSans-61" x="223.046875"/>
     </g>
    </g>
   </g>
   <g id="matplotlib.axis_2">
    <g id="ytick_1">
     <g id="line2d_5">
      <defs>
       <path id="mefdb411267" d="M 0 0 
L -3.5 0 
" style="stroke: #000000; stroke-width: 0.8"/>
      </defs>
      <g>
       <use xlink:href="#mefdb411267" x="47.72" y="292.105184" style="stroke: #000000; stroke-width: 0.8"/>
      </g>
     </g>
     <g id="text_6">
      <!-- 0.2 -->
      <g transform="translate(24.816875 295.904403) scale(0.1 -0.1)">
       <defs>
        <path id="DejaVuSans-2e" d="M 684 794 
L 1344 794 
L 1344 0 
L 684 0 
L 684 794 
z
" transform="scale(0.015625)"/>
        <path id="DejaVuSans-32" d="M 1228 531 
L 3431 531 
L 3431 0 
L 469 0 
L 469 531 
Q 828 903 1448 1529 
Q 2069 2156 2228 2338 
Q 2531 2678 2651 2914 
Q 2772 3150 2772 3378 
Q 2772 3750 2511 3984 
Q 2250 4219 1831 4219 
Q 1534 4219 1204 4116 
Q 875 4013 500 3803 
L 500 4441 
Q 881 4594 1212 4672 
Q 1544 4750 1819 4750 
Q 2544 4750 2975 4387 
Q 3406 4025 3406 3419 
Q 3406 3131 3298 2873 
Q 3191 2616 2906 2266 
Q 2828 2175 2409 1742 
Q 1991 1309 1228 531 
z
" transform="scale(0.015625)"/>
       </defs>
       <use xlink:href="#DejaVuSans-30"/>
       <use xlink:href="#DejaVuSans-2e" x="63.623047"/>
       <use xlink:href="#DejaVuSans-32" x="95.410156"/>
      </g>
     </g>
    </g>
    <g id="ytick_2">
     <g id="line2d_6">
      <g>
       <use xlink:href="#mefdb411267" x="47.72" y="253.237493" style="stroke: #000000; stroke-width: 0.8"/>
      </g>
     </g>
     <g id="text_7">
      <!-- 0.4 -->
      <g transform="translate(24.816875 257.036712) scale(0.1 -0.1)">
       <defs>
        <path id="DejaVuSans-34" d="M 2419 4116 
L 825 1625 
L 2419 1625 
L 2419 4116 
z
M 2253 4666 
L 3047 4666 
L 3047 1625 
L 3713 1625 
L 3713 1100 
L 3047 1100 
L 3047 0 
L 2419 0 
L 2419 1100 
L 313 1100 
L 313 1709 
L 2253 4666 
z
" transform="scale(0.015625)"/>
       </defs>
       <use xlink:href="#DejaVuSans-30"/>
       <use xlink:href="#DejaVuSans-2e" x="63.623047"/>
       <use xlink:href="#DejaVuSans-34" x="95.410156"/>
      </g>
     </g>
    </g>
    <g id="ytick_3">
     <g id="line2d_7">
      <g>
       <use xlink:href="#mefdb411267" x="47.72" y="214.369802" style="stroke: #000000; stroke-width: 0.8"/>
      </g>
     </g>
     <g id="text_8">
      <!-- 0.6 -->
      <g transform="translate(24.816875 218.16902) scale(0.1 -0.1)">
       <defs>
        <path id="DejaVuSans-36" d="M 2113 2584 
Q 1688 2584 1439 2293 
Q 1191 2003 1191 1497 
Q 1191 994 1439 701 
Q 1688 409 2113 409 
Q 2538 409 2786 701 
Q 3034 994 3034 1497 
Q 3034 2003 2786 2293 
Q 2538 2584 2113 2584 
z
M 3366 4563 
L 3366 3988 
Q 3128 4100 2886 4159 
Q 2644 4219 2406 4219 
Q 1781 4219 1451 3797 
Q 1122 3375 1075 2522 
Q 1259 2794 1537 2939 
Q 1816 3084 2150 3084 
Q 2853 3084 3261 2657 
Q 3669 2231 3669 1497 
Q 3669 778 3244 343 
Q 2819 -91 2113 -91 
Q 1303 -91 875 529 
Q 447 1150 447 2328 
Q 447 3434 972 4092 
Q 1497 4750 2381 4750 
Q 2619 4750 2861 4703 
Q 3103 4656 3366 4563 
z
" transform="scale(0.015625)"/>
       </defs>
       <use xlink:href="#DejaVuSans-30"/>
       <use xlink:href="#DejaVuSans-2e" x="63.623047"/>
       <use xlink:href="#DejaVuSans-36" x="95.410156"/>
      </g>
     </g>
    </g>
    <g id="ytick_4">
     <g id="line2d_8">
      <g>
       <use xlink:href="#mefdb411267" x="47.72" y="175.50211" style="stroke: #000000; stroke-width: 0.8"/>
      </g>
     </g>
     <g id="text_9">
      <!-- 0.8 -->
      <g transform="translate(24.816875 179.301329) scale(0.1 -0.1)">
       <defs>
        <path id="DejaVuSans-38" d="M 2034 2216 
Q 1584 2216 1326 1975 
Q 1069 1734 1069 1313 
Q 1069 891 1326 650 
Q 1584 409 2034 409 
Q 2484 409 2743 651 
Q 3003 894 3003 1313 
Q 3003 1734 2745 1975 
Q 2488 2216 2034 2216 
z
M 1403 2484 
Q 997 2584 770 2862 
Q 544 3141 544 3541 
Q 544 4100 942 4425 
Q 1341 4750 2034 4750 
Q 2731 4750 3128 4425 
Q 3525 4100 3525 3541 
Q 3525 3141 3298 2862 
Q 3072 2584 2669 2484 
Q 3125 2378 3379 2068 
Q 3634 1759 3634 1313 
Q 3634 634 3220 271 
Q 2806 -91 2034 -91 
Q 1263 -91 848 271 
Q 434 634 434 1313 
Q 434 1759 690 2068 
Q 947 2378 1403 2484 
z
M 1172 3481 
Q 1172 3119 1398 2916 
Q 1625 2713 2034 2713 
Q 2441 2713 2670 2916 
Q 2900 3119 2900 3481 
Q 2900 3844 2670 4047 
Q 2441 4250 2034 4250 
Q 1625 4250 1398 4047 
Q 1172 3844 1172 3481 
z
" transform="scale(0.015625)"/>
       </defs>
       <use xlink:href="#DejaVuSans-30"/>
       <use xlink:href="#DejaVuSans-2e" x="63.623047"/>
       <use xlink:href="#DejaVuSans-38" x="95.410156"/>
      </g>
     </g>
    </g>
    <g id="ytick_5">
     <g id="line2d_9">
      <g>
       <use xlink:href="#mefdb411267" x="47.72" y="136.634419" style="stroke: #000000; stroke-width: 0.8"/>
      </g>
     </g>
     <g id="text_10">
      <!-- 1.0 -->
      <g transform="translate(24.816875 140.433638) scale(0.1 -0.1)">
       <use xlink:href="#DejaVuSans-31"/>
       <use xlink:href="#DejaVuSans-2e" x="63.623047"/>
       <use xlink:href="#DejaVuSans-30" x="95.410156"/>
      </g>
     </g>
    </g>
    <g id="ytick_6">
     <g id="line2d_10">
      <g>
       <use xlink:href="#mefdb411267" x="47.72" y="97.766728" style="stroke: #000000; stroke-width: 0.8"/>
      </g>
     </g>
     <g id="text_11">
      <!-- 1.2 -->
      <g transform="translate(24.816875 101.565947) scale(0.1 -0.1)">
       <use xlink:href="#DejaVuSans-31"/>
       <use xlink:href="#DejaVuSans-2e" x="63.623047"/>
       <use xlink:href="#DejaVuSans-32" x="95.410156"/>
      </g>
     </g>
    </g>
    <g id="ytick_7">
     <g id="line2d_11">
      <g>
       <use xlink:href="#mefdb411267" x="47.72" y="58.899037" style="stroke: #000000; stroke-width: 0.8"/>
      </g>
     </g>
     <g id="text_12">
      <!-- 1.4 -->
      <g transform="translate(24.816875 62.698255) scale(0.1 -0.1)">
       <use xlink:href="#DejaVuSans-31"/>
       <use xlink:href="#DejaVuSans-2e" x="63.623047"/>
       <use xlink:href="#DejaVuSans-34" x="95.410156"/>
      </g>
     </g>
    </g>
    <g id="text_13">
     <!-- Cl -->
     <g transform="translate(18.737187 184.828469) rotate(-90) scale(0.1 -0.1)">
      <defs>
       <path id="DejaVuSans-43" d="M 4122 4306 
L 4122 3641 
Q 3803 3938 3442 4084 
Q 3081 4231 2675 4231 
Q 1875 4231 1450 3742 
Q 1025 3253 1025 2328 
Q 1025 1406 1450 917 
Q 1875 428 2675 428 
Q 3081 428 3442 575 
Q 3803 722 4122 1019 
L 4122 359 
Q 3791 134 3420 21 
Q 3050 -91 2638 -91 
Q 1578 -91 968 557 
Q 359 1206 359 2328 
Q 359 3453 968 4101 
Q 1578 4750 2638 4750 
Q 3056 4750 3426 4639 
Q 3797 4528 4122 4306 
z
" transform="scale(0.015625)"/>
      </defs>
      <use xlink:href="#DejaVuSans-43"/>
      <use xlink:href="#DejaVuSans-6c" x="69.824219"/>
     </g>
    </g>
   </g>
   <g id="line2d_12">
    <path d="M 61.306364 305.486182 
L 63.670237 302.675463 
L 66.034111 299.269111 
L 68.397984 295.19043 
L 70.761858 290.454898 
L 73.125732 285.242311 
L 75.489605 279.686271 
L 77.853479 274.121663 
L 80.217353 268.750567 
L 82.581226 263.645707 
L 84.9451 258.778319 
L 87.308973 254.068363 
L 89.672847 249.439861 
L 92.036721 244.846921 
L 94.400594 240.280032 
L 96.764468 235.821703 
L 99.128342 231.474709 
L 101.492215 227.139141 
L 103.856089 222.917533 
L 106.219962 218.791846 
L 108.583836 214.75599 
L 110.94771 210.709164 
L 113.311583 206.550338 
L 115.675457 202.266085 
L 118.039331 197.856175 
L 120.403204 193.330767 
L 122.767078 188.954101 
L 125.130951 185.024083 
L 127.494825 180.649237 
L 129.858699 169.819429 
L 132.222572 150.239083 
L 134.586446 141.425703 
L 136.95032 134.592947 
L 139.314193 129.324227 
L 141.678067 125.406349 
L 144.04194 121.820313 
L 146.405814 118.295161 
L 148.769688 114.901458 
L 151.133561 111.605612 
L 153.497435 108.312916 
L 155.861308 104.969045 
L 158.225182 101.569805 
L 160.589056 98.144456 
L 162.952929 94.735995 
L 165.316803 91.390294 
L 167.680677 88.158921 
L 170.04455 85.118977 
L 172.408424 82.409718 
L 174.772297 80.25649 
L 177.136171 78.850673 
L 179.500045 78.017612 
L 181.863918 77.257597 
L 184.227792 76.257341 
L 186.591666 75.010334 
L 188.955539 73.695424 
L 191.319413 72.360243 
L 193.683286 71.153083 
L 196.04716 70.139413 
L 198.411034 69.37458 
L 200.774907 68.849037 
L 203.138781 68.571961 
L 205.502655 68.571381 
L 207.866528 68.843639 
L 210.230402 69.201847 
L 212.594275 69.771661 
L 214.958149 70.548148 
L 217.322023 71.510827 
L 219.685896 72.635814 
L 222.04977 73.891 
L 224.413643 75.184665 
L 226.777517 76.606166 
L 229.141391 78.271476 
L 231.505264 79.960022 
L 233.869138 81.649101 
L 236.233012 83.335354 
L 238.596885 84.984563 
L 240.960759 86.623115 
L 243.324632 88.208638 
L 245.688506 89.642116 
L 248.05238 90.976439 
L 250.416253 92.269479 
L 252.780127 93.542712 
L 255.144001 94.776097 
L 257.507874 95.984346 
L 259.871748 97.202256 
L 262.235621 98.353422 
L 264.599495 99.423943 
L 266.963369 100.3986 
L 269.327242 101.263422 
L 271.691116 102.008239 
L 274.05499 102.62865 
L 276.418863 103.127342 
L 278.782737 103.5143 
L 281.14661 103.807755 
L 283.510484 104.028768 
L 285.874358 104.192419 
L 288.238231 104.316131 
L 290.602105 104.413409 
L 292.965978 104.489142 
L 295.329852 104.560148 
" clip-path="url(#p7a4ad0bbb7)" style="fill: none; stroke: #0000ff; stroke-width: 1.5; stroke-linecap: square"/>
   </g>
   <g id="patch_3">
    <path d="M 47.72 318.04 
L 47.72 41.856 
" style="fill: none; stroke: #000000; stroke-width: 0.8; stroke-linejoin: miter; stroke-linecap: square"/>
   </g>
   <g id="patch_4">
    <path d="M 346.62 318.04 
L 346.62 41.856 
" style="fill: none; stroke: #000000; stroke-width: 0.8; stroke-linejoin: miter; stroke-linecap: square"/>
   </g>
   <g id="patch_5">
    <path d="M 47.72 318.04 
L 346.62 318.04 
" style="fill: none; stroke: #000000; stroke-width: 0.8; stroke-linejoin: miter; stroke-linecap: square"/>
   </g>
   <g id="patch_6">
    <path d="M 47.72 41.856 
L 346.62 41.856 
" style="fill: none; stroke: #000000; stroke-width: 0.8; stroke-linejoin: miter; stroke-linecap: square"/>
   </g>
   <g id="text_14">
    <!-- Re = 2636315 Mach = 0.70  -->
    <g transform="translate(112.045 22.418625) scale(0.12 -0.12)">
     <defs>
      <path id="DejaVuSans-52" d="M 2841 2188 
Q 3044 2119 3236 1894 
Q 3428 1669 3622 1275 
L 4263 0 
L 3584 0 
L 2988 1197 
Q 2756 1666 2539 1819 
Q 2322 1972 1947 1972 
L 1259 1972 
L 1259 0 
L 628 0 
L 628 4666 
L 2053 4666 
Q 2853 4666 3247 4331 
Q 3641 3997 3641 3322 
Q 3641 2881 3436 2590 
Q 3231 2300 2841 2188 
z
M 1259 4147 
L 1259 2491 
L 2053 2491 
Q 2509 2491 2742 2702 
Q 2975 2913 2975 3322 
Q 2975 3731 2742 3939 
Q 2509 4147 2053 4147 
L 1259 4147 
z
" transform="scale(0.015625)"/>
      <path id="DejaVuSans-65" d="M 3597 1894 
L 3597 1613 
L 953 1613 
Q 991 1019 1311 708 
Q 1631 397 2203 397 
Q 2534 397 2845 478 
Q 3156 559 3463 722 
L 3463 178 
Q 3153 47 2828 -22 
Q 2503 -91 2169 -91 
Q 1331 -91 842 396 
Q 353 884 353 1716 
Q 353 2575 817 3079 
Q 1281 3584 2069 3584 
Q 2775 3584 3186 3129 
Q 3597 2675 3597 1894 
z
M 3022 2063 
Q 3016 2534 2758 2815 
Q 2500 3097 2075 3097 
Q 1594 3097 1305 2825 
Q 1016 2553 972 2059 
L 3022 2063 
z
" transform="scale(0.015625)"/>
      <path id="DejaVuSans-20" transform="scale(0.015625)"/>
      <path id="DejaVuSans-3d" d="M 678 2906 
L 4684 2906 
L 4684 2381 
L 678 2381 
L 678 2906 
z
M 678 1631 
L 4684 1631 
L 4684 1100 
L 678 1100 
L 678 1631 
z
" transform="scale(0.015625)"/>
      <path id="DejaVuSans-33" d="M 2597 2516 
Q 3050 2419 3304 2112 
Q 3559 1806 3559 1356 
Q 3559 666 3084 287 
Q 2609 -91 1734 -91 
Q 1441 -91 1130 -33 
Q 819 25 488 141 
L 488 750 
Q 750 597 1062 519 
Q 1375 441 1716 441 
Q 2309 441 2620 675 
Q 2931 909 2931 1356 
Q 2931 1769 2642 2001 
Q 2353 2234 1838 2234 
L 1294 2234 
L 1294 2753 
L 1863 2753 
Q 2328 2753 2575 2939 
Q 2822 3125 2822 3475 
Q 2822 3834 2567 4026 
Q 2313 4219 1838 4219 
Q 1578 4219 1281 4162 
Q 984 4106 628 3988 
L 628 4550 
Q 988 4650 1302 4700 
Q 1616 4750 1894 4750 
Q 2613 4750 3031 4423 
Q 3450 4097 3450 3541 
Q 3450 3153 3228 2886 
Q 3006 2619 2597 2516 
z
" transform="scale(0.015625)"/>
      <path id="DejaVuSans-4d" d="M 628 4666 
L 1569 4666 
L 2759 1491 
L 3956 4666 
L 4897 4666 
L 4897 0 
L 4281 0 
L 4281 4097 
L 3078 897 
L 2444 897 
L 1241 4097 
L 1241 0 
L 628 0 
L 628 4666 
z
" transform="scale(0.015625)"/>
      <path id="DejaVuSans-63" d="M 3122 3366 
L 3122 2828 
Q 2878 2963 2633 3030 
Q 2388 3097 2138 3097 
Q 1578 3097 1268 2742 
Q 959 2388 959 1747 
Q 959 1106 1268 751 
Q 1578 397 2138 397 
Q 2388 397 2633 464 
Q 2878 531 3122 666 
L 3122 134 
Q 2881 22 2623 -34 
Q 2366 -91 2075 -91 
Q 1284 -91 818 406 
Q 353 903 353 1747 
Q 353 2603 823 3093 
Q 1294 3584 2113 3584 
Q 2378 3584 2631 3529 
Q 2884 3475 3122 3366 
z
" transform="scale(0.015625)"/>
      <path id="DejaVuSans-37" d="M 525 4666 
L 3525 4666 
L 3525 4397 
L 1831 0 
L 1172 0 
L 2766 4134 
L 525 4134 
L 525 4666 
z
" transform="scale(0.015625)"/>
     </defs>
     <use xlink:href="#DejaVuSans-52"/>
     <use xlink:href="#DejaVuSans-65" x="64.982422"/>
     <use xlink:href="#DejaVuSans-20" x="126.505859"/>
     <use xlink:href="#DejaVuSans-3d" x="158.292969"/>
     <use xlink:href="#DejaVuSans-20" x="242.082031"/>
     <use xlink:href="#DejaVuSans-32" x="273.869141"/>
     <use xlink:href="#DejaVuSans-36" x="337.492188"/>
     <use xlink:href="#DejaVuSans-33" x="401.115234"/>
     <use xlink:href="#DejaVuSans-36" x="464.738281"/>
     <use xlink:href="#DejaVuSans-33" x="528.361328"/>
     <use xlink:href="#DejaVuSans-31" x="591.984375"/>
     <use xlink:href="#DejaVuSans-35" x="655.607422"/>
     <use xlink:href="#DejaVuSans-20" x="719.230469"/>
     <use xlink:href="#DejaVuSans-4d" x="751.017578"/>
     <use xlink:href="#DejaVuSans-61" x="837.296875"/>
     <use xlink:href="#DejaVuSans-63" x="898.576172"/>
     <use xlink:href="#DejaVuSans-68" x="953.556641"/>
     <use xlink:href="#DejaVuSans-20" x="1016.935547"/>
     <use xlink:href="#DejaVuSans-3d" x="1048.722656"/>
     <use xlink:href="#DejaVuSans-20" x="1132.511719"/>
     <use xlink:href="#DejaVuSans-30" x="1164.298828"/>
     <use xlink:href="#DejaVuSans-2e" x="1227.921875"/>
     <use xlink:href="#DejaVuSans-37" x="1259.708984"/>
     <use xlink:href="#DejaVuSans-30" x="1323.332031"/>
     <use xlink:href="#DejaVuSans-20" x="1386.955078"/>
    </g>
    <!--  Cl vs Alpha -->
    <g transform="translate(161.85625 35.856) scale(0.12 -0.12)">
     <defs>
      <path id="DejaVuSans-76" d="M 191 3500 
L 800 3500 
L 1894 563 
L 2988 3500 
L 3597 3500 
L 2284 0 
L 1503 0 
L 191 3500 
z
" transform="scale(0.015625)"/>
      <path id="DejaVuSans-73" d="M 2834 3397 
L 2834 2853 
Q 2591 2978 2328 3040 
Q 2066 3103 1784 3103 
Q 1356 3103 1142 2972 
Q 928 2841 928 2578 
Q 928 2378 1081 2264 
Q 1234 2150 1697 2047 
L 1894 2003 
Q 2506 1872 2764 1633 
Q 3022 1394 3022 966 
Q 3022 478 2636 193 
Q 2250 -91 1575 -91 
Q 1294 -91 989 -36 
Q 684 19 347 128 
L 347 722 
Q 666 556 975 473 
Q 1284 391 1588 391 
Q 1994 391 2212 530 
Q 2431 669 2431 922 
Q 2431 1156 2273 1281 
Q 2116 1406 1581 1522 
L 1381 1569 
Q 847 1681 609 1914 
Q 372 2147 372 2553 
Q 372 3047 722 3315 
Q 1072 3584 1716 3584 
Q 2034 3584 2315 3537 
Q 2597 3491 2834 3397 
z
" transform="scale(0.015625)"/>
     </defs>
     <use xlink:href="#DejaVuSans-20"/>
     <use xlink:href="#DejaVuSans-43" x="31.787109"/>
     <use xlink:href="#DejaVuSans-6c" x="101.611328"/>
     <use xlink:href="#DejaVuSans-20" x="129.394531"/>
     <use xlink:href="#DejaVuSans-76" x="161.181641"/>
     <use xlink:href="#DejaVuSans-73" x="220.361328"/>
     <use xlink:href="#DejaVuSans-20" x="272.460938"/>
     <use xlink:href="#DejaVuSans-41" x="304.248047"/>
     <use xlink:href="#DejaVuSans-6c" x="372.65625"/>
     <use xlink:href="#DejaVuSans-70" x="400.439453"/>
     <use xlink:href="#DejaVuSans-68" x="463.916016"/>
     <use xlink:href="#DejaVuSans-61" x="527.294922"/>
    </g>
   </g>
   <g id="legend_1">
    <g id="patch_7">
     <path d="M 247.740312 79.21225 
L 339.62 79.21225 
Q 341.62 79.21225 341.62 77.21225 
L 341.62 48.856 
Q 341.62 46.856 339.62 46.856 
L 247.740312 46.856 
Q 245.740312 46.856 245.740312 48.856 
L 245.740312 77.21225 
Q 245.740312 79.21225 247.740312 79.21225 
z
" style="fill: #ffffff; opacity: 0.8; stroke: #cccccc; stroke-linejoin: miter"/>
    </g>
    <g id="line2d_13">
     <path d="M 249.740312 54.954438 
L 259.740312 54.954438 
L 269.740312 54.954438 
" style="fill: none; stroke: #0000ff; stroke-width: 1.5; stroke-linecap: square"/>
    </g>
    <g id="text_15">
     <!-- Predicted Cl -->
     <g transform="translate(277.740312 58.454438) scale(0.1 -0.1)">
      <defs>
       <path id="DejaVuSans-50" d="M 1259 4147 
L 1259 2394 
L 2053 2394 
Q 2494 2394 2734 2622 
Q 2975 2850 2975 3272 
Q 2975 3691 2734 3919 
Q 2494 4147 2053 4147 
L 1259 4147 
z
M 628 4666 
L 2053 4666 
Q 2838 4666 3239 4311 
Q 3641 3956 3641 3272 
Q 3641 2581 3239 2228 
Q 2838 1875 2053 1875 
L 1259 1875 
L 1259 0 
L 628 0 
L 628 4666 
z
" transform="scale(0.015625)"/>
       <path id="DejaVuSans-72" d="M 2631 2963 
Q 2534 3019 2420 3045 
Q 2306 3072 2169 3072 
Q 1681 3072 1420 2755 
Q 1159 2438 1159 1844 
L 1159 0 
L 581 0 
L 581 3500 
L 1159 3500 
L 1159 2956 
Q 1341 3275 1631 3429 
Q 1922 3584 2338 3584 
Q 2397 3584 2469 3576 
Q 2541 3569 2628 3553 
L 2631 2963 
z
" transform="scale(0.015625)"/>
       <path id="DejaVuSans-64" d="M 2906 2969 
L 2906 4863 
L 3481 4863 
L 3481 0 
L 2906 0 
L 2906 525 
Q 2725 213 2448 61 
Q 2172 -91 1784 -91 
Q 1150 -91 751 415 
Q 353 922 353 1747 
Q 353 2572 751 3078 
Q 1150 3584 1784 3584 
Q 2172 3584 2448 3432 
Q 2725 3281 2906 2969 
z
M 947 1747 
Q 947 1113 1208 752 
Q 1469 391 1925 391 
Q 2381 391 2643 752 
Q 2906 1113 2906 1747 
Q 2906 2381 2643 2742 
Q 2381 3103 1925 3103 
Q 1469 3103 1208 2742 
Q 947 2381 947 1747 
z
" transform="scale(0.015625)"/>
       <path id="DejaVuSans-69" d="M 603 3500 
L 1178 3500 
L 1178 0 
L 603 0 
L 603 3500 
z
M 603 4863 
L 1178 4863 
L 1178 4134 
L 603 4134 
L 603 4863 
z
" transform="scale(0.015625)"/>
       <path id="DejaVuSans-74" d="M 1172 4494 
L 1172 3500 
L 2356 3500 
L 2356 3053 
L 1172 3053 
L 1172 1153 
Q 1172 725 1289 603 
Q 1406 481 1766 481 
L 2356 481 
L 2356 0 
L 1766 0 
Q 1100 0 847 248 
Q 594 497 594 1153 
L 594 3053 
L 172 3053 
L 172 3500 
L 594 3500 
L 594 4494 
L 1172 4494 
z
" transform="scale(0.015625)"/>
      </defs>
      <use xlink:href="#DejaVuSans-50"/>
      <use xlink:href="#DejaVuSans-72" x="58.552734"/>
      <use xlink:href="#DejaVuSans-65" x="97.416016"/>
      <use xlink:href="#DejaVuSans-64" x="158.939453"/>
      <use xlink:href="#DejaVuSans-69" x="222.416016"/>
      <use xlink:href="#DejaVuSans-63" x="250.199219"/>
      <use xlink:href="#DejaVuSans-74" x="305.179688"/>
      <use xlink:href="#DejaVuSans-65" x="344.388672"/>
      <use xlink:href="#DejaVuSans-64" x="405.912109"/>
      <use xlink:href="#DejaVuSans-20" x="469.388672"/>
      <use xlink:href="#DejaVuSans-43" x="501.175781"/>
      <use xlink:href="#DejaVuSans-6c" x="571"/>
     </g>
    </g>
    <g id="PathCollection_2">
     <g>
      <use xlink:href="#mdde6ed03c4" x="259.740312" y="70.507563" style="fill: #ffa500; stroke: #ffa500"/>
     </g>
    </g>
    <g id="text_16">
     <!-- Original Cl -->
     <g transform="translate(277.740312 73.132563) scale(0.1 -0.1)">
      <defs>
       <path id="DejaVuSans-4f" d="M 2522 4238 
Q 1834 4238 1429 3725 
Q 1025 3213 1025 2328 
Q 1025 1447 1429 934 
Q 1834 422 2522 422 
Q 3209 422 3611 934 
Q 4013 1447 4013 2328 
Q 4013 3213 3611 3725 
Q 3209 4238 2522 4238 
z
M 2522 4750 
Q 3503 4750 4090 4092 
Q 4678 3434 4678 2328 
Q 4678 1225 4090 567 
Q 3503 -91 2522 -91 
Q 1538 -91 948 565 
Q 359 1222 359 2328 
Q 359 3434 948 4092 
Q 1538 4750 2522 4750 
z
" transform="scale(0.015625)"/>
       <path id="DejaVuSans-67" d="M 2906 1791 
Q 2906 2416 2648 2759 
Q 2391 3103 1925 3103 
Q 1463 3103 1205 2759 
Q 947 2416 947 1791 
Q 947 1169 1205 825 
Q 1463 481 1925 481 
Q 2391 481 2648 825 
Q 2906 1169 2906 1791 
z
M 3481 434 
Q 3481 -459 3084 -895 
Q 2688 -1331 1869 -1331 
Q 1566 -1331 1297 -1286 
Q 1028 -1241 775 -1147 
L 775 -588 
Q 1028 -725 1275 -790 
Q 1522 -856 1778 -856 
Q 2344 -856 2625 -561 
Q 2906 -266 2906 331 
L 2906 616 
Q 2728 306 2450 153 
Q 2172 0 1784 0 
Q 1141 0 747 490 
Q 353 981 353 1791 
Q 353 2603 747 3093 
Q 1141 3584 1784 3584 
Q 2172 3584 2450 3431 
Q 2728 3278 2906 2969 
L 2906 3500 
L 3481 3500 
L 3481 434 
z
" transform="scale(0.015625)"/>
       <path id="DejaVuSans-6e" d="M 3513 2113 
L 3513 0 
L 2938 0 
L 2938 2094 
Q 2938 2591 2744 2837 
Q 2550 3084 2163 3084 
Q 1697 3084 1428 2787 
Q 1159 2491 1159 1978 
L 1159 0 
L 581 0 
L 581 3500 
L 1159 3500 
L 1159 2956 
Q 1366 3272 1645 3428 
Q 1925 3584 2291 3584 
Q 2894 3584 3203 3211 
Q 3513 2838 3513 2113 
z
" transform="scale(0.015625)"/>
      </defs>
      <use xlink:href="#DejaVuSans-4f"/>
      <use xlink:href="#DejaVuSans-72" x="78.710938"/>
      <use xlink:href="#DejaVuSans-69" x="119.824219"/>
      <use xlink:href="#DejaVuSans-67" x="147.607422"/>
      <use xlink:href="#DejaVuSans-69" x="211.083984"/>
      <use xlink:href="#DejaVuSans-6e" x="238.867188"/>
      <use xlink:href="#DejaVuSans-61" x="302.246094"/>
      <use xlink:href="#DejaVuSans-6c" x="363.525391"/>
      <use xlink:href="#DejaVuSans-20" x="391.308594"/>
      <use xlink:href="#DejaVuSans-43" x="423.095703"/>
      <use xlink:href="#DejaVuSans-6c" x="492.919922"/>
     </g>
    </g>
   </g>
  </g>
  <g id="axes_2">
   <g id="patch_8">
    <path d="M 409.01 318.04 
L 707.91 318.04 
L 707.91 41.856 
L 409.01 41.856 
z
" style="fill: #ffffff"/>
   </g>
   <g id="PathCollection_3">
    <g clip-path="url(#p47dc5feec9)">
     <use xlink:href="#mdde6ed03c4" x="464.200539" y="304.648585" style="fill: #ffa500; stroke: #ffa500"/>
     <use xlink:href="#mdde6ed03c4" x="468.100931" y="304.555282" style="fill: #ffa500; stroke: #ffa500"/>
     <use xlink:href="#mdde6ed03c4" x="472.001322" y="304.415327" style="fill: #ffa500; stroke: #ffa500"/>
     <use xlink:href="#mdde6ed03c4" x="475.901714" y="304.26371" style="fill: #ffa500; stroke: #ffa500"/>
     <use xlink:href="#mdde6ed03c4" x="479.802105" y="304.088767" style="fill: #ffa500; stroke: #ffa500"/>
     <use xlink:href="#mdde6ed03c4" x="483.702497" y="303.972138" style="fill: #ffa500; stroke: #ffa500"/>
     <use xlink:href="#mdde6ed03c4" x="487.602888" y="303.937149" style="fill: #ffa500; stroke: #ffa500"/>
     <use xlink:href="#mdde6ed03c4" x="491.50328" y="304.123755" style="fill: #ffa500; stroke: #ffa500"/>
     <use xlink:href="#mdde6ed03c4" x="522.706411" y="300.764846" style="fill: #ffa500; stroke: #ffa500"/>
     <use xlink:href="#mdde6ed03c4" x="526.606803" y="300.088399" style="fill: #ffa500; stroke: #ffa500"/>
     <use xlink:href="#mdde6ed03c4" x="530.507194" y="299.330311" style="fill: #ffa500; stroke: #ffa500"/>
     <use xlink:href="#mdde6ed03c4" x="534.407586" y="298.43227" style="fill: #ffa500; stroke: #ffa500"/>
     <use xlink:href="#mdde6ed03c4" x="542.208369" y="293.277276" style="fill: #ffa500; stroke: #ffa500"/>
     <use xlink:href="#mdde6ed03c4" x="546.10876" y="291.247935" style="fill: #ffa500; stroke: #ffa500"/>
     <use xlink:href="#mdde6ed03c4" x="550.009152" y="289.183605" style="fill: #ffa500; stroke: #ffa500"/>
     <use xlink:href="#mdde6ed03c4" x="553.909543" y="286.886018" style="fill: #ffa500; stroke: #ffa500"/>
     <use xlink:href="#mdde6ed03c4" x="557.809935" y="284.145241" style="fill: #ffa500; stroke: #ffa500"/>
     <use xlink:href="#mdde6ed03c4" x="561.710326" y="280.797994" style="fill: #ffa500; stroke: #ffa500"/>
     <use xlink:href="#mdde6ed03c4" x="565.610718" y="276.797626" style="fill: #ffa500; stroke: #ffa500"/>
     <use xlink:href="#mdde6ed03c4" x="569.511109" y="272.062496" style="fill: #ffa500; stroke: #ffa500"/>
     <use xlink:href="#mdde6ed03c4" x="573.411501" y="266.849189" style="fill: #ffa500; stroke: #ffa500"/>
     <use xlink:href="#mdde6ed03c4" x="577.311892" y="261.251006" style="fill: #ffa500; stroke: #ffa500"/>
     <use xlink:href="#mdde6ed03c4" x="581.212284" y="254.801433" style="fill: #ffa500; stroke: #ffa500"/>
     <use xlink:href="#mdde6ed03c4" x="585.112675" y="248.293546" style="fill: #ffa500; stroke: #ffa500"/>
     <use xlink:href="#mdde6ed03c4" x="589.013067" y="241.540738" style="fill: #ffa500; stroke: #ffa500"/>
     <use xlink:href="#mdde6ed03c4" x="592.913458" y="234.438044" style="fill: #ffa500; stroke: #ffa500"/>
     <use xlink:href="#mdde6ed03c4" x="596.813849" y="226.81052" style="fill: #ffa500; stroke: #ffa500"/>
     <use xlink:href="#mdde6ed03c4" x="600.714241" y="219.148007" style="fill: #ffa500; stroke: #ffa500"/>
     <use xlink:href="#mdde6ed03c4" x="604.614632" y="210.960665" style="fill: #ffa500; stroke: #ffa500"/>
     <use xlink:href="#mdde6ed03c4" x="608.515024" y="202.516739" style="fill: #ffa500; stroke: #ffa500"/>
     <use xlink:href="#mdde6ed03c4" x="612.415415" y="193.839556" style="fill: #ffa500; stroke: #ffa500"/>
     <use xlink:href="#mdde6ed03c4" x="616.315807" y="184.485926" style="fill: #ffa500; stroke: #ffa500"/>
     <use xlink:href="#mdde6ed03c4" x="620.216198" y="174.980678" style="fill: #ffa500; stroke: #ffa500"/>
     <use xlink:href="#mdde6ed03c4" x="624.11659" y="164.882567" style="fill: #ffa500; stroke: #ffa500"/>
     <use xlink:href="#mdde6ed03c4" x="631.917373" y="142.882487" style="fill: #ffa500; stroke: #ffa500"/>
     <use xlink:href="#mdde6ed03c4" x="651.41933" y="85.374766" style="fill: #ffa500; stroke: #ffa500"/>
     <use xlink:href="#mdde6ed03c4" x="667.020896" y="106.449592" style="fill: #ffa500; stroke: #ffa500"/>
     <use xlink:href="#mdde6ed03c4" x="674.821679" y="91.964294" style="fill: #ffa500; stroke: #ffa500"/>
     <use xlink:href="#mdde6ed03c4" x="682.622462" y="77.840545" style="fill: #ffa500; stroke: #ffa500"/>
     <use xlink:href="#mdde6ed03c4" x="690.423245" y="61.967365" style="fill: #ffa500; stroke: #ffa500"/>
     <use xlink:href="#mdde6ed03c4" x="694.323636" y="54.409818" style="fill: #ffa500; stroke: #ffa500"/>
    </g>
   </g>
   <g id="matplotlib.axis_3">
    <g id="xtick_5">
     <g id="line2d_14">
      <g>
       <use xlink:href="#m73672ede99" x="461.600278" y="318.04" style="stroke: #000000; stroke-width: 0.8"/>
      </g>
     </g>
     <g id="text_17">
      <!-- 0 -->
      <g transform="translate(458.419028 332.638438) scale(0.1 -0.1)">
       <use xlink:href="#DejaVuSans-30"/>
      </g>
     </g>
    </g>
    <g id="xtick_6">
     <g id="line2d_15">
      <g>
       <use xlink:href="#m73672ede99" x="526.606803" y="318.04" style="stroke: #000000; stroke-width: 0.8"/>
      </g>
     </g>
     <g id="text_18">
      <!-- 5 -->
      <g transform="translate(523.425553 332.638438) scale(0.1 -0.1)">
       <use xlink:href="#DejaVuSans-35"/>
      </g>
     </g>
    </g>
    <g id="xtick_7">
     <g id="line2d_16">
      <g>
       <use xlink:href="#m73672ede99" x="591.613328" y="318.04" style="stroke: #000000; stroke-width: 0.8"/>
      </g>
     </g>
     <g id="text_19">
      <!-- 10 -->
      <g transform="translate(585.250828 332.638438) scale(0.1 -0.1)">
       <use xlink:href="#DejaVuSans-31"/>
       <use xlink:href="#DejaVuSans-30" x="63.623047"/>
      </g>
     </g>
    </g>
    <g id="xtick_8">
     <g id="line2d_17">
      <g>
       <use xlink:href="#m73672ede99" x="656.619852" y="318.04" style="stroke: #000000; stroke-width: 0.8"/>
      </g>
     </g>
     <g id="text_20">
      <!-- 15 -->
      <g transform="translate(650.257352 332.638438) scale(0.1 -0.1)">
       <use xlink:href="#DejaVuSans-31"/>
       <use xlink:href="#DejaVuSans-35" x="63.623047"/>
      </g>
     </g>
    </g>
    <g id="text_21">
     <!-- Alpha -->
     <g transform="translate(544.243594 346.316563) scale(0.1 -0.1)">
      <use xlink:href="#DejaVuSans-41"/>
      <use xlink:href="#DejaVuSans-6c" x="68.408203"/>
      <use xlink:href="#DejaVuSans-70" x="96.191406"/>
      <use xlink:href="#DejaVuSans-68" x="159.667969"/>
      <use xlink:href="#DejaVuSans-61" x="223.046875"/>
     </g>
    </g>
   </g>
   <g id="matplotlib.axis_4">
    <g id="ytick_8">
     <g id="line2d_18">
      <g>
       <use xlink:href="#mefdb411267" x="409.01" y="313.325768" style="stroke: #000000; stroke-width: 0.8"/>
      </g>
     </g>
     <g id="text_22">
      <!-- 0.00 -->
      <g transform="translate(379.744375 317.124987) scale(0.1 -0.1)">
       <use xlink:href="#DejaVuSans-30"/>
       <use xlink:href="#DejaVuSans-2e" x="63.623047"/>
       <use xlink:href="#DejaVuSans-30" x="95.410156"/>
       <use xlink:href="#DejaVuSans-30" x="159.033203"/>
      </g>
     </g>
    </g>
    <g id="ytick_9">
     <g id="line2d_19">
      <g>
       <use xlink:href="#mefdb411267" x="409.01" y="255.011365" style="stroke: #000000; stroke-width: 0.8"/>
      </g>
     </g>
     <g id="text_23">
      <!-- 0.05 -->
      <g transform="translate(379.744375 258.810584) scale(0.1 -0.1)">
       <use xlink:href="#DejaVuSans-30"/>
       <use xlink:href="#DejaVuSans-2e" x="63.623047"/>
       <use xlink:href="#DejaVuSans-30" x="95.410156"/>
       <use xlink:href="#DejaVuSans-35" x="159.033203"/>
      </g>
     </g>
    </g>
    <g id="ytick_10">
     <g id="line2d_20">
      <g>
       <use xlink:href="#mefdb411267" x="409.01" y="196.696962" style="stroke: #000000; stroke-width: 0.8"/>
      </g>
     </g>
     <g id="text_24">
      <!-- 0.10 -->
      <g transform="translate(379.744375 200.496181) scale(0.1 -0.1)">
       <use xlink:href="#DejaVuSans-30"/>
       <use xlink:href="#DejaVuSans-2e" x="63.623047"/>
       <use xlink:href="#DejaVuSans-31" x="95.410156"/>
       <use xlink:href="#DejaVuSans-30" x="159.033203"/>
      </g>
     </g>
    </g>
    <g id="ytick_11">
     <g id="line2d_21">
      <g>
       <use xlink:href="#mefdb411267" x="409.01" y="138.382559" style="stroke: #000000; stroke-width: 0.8"/>
      </g>
     </g>
     <g id="text_25">
      <!-- 0.15 -->
      <g transform="translate(379.744375 142.181777) scale(0.1 -0.1)">
       <use xlink:href="#DejaVuSans-30"/>
       <use xlink:href="#DejaVuSans-2e" x="63.623047"/>
       <use xlink:href="#DejaVuSans-31" x="95.410156"/>
       <use xlink:href="#DejaVuSans-35" x="159.033203"/>
      </g>
     </g>
    </g>
    <g id="ytick_12">
     <g id="line2d_22">
      <g>
       <use xlink:href="#mefdb411267" x="409.01" y="80.068156" style="stroke: #000000; stroke-width: 0.8"/>
      </g>
     </g>
     <g id="text_26">
      <!-- 0.20 -->
      <g transform="translate(379.744375 83.867374) scale(0.1 -0.1)">
       <use xlink:href="#DejaVuSans-30"/>
       <use xlink:href="#DejaVuSans-2e" x="63.623047"/>
       <use xlink:href="#DejaVuSans-32" x="95.410156"/>
       <use xlink:href="#DejaVuSans-30" x="159.033203"/>
      </g>
     </g>
    </g>
    <g id="text_27">
     <!-- Cd -->
     <g transform="translate(373.664687 186.613625) rotate(-90) scale(0.1 -0.1)">
      <use xlink:href="#DejaVuSans-43"/>
      <use xlink:href="#DejaVuSans-64" x="69.824219"/>
     </g>
    </g>
   </g>
   <g id="line2d_23">
    <path d="M 422.596364 303.048117 
L 424.960237 303.425909 
L 427.324111 303.821172 
L 429.687984 304.21832 
L 432.051858 304.590592 
L 434.415732 304.910054 
L 436.779605 305.162373 
L 439.143479 305.334715 
L 441.507353 305.437636 
L 443.871226 305.483724 
L 446.2351 305.486182 
L 448.598973 305.456022 
L 450.962847 305.401021 
L 453.326721 305.327072 
L 455.690594 305.239292 
L 458.054468 305.141495 
L 460.418342 305.037223 
L 462.782215 304.92901 
L 465.146089 304.820419 
L 467.509962 304.712272 
L 469.873836 304.604722 
L 472.23771 304.495599 
L 474.601583 304.380731 
L 476.965457 304.262315 
L 479.329331 304.142512 
L 481.693204 304.034298 
L 484.057078 303.982814 
L 486.420951 304.111016 
L 488.784825 304.517186 
L 491.148699 304.728533 
L 493.512572 303.956141 
L 495.876446 303.485905 
L 498.24032 303.223431 
L 500.604193 303.024577 
L 502.968067 302.803806 
L 505.33194 302.527457 
L 507.695814 302.209658 
L 510.059688 301.898019 
L 512.423561 301.611664 
L 514.787435 301.338543 
L 517.151308 301.058631 
L 519.515182 300.75515 
L 521.879056 300.415638 
L 524.242929 300.030597 
L 526.606803 299.591339 
L 528.970677 299.086396 
L 531.33455 298.494604 
L 533.698424 297.774828 
L 536.062297 296.863919 
L 538.426171 295.72167 
L 540.790045 294.413868 
L 543.153918 293.078755 
L 545.517792 291.802973 
L 547.881666 290.582003 
L 550.245539 289.364601 
L 552.609413 288.115982 
L 554.973286 286.72767 
L 557.33716 285.1524 
L 559.701034 283.288496 
L 562.064907 281.149754 
L 564.428781 278.699348 
L 566.792655 275.878016 
L 569.156528 272.683704 
L 571.520402 269.285401 
L 573.884275 265.618565 
L 576.248149 261.729317 
L 578.612023 257.674673 
L 580.975896 253.503523 
L 583.33977 249.256732 
L 585.703643 244.942801 
L 588.067517 240.544277 
L 590.431391 236.008884 
L 592.795264 231.453272 
L 595.159138 226.892714 
L 597.523012 222.452316 
L 599.886885 218.054357 
L 602.250759 213.665427 
L 604.614632 209.297942 
L 606.978506 205.046271 
L 609.34238 200.824301 
L 611.706253 196.541531 
L 614.070127 192.152791 
L 616.434001 187.67919 
L 618.797874 183.115861 
L 621.161748 178.471945 
L 623.525621 173.783487 
L 625.889495 169.08156 
L 628.253369 164.404233 
L 630.617242 159.796057 
L 632.981116 155.307327 
L 635.34499 150.993153 
L 637.708863 146.910571 
L 640.072737 143.113319 
L 642.43661 139.652439 
L 644.800484 136.559316 
L 647.164358 133.826617 
L 649.528231 131.444298 
L 651.892105 129.388843 
L 654.255978 127.636027 
L 656.619852 126.164283 
" clip-path="url(#p47dc5feec9)" style="fill: none; stroke: #0000ff; stroke-width: 1.5; stroke-linecap: square"/>
   </g>
   <g id="patch_9">
    <path d="M 409.01 318.04 
L 409.01 41.856 
" style="fill: none; stroke: #000000; stroke-width: 0.8; stroke-linejoin: miter; stroke-linecap: square"/>
   </g>
   <g id="patch_10">
    <path d="M 707.91 318.04 
L 707.91 41.856 
" style="fill: none; stroke: #000000; stroke-width: 0.8; stroke-linejoin: miter; stroke-linecap: square"/>
   </g>
   <g id="patch_11">
    <path d="M 409.01 318.04 
L 707.91 318.04 
" style="fill: none; stroke: #000000; stroke-width: 0.8; stroke-linejoin: miter; stroke-linecap: square"/>
   </g>
   <g id="patch_12">
    <path d="M 409.01 41.856 
L 707.91 41.856 
" style="fill: none; stroke: #000000; stroke-width: 0.8; stroke-linejoin: miter; stroke-linecap: square"/>
   </g>
   <g id="text_28">
    <!-- Re = 2636315 Mach = 0.70  -->
    <g transform="translate(473.335 22.418625) scale(0.12 -0.12)">
     <use xlink:href="#DejaVuSans-52"/>
     <use xlink:href="#DejaVuSans-65" x="64.982422"/>
     <use xlink:href="#DejaVuSans-20" x="126.505859"/>
     <use xlink:href="#DejaVuSans-3d" x="158.292969"/>
     <use xlink:href="#DejaVuSans-20" x="242.082031"/>
     <use xlink:href="#DejaVuSans-32" x="273.869141"/>
     <use xlink:href="#DejaVuSans-36" x="337.492188"/>
     <use xlink:href="#DejaVuSans-33" x="401.115234"/>
     <use xlink:href="#DejaVuSans-36" x="464.738281"/>
     <use xlink:href="#DejaVuSans-33" x="528.361328"/>
     <use xlink:href="#DejaVuSans-31" x="591.984375"/>
     <use xlink:href="#DejaVuSans-35" x="655.607422"/>
     <use xlink:href="#DejaVuSans-20" x="719.230469"/>
     <use xlink:href="#DejaVuSans-4d" x="751.017578"/>
     <use xlink:href="#DejaVuSans-61" x="837.296875"/>
     <use xlink:href="#DejaVuSans-63" x="898.576172"/>
     <use xlink:href="#DejaVuSans-68" x="953.556641"/>
     <use xlink:href="#DejaVuSans-20" x="1016.935547"/>
     <use xlink:href="#DejaVuSans-3d" x="1048.722656"/>
     <use xlink:href="#DejaVuSans-20" x="1132.511719"/>
     <use xlink:href="#DejaVuSans-30" x="1164.298828"/>
     <use xlink:href="#DejaVuSans-2e" x="1227.921875"/>
     <use xlink:href="#DejaVuSans-37" x="1259.708984"/>
     <use xlink:href="#DejaVuSans-30" x="1323.332031"/>
     <use xlink:href="#DejaVuSans-20" x="1386.955078"/>
    </g>
    <!--  Cd vs Alpha -->
    <g transform="translate(521.004062 35.856) scale(0.12 -0.12)">
     <use xlink:href="#DejaVuSans-20"/>
     <use xlink:href="#DejaVuSans-43" x="31.787109"/>
     <use xlink:href="#DejaVuSans-64" x="101.611328"/>
     <use xlink:href="#DejaVuSans-20" x="165.087891"/>
     <use xlink:href="#DejaVuSans-76" x="196.875"/>
     <use xlink:href="#DejaVuSans-73" x="256.054688"/>
     <use xlink:href="#DejaVuSans-20" x="308.154297"/>
     <use xlink:href="#DejaVuSans-41" x="339.941406"/>
     <use xlink:href="#DejaVuSans-6c" x="408.349609"/>
     <use xlink:href="#DejaVuSans-70" x="436.132812"/>
     <use xlink:href="#DejaVuSans-68" x="499.609375"/>
     <use xlink:href="#DejaVuSans-61" x="562.988281"/>
    </g>
   </g>
   <g id="legend_2">
    <g id="patch_13">
     <path d="M 416.01 79.21225 
L 511.46 79.21225 
Q 513.46 79.21225 513.46 77.21225 
L 513.46 48.856 
Q 513.46 46.856 511.46 46.856 
L 416.01 46.856 
Q 414.01 46.856 414.01 48.856 
L 414.01 77.21225 
Q 414.01 79.21225 416.01 79.21225 
z
" style="fill: #ffffff; opacity: 0.8; stroke: #cccccc; stroke-linejoin: miter"/>
    </g>
    <g id="line2d_24">
     <path d="M 418.01 54.954438 
L 428.01 54.954438 
L 438.01 54.954438 
" style="fill: none; stroke: #0000ff; stroke-width: 1.5; stroke-linecap: square"/>
    </g>
    <g id="text_29">
     <!-- Predicted Cd -->
     <g transform="translate(446.01 58.454438) scale(0.1 -0.1)">
      <use xlink:href="#DejaVuSans-50"/>
      <use xlink:href="#DejaVuSans-72" x="58.552734"/>
      <use xlink:href="#DejaVuSans-65" x="97.416016"/>
      <use xlink:href="#DejaVuSans-64" x="158.939453"/>
      <use xlink:href="#DejaVuSans-69" x="222.416016"/>
      <use xlink:href="#DejaVuSans-63" x="250.199219"/>
      <use xlink:href="#DejaVuSans-74" x="305.179688"/>
      <use xlink:href="#DejaVuSans-65" x="344.388672"/>
      <use xlink:href="#DejaVuSans-64" x="405.912109"/>
      <use xlink:href="#DejaVuSans-20" x="469.388672"/>
      <use xlink:href="#DejaVuSans-43" x="501.175781"/>
      <use xlink:href="#DejaVuSans-64" x="571"/>
     </g>
    </g>
    <g id="PathCollection_4">
     <g>
      <use xlink:href="#mdde6ed03c4" x="428.01" y="70.507563" style="fill: #ffa500; stroke: #ffa500"/>
     </g>
    </g>
    <g id="text_30">
     <!-- Original Cd -->
     <g transform="translate(446.01 73.132563) scale(0.1 -0.1)">
      <use xlink:href="#DejaVuSans-4f"/>
      <use xlink:href="#DejaVuSans-72" x="78.710938"/>
      <use xlink:href="#DejaVuSans-69" x="119.824219"/>
      <use xlink:href="#DejaVuSans-67" x="147.607422"/>
      <use xlink:href="#DejaVuSans-69" x="211.083984"/>
      <use xlink:href="#DejaVuSans-6e" x="238.867188"/>
      <use xlink:href="#DejaVuSans-61" x="302.246094"/>
      <use xlink:href="#DejaVuSans-6c" x="363.525391"/>
      <use xlink:href="#DejaVuSans-20" x="391.308594"/>
      <use xlink:href="#DejaVuSans-43" x="423.095703"/>
      <use xlink:href="#DejaVuSans-64" x="492.919922"/>
     </g>
    </g>
   </g>
  </g>
  <g id="axes_3">
   <g id="patch_14">
    <path d="M 770.3 318.04 
L 1069.2 318.04 
L 1069.2 41.856 
L 770.3 41.856 
z
" style="fill: #ffffff"/>
   </g>
   <g id="PathCollection_5">
    <g clip-path="url(#p12a93c573d)">
     <use xlink:href="#mdde6ed03c4" x="825.490539" y="271.033469" style="fill: #ffa500; stroke: #ffa500"/>
     <use xlink:href="#mdde6ed03c4" x="829.390931" y="261.993235" style="fill: #ffa500; stroke: #ffa500"/>
     <use xlink:href="#mdde6ed03c4" x="833.291322" y="252.489399" style="fill: #ffa500; stroke: #ffa500"/>
     <use xlink:href="#mdde6ed03c4" x="837.191714" y="243.680965" style="fill: #ffa500; stroke: #ffa500"/>
     <use xlink:href="#mdde6ed03c4" x="841.092105" y="235.336133" style="fill: #ffa500; stroke: #ffa500"/>
     <use xlink:href="#mdde6ed03c4" x="844.992497" y="226.991302" style="fill: #ffa500; stroke: #ffa500"/>
     <use xlink:href="#mdde6ed03c4" x="848.892888" y="218.182868" style="fill: #ffa500; stroke: #ffa500"/>
     <use xlink:href="#mdde6ed03c4" x="852.79328" y="206.592824" style="fill: #ffa500; stroke: #ffa500"/>
     <use xlink:href="#mdde6ed03c4" x="883.996411" y="190.134961" style="fill: #ffa500; stroke: #ffa500"/>
     <use xlink:href="#mdde6ed03c4" x="887.896803" y="181.094727" style="fill: #ffa500; stroke: #ffa500"/>
     <use xlink:href="#mdde6ed03c4" x="891.797194" y="172.054492" style="fill: #ffa500; stroke: #ffa500"/>
     <use xlink:href="#mdde6ed03c4" x="895.697586" y="162.318855" style="fill: #ffa500; stroke: #ffa500"/>
     <use xlink:href="#mdde6ed03c4" x="903.498369" y="133.111944" style="fill: #ffa500; stroke: #ffa500"/>
     <use xlink:href="#mdde6ed03c4" x="907.39876" y="122.912705" style="fill: #ffa500; stroke: #ffa500"/>
     <use xlink:href="#mdde6ed03c4" x="911.299152" y="113.177068" style="fill: #ffa500; stroke: #ffa500"/>
     <use xlink:href="#mdde6ed03c4" x="915.199543" y="103.673232" style="fill: #ffa500; stroke: #ffa500"/>
     <use xlink:href="#mdde6ed03c4" x="919.099935" y="93.937595" style="fill: #ffa500; stroke: #ffa500"/>
     <use xlink:href="#mdde6ed03c4" x="923.000326" y="84.665559" style="fill: #ffa500; stroke: #ffa500"/>
     <use xlink:href="#mdde6ed03c4" x="926.900718" y="76.320728" style="fill: #ffa500; stroke: #ffa500"/>
     <use xlink:href="#mdde6ed03c4" x="930.801109" y="69.1349" style="fill: #ffa500; stroke: #ffa500"/>
     <use xlink:href="#mdde6ed03c4" x="934.701501" y="63.108077" style="fill: #ffa500; stroke: #ffa500"/>
     <use xlink:href="#mdde6ed03c4" x="938.601892" y="58.703861" style="fill: #ffa500; stroke: #ffa500"/>
     <use xlink:href="#mdde6ed03c4" x="942.502284" y="56.154051" style="fill: #ffa500; stroke: #ffa500"/>
     <use xlink:href="#mdde6ed03c4" x="946.402675" y="54.763246" style="fill: #ffa500; stroke: #ffa500"/>
     <use xlink:href="#mdde6ed03c4" x="950.303067" y="54.995046" style="fill: #ffa500; stroke: #ffa500"/>
     <use xlink:href="#mdde6ed03c4" x="954.203458" y="56.617653" style="fill: #ffa500; stroke: #ffa500"/>
     <use xlink:href="#mdde6ed03c4" x="958.103849" y="59.862865" style="fill: #ffa500; stroke: #ffa500"/>
     <use xlink:href="#mdde6ed03c4" x="962.004241" y="64.035281" style="fill: #ffa500; stroke: #ffa500"/>
     <use xlink:href="#mdde6ed03c4" x="965.904632" y="69.598502" style="fill: #ffa500; stroke: #ffa500"/>
     <use xlink:href="#mdde6ed03c4" x="969.805024" y="76.088927" style="fill: #ffa500; stroke: #ffa500"/>
     <use xlink:href="#mdde6ed03c4" x="973.705415" y="83.738356" style="fill: #ffa500; stroke: #ffa500"/>
     <use xlink:href="#mdde6ed03c4" x="977.605807" y="93.242192" style="fill: #ffa500; stroke: #ffa500"/>
     <use xlink:href="#mdde6ed03c4" x="981.506198" y="102.977829" style="fill: #ffa500; stroke: #ffa500"/>
     <use xlink:href="#mdde6ed03c4" x="985.40659" y="114.220172" style="fill: #ffa500; stroke: #ffa500"/>
     <use xlink:href="#mdde6ed03c4" x="993.207373" y="139.872803" style="fill: #ffa500; stroke: #ffa500"/>
     <use xlink:href="#mdde6ed03c4" x="1012.70933" y="200.566001" style="fill: #ffa500; stroke: #ffa500"/>
     <use xlink:href="#mdde6ed03c4" x="1028.310896" y="185.730744" style="fill: #ffa500; stroke: #ffa500"/>
     <use xlink:href="#mdde6ed03c4" x="1036.111679" y="206.361023" style="fill: #ffa500; stroke: #ffa500"/>
     <use xlink:href="#mdde6ed03c4" x="1043.912462" y="224.673293" style="fill: #ffa500; stroke: #ffa500"/>
     <use xlink:href="#mdde6ed03c4" x="1051.713245" y="244.144567" style="fill: #ffa500; stroke: #ffa500"/>
     <use xlink:href="#mdde6ed03c4" x="1055.613636" y="252.7212" style="fill: #ffa500; stroke: #ffa500"/>
    </g>
   </g>
   <g id="matplotlib.axis_5">
    <g id="xtick_9">
     <g id="line2d_25">
      <g>
       <use xlink:href="#m73672ede99" x="822.890278" y="318.04" style="stroke: #000000; stroke-width: 0.8"/>
      </g>
     </g>
     <g id="text_31">
      <!-- 0 -->
      <g transform="translate(819.709028 332.638438) scale(0.1 -0.1)">
       <use xlink:href="#DejaVuSans-30"/>
      </g>
     </g>
    </g>
    <g id="xtick_10">
     <g id="line2d_26">
      <g>
       <use xlink:href="#m73672ede99" x="887.896803" y="318.04" style="stroke: #000000; stroke-width: 0.8"/>
      </g>
     </g>
     <g id="text_32">
      <!-- 5 -->
      <g transform="translate(884.715553 332.638438) scale(0.1 -0.1)">
       <use xlink:href="#DejaVuSans-35"/>
      </g>
     </g>
    </g>
    <g id="xtick_11">
     <g id="line2d_27">
      <g>
       <use xlink:href="#m73672ede99" x="952.903328" y="318.04" style="stroke: #000000; stroke-width: 0.8"/>
      </g>
     </g>
     <g id="text_33">
      <!-- 10 -->
      <g transform="translate(946.540828 332.638438) scale(0.1 -0.1)">
       <use xlink:href="#DejaVuSans-31"/>
       <use xlink:href="#DejaVuSans-30" x="63.623047"/>
      </g>
     </g>
    </g>
    <g id="xtick_12">
     <g id="line2d_28">
      <g>
       <use xlink:href="#m73672ede99" x="1017.909852" y="318.04" style="stroke: #000000; stroke-width: 0.8"/>
      </g>
     </g>
     <g id="text_34">
      <!-- 15 -->
      <g transform="translate(1011.547352 332.638438) scale(0.1 -0.1)">
       <use xlink:href="#DejaVuSans-31"/>
       <use xlink:href="#DejaVuSans-35" x="63.623047"/>
      </g>
     </g>
    </g>
    <g id="text_35">
     <!-- Alpha -->
     <g transform="translate(905.533594 346.316563) scale(0.1 -0.1)">
      <use xlink:href="#DejaVuSans-41"/>
      <use xlink:href="#DejaVuSans-6c" x="68.408203"/>
      <use xlink:href="#DejaVuSans-70" x="96.191406"/>
      <use xlink:href="#DejaVuSans-68" x="159.667969"/>
      <use xlink:href="#DejaVuSans-61" x="223.046875"/>
     </g>
    </g>
   </g>
   <g id="matplotlib.axis_6">
    <g id="ytick_13">
     <g id="line2d_29">
      <g>
       <use xlink:href="#mefdb411267" x="770.3" y="282.855314" style="stroke: #000000; stroke-width: 0.8"/>
      </g>
     </g>
     <g id="text_36">
      <!-- 0.10 -->
      <g transform="translate(732.654687 286.654533) scale(0.1 -0.1)">
       <defs>
        <path id="DejaVuSans-2212" d="M 678 2272 
L 4684 2272 
L 4684 1741 
L 678 1741 
L 678 2272 
z
" transform="scale(0.015625)"/>
       </defs>
       <use xlink:href="#DejaVuSans-2212"/>
       <use xlink:href="#DejaVuSans-30" x="83.789062"/>
       <use xlink:href="#DejaVuSans-2e" x="147.412109"/>
       <use xlink:href="#DejaVuSans-31" x="179.199219"/>
       <use xlink:href="#DejaVuSans-30" x="242.822266"/>
      </g>
     </g>
    </g>
    <g id="ytick_14">
     <g id="line2d_30">
      <g>
       <use xlink:href="#mefdb411267" x="770.3" y="236.495138" style="stroke: #000000; stroke-width: 0.8"/>
      </g>
     </g>
     <g id="text_37">
      <!-- 0.08 -->
      <g transform="translate(732.654687 240.294357) scale(0.1 -0.1)">
       <use xlink:href="#DejaVuSans-2212"/>
       <use xlink:href="#DejaVuSans-30" x="83.789062"/>
       <use xlink:href="#DejaVuSans-2e" x="147.412109"/>
       <use xlink:href="#DejaVuSans-30" x="179.199219"/>
       <use xlink:href="#DejaVuSans-38" x="242.822266"/>
      </g>
     </g>
    </g>
    <g id="ytick_15">
     <g id="line2d_31">
      <g>
       <use xlink:href="#mefdb411267" x="770.3" y="190.134961" style="stroke: #000000; stroke-width: 0.8"/>
      </g>
     </g>
     <g id="text_38">
      <!-- 0.06 -->
      <g transform="translate(732.654687 193.93418) scale(0.1 -0.1)">
       <use xlink:href="#DejaVuSans-2212"/>
       <use xlink:href="#DejaVuSans-30" x="83.789062"/>
       <use xlink:href="#DejaVuSans-2e" x="147.412109"/>
       <use xlink:href="#DejaVuSans-30" x="179.199219"/>
       <use xlink:href="#DejaVuSans-36" x="242.822266"/>
      </g>
     </g>
    </g>
    <g id="ytick_16">
     <g id="line2d_32">
      <g>
       <use xlink:href="#mefdb411267" x="770.3" y="143.774785" style="stroke: #000000; stroke-width: 0.8"/>
      </g>
     </g>
     <g id="text_39">
      <!-- 0.04 -->
      <g transform="translate(732.654687 147.574003) scale(0.1 -0.1)">
       <use xlink:href="#DejaVuSans-2212"/>
       <use xlink:href="#DejaVuSans-30" x="83.789062"/>
       <use xlink:href="#DejaVuSans-2e" x="147.412109"/>
       <use xlink:href="#DejaVuSans-30" x="179.199219"/>
       <use xlink:href="#DejaVuSans-34" x="242.822266"/>
      </g>
     </g>
    </g>
    <g id="ytick_17">
     <g id="line2d_33">
      <g>
       <use xlink:href="#mefdb411267" x="770.3" y="97.414608" style="stroke: #000000; stroke-width: 0.8"/>
      </g>
     </g>
     <g id="text_40">
      <!-- 0.02 -->
      <g transform="translate(732.654687 101.213827) scale(0.1 -0.1)">
       <use xlink:href="#DejaVuSans-2212"/>
       <use xlink:href="#DejaVuSans-30" x="83.789062"/>
       <use xlink:href="#DejaVuSans-2e" x="147.412109"/>
       <use xlink:href="#DejaVuSans-30" x="179.199219"/>
       <use xlink:href="#DejaVuSans-32" x="242.822266"/>
      </g>
     </g>
    </g>
    <g id="ytick_18">
     <g id="line2d_34">
      <g>
       <use xlink:href="#mefdb411267" x="770.3" y="51.054431" style="stroke: #000000; stroke-width: 0.8"/>
      </g>
     </g>
     <g id="text_41">
      <!-- 0.00 -->
      <g transform="translate(741.034375 54.85365) scale(0.1 -0.1)">
       <use xlink:href="#DejaVuSans-30"/>
       <use xlink:href="#DejaVuSans-2e" x="63.623047"/>
       <use xlink:href="#DejaVuSans-30" x="95.410156"/>
       <use xlink:href="#DejaVuSans-30" x="159.033203"/>
      </g>
     </g>
    </g>
    <g id="text_42">
     <!-- Cm -->
     <g transform="translate(726.575 188.309719) rotate(-90) scale(0.1 -0.1)">
      <defs>
       <path id="DejaVuSans-6d" d="M 3328 2828 
Q 3544 3216 3844 3400 
Q 4144 3584 4550 3584 
Q 5097 3584 5394 3201 
Q 5691 2819 5691 2113 
L 5691 0 
L 5113 0 
L 5113 2094 
Q 5113 2597 4934 2840 
Q 4756 3084 4391 3084 
Q 3944 3084 3684 2787 
Q 3425 2491 3425 1978 
L 3425 0 
L 2847 0 
L 2847 2094 
Q 2847 2600 2669 2842 
Q 2491 3084 2119 3084 
Q 1678 3084 1418 2786 
Q 1159 2488 1159 1978 
L 1159 0 
L 581 0 
L 581 3500 
L 1159 3500 
L 1159 2956 
Q 1356 3278 1631 3431 
Q 1906 3584 2284 3584 
Q 2666 3584 2933 3390 
Q 3200 3197 3328 2828 
z
" transform="scale(0.015625)"/>
      </defs>
      <use xlink:href="#DejaVuSans-43"/>
      <use xlink:href="#DejaVuSans-6d" x="69.824219"/>
     </g>
    </g>
   </g>
   <g id="line2d_35">
    <path d="M 783.886364 305.486182 
L 786.250237 304.521606 
L 788.614111 303.376036 
L 790.977984 302.028176 
L 793.341858 300.482776 
L 795.705732 298.755483 
L 798.069605 296.853171 
L 800.433479 294.882934 
L 802.797353 292.880228 
L 805.161226 290.892496 
L 807.5251 288.929685 
L 809.888973 286.968394 
L 812.252847 284.981232 
L 814.616721 282.945004 
L 816.980594 280.843925 
L 819.344468 278.701725 
L 821.708342 276.501341 
L 824.072215 274.159028 
L 826.436089 271.699897 
L 828.799962 269.069771 
L 831.163836 266.254781 
L 833.52771 263.157833 
L 835.891583 259.662765 
L 838.255457 255.673467 
L 840.619331 250.994678 
L 842.983204 245.298345 
L 845.347078 237.920504 
L 847.710951 226.868965 
L 850.074825 211.257407 
L 852.438699 211.92961 
L 854.802572 247.043686 
L 857.166446 258.864522 
L 859.53032 261.249027 
L 861.894193 258.050079 
L 864.258067 250.114556 
L 866.62194 239.660801 
L 868.985814 229.027399 
L 871.349688 219.940381 
L 873.713561 212.729269 
L 876.077435 206.911835 
L 878.441308 201.908516 
L 880.805182 197.286029 
L 883.169056 192.75676 
L 885.532929 188.133953 
L 887.896803 183.285672 
L 890.260677 178.079847 
L 892.62455 172.300046 
L 894.988424 165.536776 
L 897.352297 157.221568 
L 899.716171 147.253651 
L 902.080045 136.885342 
L 904.443918 127.792755 
L 906.807792 120.474682 
L 909.171666 114.416877 
L 911.535539 108.94833 
L 913.899413 103.802628 
L 916.263286 98.65137 
L 918.62716 93.451858 
L 920.991034 88.104458 
L 923.354907 82.82303 
L 925.718781 77.708066 
L 928.082655 72.849733 
L 930.446528 68.415236 
L 932.810402 64.617581 
L 935.174275 61.432095 
L 937.538149 58.884858 
L 939.902023 56.961329 
L 942.265896 55.615507 
L 944.62977 54.789407 
L 946.993643 54.409818 
L 949.357517 54.471707 
L 951.721391 55.002749 
L 954.085264 55.941367 
L 956.449138 57.276714 
L 958.813012 58.963931 
L 961.176885 60.983908 
L 963.540759 63.3268 
L 965.904632 65.960164 
L 968.268506 68.780275 
L 970.63238 71.814478 
L 972.996253 75.122195 
L 975.360127 78.745419 
L 977.724001 82.671611 
L 980.087874 86.916426 
L 982.451748 91.487139 
L 984.815621 96.331862 
L 987.179495 101.40846 
L 989.543369 106.65804 
L 991.907242 112.006898 
L 994.271116 117.369142 
L 996.63499 122.650197 
L 998.998863 127.752238 
L 1001.362737 132.582377 
L 1003.72661 137.053462 
L 1006.090484 141.105219 
L 1008.454358 144.728262 
L 1010.818231 147.921752 
L 1013.182105 150.705033 
L 1015.545978 153.099356 
L 1017.909852 155.12859 
" clip-path="url(#p12a93c573d)" style="fill: none; stroke: #0000ff; stroke-width: 1.5; stroke-linecap: square"/>
   </g>
   <g id="patch_15">
    <path d="M 770.3 318.04 
L 770.3 41.856 
" style="fill: none; stroke: #000000; stroke-width: 0.8; stroke-linejoin: miter; stroke-linecap: square"/>
   </g>
   <g id="patch_16">
    <path d="M 1069.2 318.04 
L 1069.2 41.856 
" style="fill: none; stroke: #000000; stroke-width: 0.8; stroke-linejoin: miter; stroke-linecap: square"/>
   </g>
   <g id="patch_17">
    <path d="M 770.3 318.04 
L 1069.2 318.04 
" style="fill: none; stroke: #000000; stroke-width: 0.8; stroke-linejoin: miter; stroke-linecap: square"/>
   </g>
   <g id="patch_18">
    <path d="M 770.3 41.856 
L 1069.2 41.856 
" style="fill: none; stroke: #000000; stroke-width: 0.8; stroke-linejoin: miter; stroke-linecap: square"/>
   </g>
   <g id="text_43">
    <!-- Re = 2636315 Mach = 0.70  -->
    <g transform="translate(834.625 22.418625) scale(0.12 -0.12)">
     <use xlink:href="#DejaVuSans-52"/>
     <use xlink:href="#DejaVuSans-65" x="64.982422"/>
     <use xlink:href="#DejaVuSans-20" x="126.505859"/>
     <use xlink:href="#DejaVuSans-3d" x="158.292969"/>
     <use xlink:href="#DejaVuSans-20" x="242.082031"/>
     <use xlink:href="#DejaVuSans-32" x="273.869141"/>
     <use xlink:href="#DejaVuSans-36" x="337.492188"/>
     <use xlink:href="#DejaVuSans-33" x="401.115234"/>
     <use xlink:href="#DejaVuSans-36" x="464.738281"/>
     <use xlink:href="#DejaVuSans-33" x="528.361328"/>
     <use xlink:href="#DejaVuSans-31" x="591.984375"/>
     <use xlink:href="#DejaVuSans-35" x="655.607422"/>
     <use xlink:href="#DejaVuSans-20" x="719.230469"/>
     <use xlink:href="#DejaVuSans-4d" x="751.017578"/>
     <use xlink:href="#DejaVuSans-61" x="837.296875"/>
     <use xlink:href="#DejaVuSans-63" x="898.576172"/>
     <use xlink:href="#DejaVuSans-68" x="953.556641"/>
     <use xlink:href="#DejaVuSans-20" x="1016.935547"/>
     <use xlink:href="#DejaVuSans-3d" x="1048.722656"/>
     <use xlink:href="#DejaVuSans-20" x="1132.511719"/>
     <use xlink:href="#DejaVuSans-30" x="1164.298828"/>
     <use xlink:href="#DejaVuSans-2e" x="1227.921875"/>
     <use xlink:href="#DejaVuSans-37" x="1259.708984"/>
     <use xlink:href="#DejaVuSans-30" x="1323.332031"/>
     <use xlink:href="#DejaVuSans-20" x="1386.955078"/>
    </g>
    <!--  Cm vs Alpha -->
    <g transform="translate(880.25875 35.856) scale(0.12 -0.12)">
     <use xlink:href="#DejaVuSans-20"/>
     <use xlink:href="#DejaVuSans-43" x="31.787109"/>
     <use xlink:href="#DejaVuSans-6d" x="101.611328"/>
     <use xlink:href="#DejaVuSans-20" x="199.023438"/>
     <use xlink:href="#DejaVuSans-76" x="230.810547"/>
     <use xlink:href="#DejaVuSans-73" x="289.990234"/>
     <use xlink:href="#DejaVuSans-20" x="342.089844"/>
     <use xlink:href="#DejaVuSans-41" x="373.876953"/>
     <use xlink:href="#DejaVuSans-6c" x="442.285156"/>
     <use xlink:href="#DejaVuSans-70" x="470.068359"/>
     <use xlink:href="#DejaVuSans-68" x="533.544922"/>
     <use xlink:href="#DejaVuSans-61" x="596.923828"/>
    </g>
   </g>
   <g id="legend_3">
    <g id="patch_19">
     <path d="M 777.3 79.21225 
L 876.142187 79.21225 
Q 878.142187 79.21225 878.142187 77.21225 
L 878.142187 48.856 
Q 878.142187 46.856 876.142187 46.856 
L 777.3 46.856 
Q 775.3 46.856 775.3 48.856 
L 775.3 77.21225 
Q 775.3 79.21225 777.3 79.21225 
z
" style="fill: #ffffff; opacity: 0.8; stroke: #cccccc; stroke-linejoin: miter"/>
    </g>
    <g id="line2d_36">
     <path d="M 779.3 54.954438 
L 789.3 54.954438 
L 799.3 54.954438 
" style="fill: none; stroke: #0000ff; stroke-width: 1.5; stroke-linecap: square"/>
    </g>
    <g id="text_44">
     <!-- Predicted Cm -->
     <g transform="translate(807.3 58.454438) scale(0.1 -0.1)">
      <use xlink:href="#DejaVuSans-50"/>
      <use xlink:href="#DejaVuSans-72" x="58.552734"/>
      <use xlink:href="#DejaVuSans-65" x="97.416016"/>
      <use xlink:href="#DejaVuSans-64" x="158.939453"/>
      <use xlink:href="#DejaVuSans-69" x="222.416016"/>
      <use xlink:href="#DejaVuSans-63" x="250.199219"/>
      <use xlink:href="#DejaVuSans-74" x="305.179688"/>
      <use xlink:href="#DejaVuSans-65" x="344.388672"/>
      <use xlink:href="#DejaVuSans-64" x="405.912109"/>
      <use xlink:href="#DejaVuSans-20" x="469.388672"/>
      <use xlink:href="#DejaVuSans-43" x="501.175781"/>
      <use xlink:href="#DejaVuSans-6d" x="571"/>
     </g>
    </g>
    <g id="PathCollection_6">
     <g>
      <use xlink:href="#mdde6ed03c4" x="789.3" y="70.507563" style="fill: #ffa500; stroke: #ffa500"/>
     </g>
    </g>
    <g id="text_45">
     <!-- Original Cm -->
     <g transform="translate(807.3 73.132563) scale(0.1 -0.1)">
      <use xlink:href="#DejaVuSans-4f"/>
      <use xlink:href="#DejaVuSans-72" x="78.710938"/>
      <use xlink:href="#DejaVuSans-69" x="119.824219"/>
      <use xlink:href="#DejaVuSans-67" x="147.607422"/>
      <use xlink:href="#DejaVuSans-69" x="211.083984"/>
      <use xlink:href="#DejaVuSans-6e" x="238.867188"/>
      <use xlink:href="#DejaVuSans-61" x="302.246094"/>
      <use xlink:href="#DejaVuSans-6c" x="363.525391"/>
      <use xlink:href="#DejaVuSans-20" x="391.308594"/>
      <use xlink:href="#DejaVuSans-43" x="423.095703"/>
      <use xlink:href="#DejaVuSans-6d" x="492.919922"/>
     </g>
    </g>
   </g>
  </g>
 </g>
 <defs>
  <clipPath id="p7a4ad0bbb7">
   <rect x="47.72" y="41.856" width="298.9" height="276.184"/>
  </clipPath>
  <clipPath id="p47dc5feec9">
   <rect x="409.01" y="41.856" width="298.9" height="276.184"/>
  </clipPath>
  <clipPath id="p12a93c573d">
   <rect x="770.3" y="41.856" width="298.9" height="276.184"/>
  </clipPath>
 </defs>
</svg>
